STARTFONT 2.1
COMMENT This font was automatically resized by bdfresize-1.4
COMMENT   mag_x = 3/5, mag_y = 3/5, blackness = 3
COMMENT HBF_START_FONT 1.0
COMMENT HBF_CODE_SCHEME CNS11643-1992-1
COMMENT
COMMENT   Plane 1 of CNS11643-1992
COMMENT
COMMENT	  Bitmaps provided by Central Bureau of Standards
COMMENT	  Ministry of Economy, Taiwan, ROC, March 9, 1994
COMMENT
FONT -CBS-Song-medium-r-normal-fantizi-24-240-75-75-c-240-CNS11643.1992-1
COMMENT
COMMENT An equivalent full X11R6 XLFD conforming font name is
COMMENT -CBS-Song-medium-r-normal-fantizi-40-400-75-75-c-400-CNS11643.1992.1-0
COMMENT which is formed from the first 15 properties listed in
COMMENT the STARTPROPERTIES section below.
COMMENT Any of these properties is optional, as in the simple HBF file.
COMMENT
SIZE 24 150 150
COMMENT HBF_BITMAP_BOUNDING_BOX 40 40 0 -6
FONTBOUNDINGBOX 24 24 0 -2
COMMENT
COMMENT  Begin Logical Font Description -- 23 special properties for this FONT 
COMMENT
STARTPROPERTIES 23
FONTNAME_REGISTRY ""
FOUNDRY "CBS"
FAMILY_NAME "Song"
WEIGHT_NAME "medium"
SLANT "r"
SETWIDTH_NAME "normal"
ADD_STYLE_NAME "fantizi"
PIXEL_SIZE 24
POINT_SIZE 240
RESOLUTION_X 75
RESOLUTION_Y 75
SPACING "c"
AVERAGE_WIDTH 240
CHARS 1
CHARS 1
COPYRIGHT "1994, Central Bureau of Standards, Ministry of Economy, ROC"
WEIGHT 19329
RESOLUTION 110
X_HEIGHT 34
QUAD_WIDTH 40
FONT_ASCENT 22
FONT_DESCENT 2
DEFAULT_CHAR 32382
ENDPROPERTIES
CHARS 6086
COMMENT HBF_START_BYTE_2_RANGES 1
COMMENT HBF_BYTE_2_RANGE 0x21-0x7E
COMMENT HBF_END_BYTE_2_RANGES
COMMENT HBF_START_CODE_RANGES 6
COMMENT HBF_CODE_RANGE 0x2121-0x234E cns4040.w0.bin 0
COMMENT HBF_CODE_RANGE 0x2421-0x2570 cns4040.w0.bin 46800
COMMENT HBF_CODE_RANGE 0x2621-0x263E cns4040.w0.bin 81600
COMMENT HBF_CODE_RANGE 0x2721-0x2939 cns4040.w0.bin 87600
COMMENT HBF_CODE_RANGE 0x4221-0x4241 cns4040.w0.bin 130200
COMMENT HBF_CODE_RANGE 0x4421-0x7D4B cns4040.w1.bin 0
COMMENT HBF_END_CODE_RANGES
COMMENT
COMMENT (1) 684 symbols defined in the range of 2121--427E, including

STARTCHAR C2121
ENCODING 8481
SWIDTH 400 0
DWIDTH 24 0
BBX 24 24 0 -2
BITMAP
000000
000000
000000
000000
000000
000000
000000
000000
000000
000000
000000
000000
000000
000000
000000
000000
000000
000000
000000
000000
000000
000000
000000
000000
ENDCHAR
STARTCHAR C2122
ENCODING 8482
SWIDTH 400 0
DWIDTH 24 0
BBX 24 24 0 -2
BITMAP
000000
000000
000000
000000
000000
000000
000000
000000
001800
003C00
003E00
001E00
000E00
000C00
001C00
007800
000000
000000
000000
000000
000000
000000
000000
000000
ENDCHAR
STARTCHAR C2123
ENCODING 8483
SWIDTH 400 0
DWIDTH 24 0
BBX 24 24 0 -2
BITMAP
000000
000000
000000
000000
000000
000000
000000
000000
00E000
003800
001C00
000E00
000E00
000F00
000700
000700
000000
000000
000000
000000
000000
000000
000000
000000
ENDCHAR
STARTCHAR C2124
ENCODING 8484
SWIDTH 400 0
DWIDTH 24 0
BBX 24 24 0 -2
BITMAP
000000
000000
000000
000000
000000
000000
000000
000000
003C00
006600
00C300
008100
008100
00C300
006600
003C00
000000
000000
000000
000000
000000
000000
000000
000000
ENDCHAR
STARTCHAR C2125
ENCODING 8485
SWIDTH 400 0
DWIDTH 24 0
BBX 24 24 0 -2
BITMAP
000000
000000
000000
000000
000000
000000
000000
000000
000000
001800
003C00
007E00
007E00
003C00
001800
000000
000000
000000
000000
000000
000000
000000
000000
000000
ENDCHAR
STARTCHAR C2126
ENCODING 8486
SWIDTH 400 0
DWIDTH 24 0
BBX 24 24 0 -2
BITMAP
000000
000000
000000
000000
000000
000000
000000
000000
001800
007E00
007E00
00FF00
00FF00
007E00
007E00
001800
000000
000000
000000
000000
000000
000000
000000
000000
ENDCHAR
STARTCHAR C2127
ENCODING 8487
SWIDTH 400 0
DWIDTH 24 0
BBX 24 24 0 -2
BITMAP
000000
000000
000000
001800
007C00
007E00
007E00
007C00
001800
000000
000000
000000
000000
000000
003C00
007E00
007E00
001E00
000C00
001800
003000
00E000
000000
000000
ENDCHAR
STARTCHAR C2128
ENCODING 8488
SWIDTH 400 0
DWIDTH 24 0
BBX 24 24 0 -2
BITMAP
000000
000000
000000
001800
007C00
007E00
007E00
007C00
001800
000000
000000
000000
000000
000000
003C00
007E00
007E00
007C00
003800
000000
000000
000000
000000
000000
ENDCHAR
STARTCHAR C2129
ENCODING 8489
SWIDTH 400 0
DWIDTH 24 0
BBX 24 24 0 -2
BITMAP
000000
007C00
00FF00
01C300
018380
03C380
03C380
018300
000700
000E00
000C00
001800
001800
001800
001800
001800
000000
003800
007C00
007E00
007C00
003800
000000
000000
ENDCHAR
STARTCHAR C212a
ENCODING 8490
SWIDTH 400 0
DWIDTH 24 0
BBX 24 24 0 -2
BITMAP
000000
001000
003800
007C00
007C00
007C00
003C00
003800
003800
003800
003800
003800
001800
001800
001800
001800
000000
001800
003C00
007C00
003C00
001800
000000
000000
ENDCHAR
STARTCHAR C212b
ENCODING 8491
SWIDTH 400 0
DWIDTH 24 0
BBX 24 24 0 -2
BITMAP
000000
000000
000000
000000
000000
003800
007C00
003C00
003800
000000
000000
000000
000000
000000
001800
003C00
007C00
003C00
001800
000000
000000
000000
000000
000000
ENDCHAR
STARTCHAR C212c
ENCODING 8492
SWIDTH 400 0
DWIDTH 24 0
BBX 24 24 0 -2
BITMAP
000000
000000
000000
000000
000000
000000
000000
000000
000000
101010
3C3838
3C7C7C
3C3C7C
181838
000000
000000
000000
000000
000000
000000
000000
000000
000000
000000
ENDCHAR
STARTCHAR C212d
ENCODING 8493
SWIDTH 400 0
DWIDTH 24 0
BBX 24 24 0 -2
BITMAP
000000
000000
000000
000000
000000
000000
000000
000000
000000
040040
0E00E0
1F01F0
0F00F0
060060
000000
000000
000000
000000
000000
000000
000000
000000
000000
000000
ENDCHAR
STARTCHAR C212e
ENCODING 8494
SWIDTH 400 0
DWIDTH 24 0
BBX 24 24 0 -2
BITMAP
000000
000000
000000
000000
000000
000000
000000
000000
000000
000000
000000
000000
000000
000000
000000
000000
001800
003C00
003E00
000E00
000C00
001800
003000
000000
ENDCHAR
STARTCHAR C212f
ENCODING 8495
SWIDTH 400 0
DWIDTH 24 0
BBX 24 24 0 -2
BITMAP
000000
000000
000000
000000
000000
000000
000000
000000
000000
000000
000000
000000
000000
000000
000000
000000
004000
003000
001800
001C00
000C00
000E00
000400
000000
ENDCHAR
STARTCHAR C2130
ENCODING 8496
SWIDTH 400 0
DWIDTH 24 0
BBX 24 24 0 -2
BITMAP
000000
000000
000000
000000
000000
000000
000000
000000
000000
000000
000000
000000
000000
000000
000000
000000
000000
000000
000800
001C00
001C00
001800
000000
000000
ENDCHAR
STARTCHAR C2131
ENCODING 8497
SWIDTH 400 0
DWIDTH 24 0
BBX 24 24 0 -2
BITMAP
000000
000000
000000
000000
000000
000000
000000
000000
000000
000800
001C00
003E00
003C00
001800
000000
000000
000000
000000
000000
000000
000000
000000
000000
000000
ENDCHAR
STARTCHAR C2132
ENCODING 8498
SWIDTH 400 0
DWIDTH 24 0
BBX 24 24 0 -2
BITMAP
000000
000000
000000
000000
000000
001C00
003E00
003C00
001C00
000000
000000
000000
000000
000000
001800
003C00
003E00
003E00
000E00
000C00
001C00
003800
000000
000000
ENDCHAR
STARTCHAR C2133
ENCODING 8499
SWIDTH 400 0
DWIDTH 24 0
BBX 24 24 0 -2
BITMAP
000000
000000
000000
000000
000000
001C00
003E00
003C00
001C00
000000
000000
000000
000000
000000
001800
003C00
003E00
003C00
001800
000000
000000
000000
000000
000000
ENDCHAR
STARTCHAR C2134
ENCODING 8500
SWIDTH 400 0
DWIDTH 24 0
BBX 24 24 0 -2
BITMAP
000000
001C00
007F00
006300
00C300
00C300
00E300
004300
000600
000E00
000C00
000C00
001800
001800
001800
001800
000000
000000
001800
003C00
003C00
001800
000000
000000
ENDCHAR
STARTCHAR C2135
ENCODING 8501
SWIDTH 400 0
DWIDTH 24 0
BBX 24 24 0 -2
BITMAP
000000
000800
001C00
001E00
001E00
001E00
001C00
001C00
001C00
001C00
001C00
000C00
000800
000800
000800
000800
000000
000000
000C00
001C00
001C00
000800
000000
000000
ENDCHAR
STARTCHAR C2136
ENCODING 8502
SWIDTH 400 0
DWIDTH 24 0
BBX 24 24 0 -2
BITMAP
001800
001800
001800
001800
001800
001800
001800
001800
001800
001800
001800
001800
001800
001800
001800
001800
001800
001800
001800
001800
001800
001800
001800
001800
ENDCHAR
STARTCHAR C2137
ENCODING 8503
SWIDTH 400 0
DWIDTH 24 0
BBX 24 24 0 -2
BITMAP
000000
000000
000000
000000
000000
000000
000000
000000
000000
000000
000000
FFFFFF
FFFFFF
000000
000000
000000
000000
000000
000000
000000
000000
000000
000000
000000
ENDCHAR
STARTCHAR C2138
ENCODING 8504
SWIDTH 400 0
DWIDTH 24 0
BBX 24 24 0 -2
BITMAP
001000
001000
001000
001000
001000
001000
001000
001000
001000
001000
001000
001000
001000
001000
001000
001000
001000
001000
001000
001000
001000
001000
001000
001000
ENDCHAR
STARTCHAR C2139
ENCODING 8505
SWIDTH 400 0
DWIDTH 24 0
BBX 24 24 0 -2
BITMAP
000000
000000
000000
000000
000000
000000
000000
000000
000000
000000
000000
FFFFFF
000000
000000
000000
000000
000000
000000
000000
000000
000000
000000
000000
000000
ENDCHAR
STARTCHAR C213a
ENCODING 8506
SWIDTH 400 0
DWIDTH 24 0
BBX 24 24 0 -2
BITMAP
000003
000003
000003
000003
000003
000003
000003
000003
000003
000003
000003
000003
000003
000003
000003
000003
000003
000003
000003
000003
000003
000003
000003
000003
ENDCHAR
STARTCHAR C213b
ENCODING 8507
SWIDTH 400 0
DWIDTH 24 0
BBX 24 24 0 -2
BITMAP
FFFFFF
FFFFFF
000000
000000
000000
000000
000000
000000
000000
000000
000000
000000
000000
000000
000000
000000
000000
000000
000000
000000
000000
000000
000000
000000
ENDCHAR
STARTCHAR C213c
ENCODING 8508
SWIDTH 400 0
DWIDTH 24 0
BBX 24 24 0 -2
BITMAP
000018
00001C
00000E
000003
000001
000007
00001E
000018
000018
00001C
000007
000003
000003
000007
00001C
000018
000018
00001E
000007
000001
000003
00000E
00001C
000018
ENDCHAR
STARTCHAR C213d
ENCODING 8509
SWIDTH 400 0
DWIDTH 24 0
BBX 24 24 0 -2
BITMAP
1C3C38
363C6C
666666
E3C3C7
C3C3C3
000000
000000
000000
000000
000000
000000
000000
000000
000000
000000
000000
000000
000000
000000
000000
000000
000000
000000
000000
ENDCHAR
STARTCHAR C213e
ENCODING 8510
SWIDTH 400 0
DWIDTH 24 0
BBX 24 24 0 -2
BITMAP
000002
00000C
000018
000030
000070
000060
000060
0000E0
0000C0
0001C0
0001C0
0001C0
0001C0
0001C0
0001C0
0000C0
0000E0
000060
000060
000070
000030
000018
00000C
000002
ENDCHAR
STARTCHAR C213f
ENCODING 8511
SWIDTH 400 0
DWIDTH 24 0
BBX 24 24 0 -2
BITMAP
400000
300000
180000
0C0000
0E0000
060000
060000
070000
030000
038000
038000
038000
038000
038000
038000
030000
070000
060000
060000
0E0000
0C0000
180000
300000
400000
ENDCHAR
STARTCHAR C2140
ENCODING 8512
SWIDTH 400 0
DWIDTH 24 0
BBX 24 24 0 -2
BITMAP
000000
000000
000000
000000
000000
000000
000000
000000
000000
000000
000000
000000
000000
000000
000000
007E00
01FF80
0FFFF0
1F00F8
38001C
600006
400002
800001
000000
ENDCHAR
STARTCHAR C2141
ENCODING 8513
SWIDTH 400 0
DWIDTH 24 0
BBX 24 24 0 -2
BITMAP
000000
800001
400002
600006
38001C
1F00F8
0FFFF0
01FF80
007E00
000000
000000
000000
000000
000000
000000
000000
000000
000000
000000
000000
000000
000000
000000
000000
ENDCHAR
STARTCHAR C2142
ENCODING 8514
SWIDTH 400 0
DWIDTH 24 0
BBX 24 24 0 -2
BITMAP
000006
00001C
000038
000030
000070
000070
000078
000038
000038
000030
000060
0000C0
0000C0
000060
000030
000038
000038
000078
000070
000070
000030
000038
00001C
000006
ENDCHAR
STARTCHAR C2143
ENCODING 8515
SWIDTH 400 0
DWIDTH 24 0
BBX 24 24 0 -2
BITMAP
600000
380000
1C0000
0C0000
0E0000
0E0000
1E0000
1C0000
1C0000
0C0000
060000
030000
030000
060000
0C0000
1C0000
1C0000
1E0000
0E0000
0E0000
0C0000
1C0000
380000
600000
ENDCHAR
STARTCHAR C2144
ENCODING 8516
SWIDTH 400 0
DWIDTH 24 0
BBX 24 24 0 -2
BITMAP
000000
000000
000000
000000
000000
000000
000000
000000
000000
000000
000000
000000
000000
000000
000000
001800
001800
3F7EFC
7FE7FE
73C3CE
E00007
C00003
800001
000000
ENDCHAR
STARTCHAR C2145
ENCODING 8517
SWIDTH 400 0
DWIDTH 24 0
BBX 24 24 0 -2
BITMAP
000000
800001
C00003
E00007
73C3CE
7FE7FE
3F7F7C
001800
001800
000000
000000
000000
000000
000000
000000
000000
000000
000000
000000
000000
000000
000000
000000
000000
ENDCHAR
STARTCHAR C2146
ENCODING 8518
SWIDTH 400 0
DWIDTH 24 0
BBX 24 24 0 -2
BITMAP
00000F
00003E
0003F8
0003C0
000300
000300
000300
000300
000300
000300
000300
000300
000300
000300
000300
000300
000300
000300
000300
000300
0003C0
0003F8
00003E
00000F
ENDCHAR
STARTCHAR C2147
ENCODING 8519
SWIDTH 400 0
DWIDTH 24 0
BBX 24 24 0 -2
BITMAP
F00000
7C0000
1FC000
03C000
00C000
00C000
00C000
00C000
00C000
00C000
00C000
00C000
00C000
00C000
00C000
00C000
00C000
00C000
00C000
00C000
03C000
1FC000
7C0000
F00000
ENDCHAR
STARTCHAR C2148
ENCODING 8520
SWIDTH 400 0
DWIDTH 24 0
BBX 24 24 0 -2
BITMAP
000000
000000
000000
000000
000000
000000
000000
000000
000000
000000
000000
000000
000000
000000
3FFFFC
3FFFFC
30000C
30000C
600006
600006
E00007
C00003
C00003
800001
ENDCHAR
STARTCHAR C2149
ENCODING 8521
SWIDTH 400 0
DWIDTH 24 0
BBX 24 24 0 -2
BITMAP
800001
C00003
C00003
E00007
600006
600006
30000C
30000C
3FFFFC
3FFFFC
000000
000000
000000
000000
000000
000000
000000
000000
000000
000000
000000
000000
000000
000000
ENDCHAR
STARTCHAR C214a
ENCODING 8522
SWIDTH 400 0
DWIDTH 24 0
BBX 24 24 0 -2
BITMAP
0003FE
0003F0
0003E0
0003C0
000380
000380
000380
000300
000300
000300
000300
000300
000300
000300
000300
000300
000300
000380
000380
000380
0003C0
0003E0
0003F0
0003FE
ENDCHAR
STARTCHAR C214b
ENCODING 8523
SWIDTH 400 0
DWIDTH 24 0
BBX 24 24 0 -2
BITMAP
7FC000
1FC000
0FC000
07C000
03C000
03C000
01C000
01C000
01C000
00C000
00C000
00C000
00C000
00C000
00C000
01C000
01C000
01C000
03C000
03C000
07C000
0FC000
1FC000
7FC000
ENDCHAR
STARTCHAR C214c
ENCODING 8524
SWIDTH 400 0
DWIDTH 24 0
BBX 24 24 0 -2
BITMAP
000000
000000
000000
000000
000000
000000
000000
000000
000000
000000
000000
000000
000000
000000
FFFFFF
FFFFFF
FF00FF
FC003F
F0000F
E00007
C00003
800001
800001
000000
ENDCHAR
STARTCHAR C214d
ENCODING 8525
SWIDTH 400 0
DWIDTH 24 0
BBX 24 24 0 -2
BITMAP
000000
800001
800001
C00003
E00007
F0000F
FC003F
FF81FF
FFFFFF
FFFFFF
000000
000000
000000
000000
000000
000000
000000
000000
000000
000000
000000
000000
000000
000000
ENDCHAR
STARTCHAR C214e
ENCODING 8526
SWIDTH 400 0
DWIDTH 24 0
BBX 24 24 0 -2
BITMAP
000063
0000E6
0001CE
00039C
000738
000E70
001CE0
0039C0
007380
00E700
01CE00
039C00
039C00
01CE00
00E700
007380
0039C0
001CE0
000E70
000738
00039C
0001CE
0000E6
000063
ENDCHAR
STARTCHAR C214f
ENCODING 8527
SWIDTH 400 0
DWIDTH 24 0
BBX 24 24 0 -2
BITMAP
C60000
670000
738000
39C000
1CE000
0E7000
073800
039C00
01CE00
00E700
007380
0039C0
0039C0
007380
00E700
01CE00
039C00
073800
0E7000
1CE000
39C000
738000
670000
C60000
ENDCHAR
STARTCHAR C2150
ENCODING 8528
SWIDTH 400 0
DWIDTH 24 0
BBX 24 24 0 -2
BITMAP
000000
000000
000000
000000
000000
000000
001800
003C00
007E00
00E700
01C380
0399C0
073CE0
0E7E70
1CE738
39C39C
7381CE
E700E7
CE0073
1C0038
38001C
70000E
E00007
800001
ENDCHAR
STARTCHAR C2151
ENCODING 8529
SWIDTH 400 0
DWIDTH 24 0
BBX 24 24 0 -2
BITMAP
800001
E00007
70000E
38001C
1C0038
CE0073
E700E7
7381CE
39C39C
1CE738
0E7E70
073CE0
0399C0
01C380
00E700
007E00
003C00
001800
000000
000000
000000
000000
000000
000000
ENDCHAR
STARTCHAR C2152
ENCODING 8530
SWIDTH 400 0
DWIDTH 24 0
BBX 24 24 0 -2
BITMAP
000003
000006
00000E
00001C
000038
000070
0000E0
0001C0
000380
000700
000E00
001C00
001C00
000E00
000700
000380
0001C0
0000E0
000070
000038
00001C
00000E
000006
000003
ENDCHAR
STARTCHAR C2153
ENCODING 8531
SWIDTH 400 0
DWIDTH 24 0
BBX 24 24 0 -2
BITMAP
C00000
600000
700000
380000
1C0000
0E0000
070000
038000
01C000
00E000
007000
003800
003800
007000
00E000
01C000
038000
070000
0E0000
1C0000
380000
700000
600000
C00000
ENDCHAR
STARTCHAR C2154
ENCODING 8532
SWIDTH 400 0
DWIDTH 24 0
BBX 24 24 0 -2
BITMAP
000000
000000
000000
000000
000000
000000
000000
000000
000000
000000
000000
001800
003C00
007E00
00E700
01C380
0381C0
0700E0
0E0070
1C0038
38001C
70000E
E00007
800001
ENDCHAR
STARTCHAR C2155
ENCODING 8533
SWIDTH 400 0
DWIDTH 24 0
BBX 24 24 0 -2
BITMAP
800001
E00007
70000E
38001C
1C0038
0E0070
0700E0
0381C0
01C380
00E700
007E00
003C00
001800
000000
000000
000000
000000
000000
000000
000000
000000
000000
000000
000000
ENDCHAR
STARTCHAR C2156
ENCODING 8534
SWIDTH 400 0
DWIDTH 24 0
BBX 24 24 0 -2
BITMAP
0003FF
0003FE
000300
000300
000300
000300
000300
000300
000300
000300
000300
000300
000300
000300
000300
000300
000300
000300
000300
000300
000000
000000
000000
000000
ENDCHAR
STARTCHAR C2157
ENCODING 8535
SWIDTH 400 0
DWIDTH 24 0
BBX 24 24 0 -2
BITMAP
000000
000000
000000
000000
00C000
00C000
00C000
00C000
00C000
00C000
00C000
00C000
00C000
00C000
00C000
00C000
00C000
00C000
00C000
00C000
00C000
00C000
7FC000
FFC000
ENDCHAR
STARTCHAR C2158
ENCODING 8536
SWIDTH 400 0
DWIDTH 24 0
BBX 24 24 0 -2
BITMAP
000000
000000
000000
000000
000000
000000
000000
000000
000000
000000
000000
000000
000000
000000
0FFFFF
0FFFFF
000003
000003
000003
000003
000003
000003
000003
000001
ENDCHAR
STARTCHAR C2159
ENCODING 8537
SWIDTH 400 0
DWIDTH 24 0
BBX 24 24 0 -2
BITMAP
800000
C00000
C00000
C00000
C00000
C00000
C00000
C00000
FFFFF0
FFFFF0
000000
000000
000000
000000
000000
000000
000000
000000
000000
000000
000000
000000
000000
000000
ENDCHAR
STARTCHAR C215a
ENCODING 8538
SWIDTH 400 0
DWIDTH 24 0
BBX 24 24 0 -2
BITMAP
000FFE
000C06
000C06
000DFE
000D80
000D80
000D80
000D80
000D80
000D80
000D80
000D80
000D80
000D80
000D80
000D80
000D80
000F80
000780
000000
000000
000000
000000
000000
ENDCHAR
STARTCHAR C215b
ENCODING 8539
SWIDTH 400 0
DWIDTH 24 0
BBX 24 24 0 -2
BITMAP
000000
000000
000000
000000
000000
01E000
01F000
01B000
01B000
01B000
01B000
01B000
01B000
01B000
01B000
01B000
01B000
01B000
01B000
01B000
7FB000
603000
603000
7FF000
ENDCHAR
STARTCHAR C215c
ENCODING 8540
SWIDTH 400 0
DWIDTH 24 0
BBX 24 24 0 -2
BITMAP
000000
000000
000000
000000
000000
000000
000000
000000
000000
000000
000000
000000
03FFFF
07FFFF
060001
07FFF9
07FFF9
000009
000009
000009
000009
00000F
00000F
000000
ENDCHAR
STARTCHAR C215d
ENCODING 8541
SWIDTH 400 0
DWIDTH 24 0
BBX 24 24 0 -2
BITMAP
000000
F00000
F00000
900000
900000
900000
900000
9FFFE0
9FFFE0
800060
FFFFE0
FFFFC0
000000
000000
000000
000000
000000
000000
000000
000000
000000
000000
000000
000000
ENDCHAR
STARTCHAR C215e
ENCODING 8542
SWIDTH 400 0
DWIDTH 24 0
BBX 24 24 0 -2
BITMAP
000000
000000
000002
000004
00000C
000018
000030
000060
000060
000060
000060
000060
000060
000060
000060
000060
000060
000030
000018
00000C
000004
000002
000000
000000
ENDCHAR
STARTCHAR C215f
ENCODING 8543
SWIDTH 400 0
DWIDTH 24 0
BBX 24 24 0 -2
BITMAP
000000
000000
400000
600000
300000
180000
1C0000
0C0000
0C0000
060000
060000
060000
060000
060000
060000
0C0000
0C0000
1C0000
180000
300000
600000
400000
000000
000000
ENDCHAR
STARTCHAR C2160
ENCODING 8544
SWIDTH 400 0
DWIDTH 24 0
BBX 24 24 0 -2
BITMAP
000000
000000
000002
000006
00000C
000018
000018
000018
000018
000018
000010
000030
000030
000010
000018
000018
000018
000018
000018
00000C
000006
000002
000000
000000
ENDCHAR
STARTCHAR C2161
ENCODING 8545
SWIDTH 400 0
DWIDTH 24 0
BBX 24 24 0 -2
BITMAP
000000
000000
400000
600000
300000
180000
180000
180000
180000
180000
080000
0C0000
0C0000
180000
180000
180000
180000
180000
180000
300000
600000
400000
000000
000000
ENDCHAR
STARTCHAR C2162
ENCODING 8546
SWIDTH 400 0
DWIDTH 24 0
BBX 24 24 0 -2
BITMAP
000000
000000
000002
00000E
000018
000030
000030
000030
000030
000030
000030
000030
000030
000030
000030
000030
000030
000030
000030
000018
00000E
000002
000000
000000
ENDCHAR
STARTCHAR C2163
ENCODING 8547
SWIDTH 400 0
DWIDTH 24 0
BBX 24 24 0 -2
BITMAP
000000
000000
400000
700000
180000
0C0000
0C0000
0C0000
0C0000
0C0000
0C0000
0C0000
0C0000
0C0000
0C0000
0C0000
0C0000
0C0000
0C0000
180000
700000
400000
000000
000000
ENDCHAR
STARTCHAR C2164
ENCODING 8548
SWIDTH 400 0
DWIDTH 24 0
BBX 24 24 0 -2
BITMAP
000000
000030
0000C0
000180
000180
0001E0
0001E0
0000C0
000000
000000
000000
000000
000000
000000
000000
000000
000000
000000
000000
000000
000000
000000
000000
000000
ENDCHAR
STARTCHAR C2165
ENCODING 8549
SWIDTH 400 0
DWIDTH 24 0
BBX 24 24 0 -2
BITMAP
000000
030000
078000
078000
018000
018000
030000
0C0000
000000
000000
000000
000000
000000
000000
000000
000000
000000
000000
000000
000000
000000
000000
000000
000000
ENDCHAR
STARTCHAR C2166
ENCODING 8550
SWIDTH 400 0
DWIDTH 24 0
BBX 24 24 0 -2
BITMAP
000000
00030C
000618
000C30
001C70
001F7C
001F7C
000E38
000000
000000
000000
000000
000000
000000
000000
000000
000000
000000
000000
000000
000000
000000
000000
000000
ENDCHAR
STARTCHAR C2167
ENCODING 8551
SWIDTH 400 0
DWIDTH 24 0
BBX 24 24 0 -2
BITMAP
000000
1C7000
3EF800
3EF800
0E3800
0C3000
186000
30C000
000000
000000
000000
000000
000000
000000
000000
000000
000000
000000
000000
000000
000000
000000
000000
000000
ENDCHAR
STARTCHAR C2168
ENCODING 8552
SWIDTH 400 0
DWIDTH 24 0
BBX 24 24 0 -2
BITMAP
000130
00019C
0000EE
00006E
000060
000000
000000
000000
000000
000000
000000
000000
000000
000000
000000
000000
000000
000000
000000
000000
000000
000000
000000
000000
ENDCHAR
STARTCHAR C2169
ENCODING 8553
SWIDTH 400 0
DWIDTH 24 0
BBX 24 24 0 -2
BITMAP
0C4000
1CC000
39C000
738000
060000
000000
000000
000000
000000
000000
000000
000000
000000
000000
000000
000000
000000
000000
000000
000000
000000
000000
000000
000000
ENDCHAR
STARTCHAR C216a
ENCODING 8554
SWIDTH 400 0
DWIDTH 24 0
BBX 24 24 0 -2
BITMAP
000070
000038
00001C
00000C
000000
000000
000000
000000
000000
000000
000000
000000
000000
000000
000000
000000
000000
000000
000000
000000
000000
000000
000000
000000
ENDCHAR
STARTCHAR C216b
ENCODING 8555
SWIDTH 400 0
DWIDTH 24 0
BBX 24 24 0 -2
BITMAP
0E0000
0E0000
1C0000
300000
000000
000000
000000
000000
000000
000000
000000
000000
000000
000000
000000
000000
000000
000000
000000
000000
000000
000000
000000
000000
ENDCHAR
STARTCHAR C216c
ENCODING 8556
SWIDTH 400 0
DWIDTH 24 0
BBX 24 24 0 -2
BITMAP
000000
010080
0381C0
0381C0
0381C0
0381FC
03FFFC
3FFFFC
3FFFC0
3F81C0
0381C0
0381C0
0381C0
0381FC
03FFFC
3FFFFC
3FF1C0
3F81C0
0381C0
0381C0
0381C0
010080
000000
000000
ENDCHAR
STARTCHAR C216d
ENCODING 8557
SWIDTH 400 0
DWIDTH 24 0
BBX 24 24 0 -2
BITMAP
000000
007800
00FC00
01C600
018300
038300
038700
038600
019C00
01F800
00F1F0
03E0E0
077040
0670C0
0E38C0
0E3D80
0E1F08
0E0F18
070F98
079FF0
03FDF0
00F0C0
000000
000000
ENDCHAR
STARTCHAR C216e
ENCODING 8558
SWIDTH 400 0
DWIDTH 24 0
BBX 24 24 0 -2
BITMAP
000000
000000
000000
000000
000800
000800
200800
10080C
060830
0188C0
004B00
7FFFFE
007E00
008980
060860
180818
200806
000800
000800
000800
000000
000000
000000
000000
ENDCHAR
STARTCHAR C216f
ENCODING 8559
SWIDTH 400 0
DWIDTH 24 0
BBX 24 24 0 -2
BITMAP
000000
10000C
381C1C
1C3E3C
0E3C78
071CF0
0381E0
01C3C0
00E780
0E7F30
0F3E78
1F3C78
0E7E70
00FF00
01E780
03C3C0
0799E0
0F3CF0
1E3E78
3C1C3C
38081C
30000C
000000
000000
ENDCHAR
STARTCHAR C2170
ENCODING 8560
SWIDTH 400 0
DWIDTH 24 0
BBX 24 24 0 -2
BITMAP
000000
007E00
01FF80
01C1C0
0381C0
03C3C0
01E380
007800
00FF00
018780
0381C0
0380C0
01C0C0
00F180
003F00
000F80
0083C0
01C1C0
01C1C0
01C3C0
00FF80
003E00
000000
000000
ENDCHAR
STARTCHAR C2171
ENCODING 8561
SWIDTH 400 0
DWIDTH 24 0
BBX 24 24 0 -2
BITMAP
000000
000000
000000
000000
000000
000000
0070C0
0079E0
0079E0
0071E0
0071C0
00F1C0
00E1C0
00C380
00C380
01C300
018600
030C00
060800
000000
000000
000000
000000
000000
ENDCHAR
STARTCHAR C2172
ENCODING 8562
SWIDTH 400 0
DWIDTH 24 0
BBX 24 24 0 -2
BITMAP
000000
007E00
03FFC0
0700E0
0C0030
180018
180018
30000C
30000C
30000C
30000C
30000C
30000C
30000C
30000C
30000C
180018
180018
0E0030
0780E0
01FFC0
007E00
000000
000000
ENDCHAR
STARTCHAR C2173
ENCODING 8563
SWIDTH 400 0
DWIDTH 24 0
BBX 24 24 0 -2
BITMAP
000000
007E00
03FFC0
07FFE0
0FFFF0
1FFFF8
1FFFF8
3FFFFC
3FFFFC
3FFFFC
3FFFFC
3FFFFC
3FFFFC
3FFFFC
3FFFFC
3FFFFC
1FFFF8
1FFFF8
0FFFF0
07FFE0
01FFC0
007E00
000000
000000
ENDCHAR
STARTCHAR C2174
ENCODING 8564
SWIDTH 400 0
DWIDTH 24 0
BBX 24 24 0 -2
BITMAP
000000
001800
001800
003C00
003C00
006600
006600
00C300
00C300
018180
018180
0300C0
0300C0
060060
060060
0C0030
0C0030
180018
180018
38001C
3FFFFC
3FFFFC
000000
000000
ENDCHAR
STARTCHAR C2175
ENCODING 8565
SWIDTH 400 0
DWIDTH 24 0
BBX 24 24 0 -2
BITMAP
000000
001800
001800
003C00
003C00
007E00
007E00
00FF00
00FF00
01FF80
01FF80
03FFC0
03FFC0
07FFE0
07FFE0
0FFFF0
0FFFF0
1FFFF8
1FFFF8
3FFFFC
3FFFFC
3FFFFC
000000
000000
ENDCHAR
STARTCHAR C2176
ENCODING 8566
SWIDTH 400 0
DWIDTH 24 0
BBX 24 24 0 -2
BITMAP
000000
007E00
03FFC0
0700E0
0C0030
180018
187E18
30C30C
31818C
3300CC
3300CC
3300CC
3300CC
3300CC
3381CC
31C38C
187E18
181818
0E0030
0780E0
01FFC0
007E00
000000
000000
ENDCHAR
STARTCHAR C2177
ENCODING 8567
SWIDTH 400 0
DWIDTH 24 0
BBX 24 24 0 -2
BITMAP
000000
001800
001800
003C00
003C00
006600
006600
004200
00C300
7FC3FE
30000C
1C0038
060060
0300C0
018180
018180
0300C0
0718E0
066660
06C360
0D81B0
1E0078
0C0030
000000
ENDCHAR
STARTCHAR C2178
ENCODING 8568
SWIDTH 400 0
DWIDTH 24 0
BBX 24 24 0 -2
BITMAP
000000
001800
001800
003C00
003C00
007E00
007E00
007E00
00FF00
7FFFFE
3FFFFC
1FFFF8
0FFFF0
07FFE0
01FF80
03FFC0
03FFC0
07FFE0
0FE7F0
0FC3F0
1F81F8
1E0078
180018
000000
ENDCHAR
STARTCHAR C2179
ENCODING 8569
SWIDTH 400 0
DWIDTH 24 0
BBX 24 24 0 -2
BITMAP
000000
001800
003C00
007E00
00E700
01C380
0381C0
0700E0
0E0070
1C0038
38001C
70000E
70000E
38001C
1C0038
0E0070
0700E0
0381C0
01C380
00E700
007E00
003C00
001800
000000
ENDCHAR
STARTCHAR C217a
ENCODING 8570
SWIDTH 400 0
DWIDTH 24 0
BBX 24 24 0 -2
BITMAP
000000
001800
003C00
007E00
00FF00
01FF80
03FFC0
07FFE0
0FFFF0
1FFFF8
3FFFFC
7FFFFE
7FFFFE
3FFFFC
1FFFF8
0FFFF0
07FFE0
03FFC0
01FF80
00FF00
007E00
003C00
001800
000000
ENDCHAR
STARTCHAR C217b
ENCODING 8571
SWIDTH 400 0
DWIDTH 24 0
BBX 24 24 0 -2
BITMAP
000000
3FFFFC
3FFFFC
30000C
30000C
30000C
30000C
30000C
30000C
30000C
30000C
30000C
30000C
30000C
30000C
30000C
30000C
30000C
30000C
30000C
3FFFFC
3FFFFC
000000
000000
ENDCHAR
STARTCHAR C217c
ENCODING 8572
SWIDTH 400 0
DWIDTH 24 0
BBX 24 24 0 -2
BITMAP
000000
3FFFFC
3FFFFC
3FFFFC
3FFFFC
3FFFFC
3FFFFC
3FFFFC
3FFFFC
3FFFFC
3FFFFC
3FFFFC
3FFFFC
3FFFFC
3FFFFC
3FFFFC
3FFFFC
3FFFFC
3FFFFC
3FFFFC
3FFFFC
3FFFFC
000000
000000
ENDCHAR
STARTCHAR C217d
ENCODING 8573
SWIDTH 400 0
DWIDTH 24 0
BBX 24 24 0 -2
BITMAP
000000
3FFFFC
3FFFFC
30000C
180018
180018
0C0030
040020
060060
060060
0300C0
0300C0
018180
008100
00C300
00C300
006600
006600
003C00
001800
001800
001800
000000
000000
ENDCHAR
STARTCHAR C217e
ENCODING 8574
SWIDTH 400 0
DWIDTH 24 0
BBX 24 24 0 -2
BITMAP
000000
3FFFFC
3FFFFC
3FFFFC
1FFFF8
1FFFF8
0FFFF0
07FFE0
07FFE0
07FFE0
03FFC0
03FFC0
01FF80
00FF00
00FF00
00FF00
007E00
007E00
003C00
001800
001800
001800
000000
000000
ENDCHAR
STARTCHAR C2221
ENCODING 8737
SWIDTH 400 0
DWIDTH 24 0
BBX 24 24 0 -2
BITMAP
000000
007E00
03FFC0
0700E0
0C0070
19FFD8
181818
30180C
30180C
30980C
30D88C
30DFCC
30D80C
30D80C
30D80C
30D80C
19DC78
1FFFF8
0E0030
0780E0
01FFC0
007E00
000000
000000
ENDCHAR
STARTCHAR C2222
ENCODING 8738
SWIDTH 400 0
DWIDTH 24 0
BBX 24 24 0 -2
BITMAP
000000
000006
0F800C
18C018
304030
604060
6000C0
600180
600300
604600
30CCE0
199BF8
0F370C
00660C
00CE06
018E06
030E06
060E06
0C060C
18030C
3001F8
6000E0
000000
000000
ENDCHAR
STARTCHAR C2223
ENCODING 8739
SWIDTH 400 0
DWIDTH 24 0
BBX 24 24 0 -2
BITMAP
FFFFFF
000000
000000
000000
000000
000000
000000
000000
000000
000000
000000
000000
000000
000000
000000
000000
000000
000000
000000
000000
000000
000000
000000
000000
ENDCHAR
STARTCHAR C2224
ENCODING 8740
SWIDTH 400 0
DWIDTH 24 0
BBX 24 24 0 -2
BITMAP
FFFFFF
FFFFFF
000000
000000
000000
000000
000000
000000
000000
000000
000000
000000
000000
000000
000000
000000
000000
000000
000000
000000
000000
000000
000000
000000
ENDCHAR
STARTCHAR C2225
ENCODING 8741
SWIDTH 400 0
DWIDTH 24 0
BBX 24 24 0 -2
BITMAP
000000
000000
000000
000000
000000
000000
000000
000000
000000
000000
000000
000000
000000
000000
000000
000000
000000
000000
000000
000000
000000
000000
000000
FFFFFF
ENDCHAR
STARTCHAR C2226
ENCODING 8742
SWIDTH 400 0
DWIDTH 24 0
BBX 24 24 0 -2
BITMAP
000000
000000
000000
000000
000000
000000
000000
000000
000000
000000
000000
000000
000000
000000
000000
000000
000000
000000
000000
000000
000000
000000
FFFFFF
FFFFFF
ENDCHAR
STARTCHAR C2227
ENCODING 8743
SWIDTH 400 0
DWIDTH 24 0
BBX 24 24 0 -2
BITMAP
7E7E7E
7E7E7E
000000
000000
000000
000000
000000
000000
000000
000000
000000
000000
000000
000000
000000
000000
000000
000000
000000
000000
000000
000000
000000
000000
ENDCHAR
STARTCHAR C2228
ENCODING 8744
SWIDTH 400 0
DWIDTH 24 0
BBX 24 24 0 -2
BITMAP
7FBDFE
7FBDFE
000000
000000
000000
000000
000000
000000
000000
000000
000000
000000
000000
000000
000000
000000
000000
000000
000000
000000
000000
000000
000000
000000
ENDCHAR
STARTCHAR C2229
ENCODING 8745
SWIDTH 400 0
DWIDTH 24 0
BBX 24 24 0 -2
BITMAP
000000
000000
000000
000000
000000
000000
000000
000000
000000
000000
000000
000000
000000
000000
000000
000000
000000
000000
000000
000000
000000
000000
7E3E7E
7E7E7E
ENDCHAR
STARTCHAR C222a
ENCODING 8746
SWIDTH 400 0
DWIDTH 24 0
BBX 24 24 0 -2
BITMAP
000000
000000
000000
000000
000000
000000
000000
000000
000000
000000
000000
000000
000000
000000
000000
000000
000000
000000
000000
000000
000000
000000
7FB9FE
7FB9FE
ENDCHAR
STARTCHAR C222b
ENCODING 8747
SWIDTH 400 0
DWIDTH 24 0
BBX 24 24 0 -2
BITMAP
0F00F0
1B81B8
31C31C
60E60E
C07C07
801801
000000
000000
000000
000000
000000
000000
000000
000000
000000
000000
000000
000000
000000
000000
000000
000000
000000
000000
ENDCHAR
STARTCHAR C222c
ENCODING 8748
SWIDTH 400 0
DWIDTH 24 0
BBX 24 24 0 -2
BITMAP
0F00F0
1F81F8
39C39C
70E70E
E07E07
801801
000000
000000
000000
000000
000000
000000
000000
000000
000000
000000
000000
000000
000000
000000
000000
000000
000000
000000
ENDCHAR
STARTCHAR C222d
ENCODING 8749
SWIDTH 400 0
DWIDTH 24 0
BBX 24 24 0 -2
BITMAP
000000
004200
004200
004200
004200
004380
007F80
01FE00
01F200
004200
004200
004200
004200
004200
004F80
00FF80
01F600
00C200
004200
004200
004200
004200
000000
000000
ENDCHAR
STARTCHAR C222e
ENCODING 8750
SWIDTH 400 0
DWIDTH 24 0
BBX 24 24 0 -2
BITMAP
000000
000E00
003F00
007300
006300
006200
006600
006C00
007800
007000
007380
00F180
00F100
009900
019900
019B00
018F00
018E40
018EC0
00CF80
00FF80
007300
000000
000000
ENDCHAR
STARTCHAR C222f
ENCODING 8751
SWIDTH 400 0
DWIDTH 24 0
BBX 24 24 0 -2
BITMAP
000000
000000
000000
000000
000800
000800
000800
008880
004900
002A00
001C00
000800
001C00
002A00
004900
008880
010800
000800
000800
000000
000000
000000
000000
000000
ENDCHAR
STARTCHAR C2230
ENCODING 8752
SWIDTH 400 0
DWIDTH 24 0
BBX 24 24 0 -2
BITMAP
000000
000000
001800
001800
001800
001800
001800
001800
001800
001800
3FFFF8
3FFFF8
001800
001800
001800
001800
001800
001800
001800
001800
001000
000000
000000
000000
ENDCHAR
STARTCHAR C2231
ENCODING 8753
SWIDTH 400 0
DWIDTH 24 0
BBX 24 24 0 -2
BITMAP
000000
000000
000000
000000
000000
000000
000000
000000
000000
000000
3FFFF8
3FFFF8
000000
000000
000000
000000
000000
000000
000000
000000
000000
000000
000000
000000
ENDCHAR
STARTCHAR C2232
ENCODING 8754
SWIDTH 400 0
DWIDTH 24 0
BBX 24 24 0 -2
BITMAP
000000
000000
080010
1C0038
0E0078
0700F0
0381E0
01C3C0
00E780
007F00
003E00
003C00
007E00
00FF00
01E780
03C3C0
0781E0
0F00F0
1E0078
1C0038
000000
000000
000000
000000
ENDCHAR
STARTCHAR C2233
ENCODING 8755
SWIDTH 400 0
DWIDTH 24 0
BBX 24 24 0 -2
BITMAP
000000
000000
000000
003800
003C00
007C00
003800
000000
000000
000000
3FFFF8
3FFFF8
000000
000000
000000
003800
003C00
007C00
003800
000000
000000
000000
000000
000000
ENDCHAR
STARTCHAR C2234
ENCODING 8756
SWIDTH 400 0
DWIDTH 24 0
BBX 24 24 0 -2
BITMAP
000000
000000
001800
001800
001800
001800
001800
001800
3FFFF8
3FFFF8
003800
001800
001800
001800
001800
001800
001800
000000
1FFFF8
3FFFF8
1FFFF8
000000
000000
000000
ENDCHAR
STARTCHAR C2235
ENCODING 8757
SWIDTH 400 0
DWIDTH 24 0
BBX 24 24 0 -2
BITMAP
001FFE
001800
001000
003000
003000
002000
006000
004000
004000
00C000
00C000
308000
398000
198000
190000
1F0000
1E0000
0E0000
0E0000
0E0000
040000
000000
000000
000000
ENDCHAR
STARTCHAR C2236
ENCODING 8758
SWIDTH 400 0
DWIDTH 24 0
BBX 24 24 0 -2
BITMAP
000000
000000
000008
000038
0000F0
0003C0
000F00
003C00
00F000
03C000
0F0000
1E0000
0F8000
03C000
00F800
003E00
000F00
0003E0
0000F8
000038
000008
000000
000000
000000
ENDCHAR
STARTCHAR C2237
ENCODING 8759
SWIDTH 400 0
DWIDTH 24 0
BBX 24 24 0 -2
BITMAP
000000
000000
100000
1C0000
0F0000
03C000
00F000
003C00
000F00
0003C0
0000F0
000078
0001F0
0003C0
001F00
007C00
00F000
07C000
1F0000
1C0000
100000
000000
000000
000000
ENDCHAR
STARTCHAR C2238
ENCODING 8760
SWIDTH 400 0
DWIDTH 24 0
BBX 24 24 0 -2
BITMAP
000000
000000
000000
000000
000000
000000
1FFFF8
1FFFF8
1FFFF8
000000
000000
000000
000000
000000
1FFFF8
1FFFF8
000000
000000
000000
000000
000000
000000
000000
000000
ENDCHAR
STARTCHAR C2239
ENCODING 8761
SWIDTH 400 0
DWIDTH 24 0
BBX 24 24 0 -2
BITMAP
000000
000000
000018
0003F8
000FE0
00FF00
07F000
1F0000
1F0000
07F000
00FC00
001FE0
0003F8
000038
000000
1FFFF8
1FFFF8
000000
1FFFF8
1FFFF8
1FFFF8
000000
000000
000000
ENDCHAR
STARTCHAR C223a
ENCODING 8762
SWIDTH 400 0
DWIDTH 24 0
BBX 24 24 0 -2
BITMAP
000000
000000
180000
1FC000
07F000
00FF00
000FE0
0000F8
0000F8
000FE0
003F00
07F800
1FC000
1C0000
000000
1FFFF8
1FFFF8
000000
1FFFF8
1FFFF8
1FFFF8
000000
000000
000000
ENDCHAR
STARTCHAR C223b
ENCODING 8763
SWIDTH 400 0
DWIDTH 24 0
BBX 24 24 0 -2
BITMAP
000000
000000
000180
000180
000300
000300
000600
1FFFF8
1FFFF8
000C00
001800
001800
003800
1FFFF8
1FFFF8
006000
00C000
00C000
01C000
018000
000000
000000
000000
000000
ENDCHAR
STARTCHAR C223c
ENCODING 8764
SWIDTH 400 0
DWIDTH 24 0
BBX 24 24 0 -2
BITMAP
000000
000000
000000
000000
000000
0780E0
1FE3F8
38E61C
307C0C
601806
601806
601806
601806
603C06
303E0E
3FE7FC
1FC3F8
0701E0
000000
000000
000000
000000
000000
000000
ENDCHAR
STARTCHAR C223d
ENCODING 8765
SWIDTH 400 0
DWIDTH 24 0
BBX 24 24 0 -2
BITMAP
000000
000000
060000
0F0000
0F8000
0F0000
060000
000000
3FFFFC
3FFFFC
000000
000000
3FFFFC
3FFFFC
3FFFFC
000000
000060
0000F0
0001F0
0000E0
000040
000000
000000
000000
ENDCHAR
STARTCHAR C223e
ENCODING 8766
SWIDTH 400 0
DWIDTH 24 0
BBX 24 24 0 -2
BITMAP
000000
000000
000000
000000
000000
1FFFF8
1FFFF8
000000
000000
000000
000000
1FFFF8
1FFFF8
000000
000000
000000
000000
1FFFF8
1FFFF8
000000
000000
000000
000000
000000
ENDCHAR
STARTCHAR C223f
ENCODING 8767
SWIDTH 400 0
DWIDTH 24 0
BBX 24 24 0 -2
BITMAP
000000
000000
000000
000000
001800
001800
001800
001800
001800
001800
001800
01FF80
001800
001800
001800
001800
001800
001800
001800
000000
000000
000000
000000
000000
ENDCHAR
STARTCHAR C2240
ENCODING 8768
SWIDTH 400 0
DWIDTH 24 0
BBX 24 24 0 -2
BITMAP
000000
000000
000000
000000
000000
000000
000000
000000
000000
000000
000000
03FF00
000000
000000
000000
000000
000000
000000
000000
000000
000000
000000
000000
000000
ENDCHAR
STARTCHAR C2241
ENCODING 8769
SWIDTH 400 0
DWIDTH 24 0
BBX 24 24 0 -2
BITMAP
000000
000000
000000
000000
000000
000000
0001C0
000380
001E00
007800
00E000
03C000
00F000
003800
000F00
000380
000080
000000
000000
000000
000000
000000
000000
000000
ENDCHAR
STARTCHAR C2242
ENCODING 8770
SWIDTH 400 0
DWIDTH 24 0
BBX 24 24 0 -2
BITMAP
000000
000000
000000
000000
000000
000000
038000
01C000
007800
001E00
000700
0003C0
000F00
001C00
00F000
01C000
010000
000000
000000
000000
000000
000000
000000
000000
ENDCHAR
STARTCHAR C2243
ENCODING 8771
SWIDTH 400 0
DWIDTH 24 0
BBX 24 24 0 -2
BITMAP
000000
000000
000000
000000
000000
000000
000000
000000
01FF00
01FF00
000000
000000
000000
01FF00
01FF00
000000
000000
000000
000000
000000
000000
000000
000000
000000
ENDCHAR
STARTCHAR C2244
ENCODING 8772
SWIDTH 400 0
DWIDTH 24 0
BBX 24 24 0 -2
BITMAP
000000
000000
000000
000000
000000
000000
000000
000000
000000
07F006
0FF80C
1FFC38
381FF0
300FE0
000380
000000
000000
000000
000000
000000
000000
000000
000000
000000
ENDCHAR
STARTCHAR C2245
ENCODING 8773
SWIDTH 400 0
DWIDTH 24 0
BBX 24 24 0 -2
BITMAP
000000
000000
00FF00
01FF80
0381C0
0700E0
060060
0E0070
0C0030
1C0038
1C0038
1C0038
1C0038
1C0038
1C0038
1C0038
1C0038
1C0038
1C0038
1C0038
080010
000000
000000
000000
ENDCHAR
STARTCHAR C2246
ENCODING 8774
SWIDTH 400 0
DWIDTH 24 0
BBX 24 24 0 -2
BITMAP
000000
000000
080010
1C0038
1C0038
1C0038
1C0038
1C0038
1C0038
1C0038
1C0038
1C0038
1C0038
1C0038
0C0030
0E0070
060060
0700E0
0381C0
01FF80
007E00
000000
000000
000000
ENDCHAR
STARTCHAR C2247
ENCODING 8775
SWIDTH 400 0
DWIDTH 24 0
BBX 24 24 0 -2
BITMAP
000000
000000
001800
001800
001800
001800
001800
001800
001800
001800
001800
001800
001800
001800
001800
001800
001800
001800
1FFFF8
1FFFF8
1FFFF8
000000
000000
000000
ENDCHAR
STARTCHAR C2248
ENCODING 8776
SWIDTH 400 0
DWIDTH 24 0
BBX 24 24 0 -2
BITMAP
000000
000000
000008
000018
000038
000070
0000E0
0001C0
000380
000700
000E00
001C00
003800
007000
00E000
01C000
038000
070000
0FFFF8
1FFFF8
1FFFF8
000000
000000
000000
ENDCHAR
STARTCHAR C2249
ENCODING 8777
SWIDTH 400 0
DWIDTH 24 0
BBX 24 24 0 -2
BITMAP
000000
000000
180000
180000
180000
180000
180000
180000
180000
180000
180000
180000
180000
180000
180000
180000
180000
180000
1FFFF8
1FFFF8
1FFFF8
000000
000000
000000
ENDCHAR
STARTCHAR C224a
ENCODING 8778
SWIDTH 400 0
DWIDTH 24 0
BBX 24 24 0 -2
BITMAP
000000
000000
000008
000018
000038
000078
0000F8
0001D8
000398
000718
000E18
001C18
003818
007018
00E018
01C018
038018
070018
0FFFF8
1FFFF8
1FFFF8
000000
000000
000000
ENDCHAR
STARTCHAR C224b
ENCODING 8779
SWIDTH 400 0
DWIDTH 24 0
BBX 24 24 0 -2
BITMAP
000000
300000
700000
700000
300000
300000
300000
300000
31E0F6
33319F
363318
361B0C
361B0C
361B18
361998
3619F0
361B80
3633F0
7733FC
7BE70E
708E06
000606
00031C
0001F0
ENDCHAR
STARTCHAR C224c
ENCODING 8780
SWIDTH 400 0
DWIDTH 24 0
BBX 24 24 0 -2
BITMAP
000000
060000
0E0000
1E0000
060000
060000
060000
060000
063BF0
061F38
061C18
061818
061818
061818
061818
061818
061818
061818
0E1C18
1F3C3C
1F1C3C
000000
000000
000000
ENDCHAR
STARTCHAR C224d
ENCODING 8781
SWIDTH 400 0
DWIDTH 24 0
BBX 24 24 0 -2
BITMAP
0007C0
000EE0
001C60
0018E0
001860
001800
001800
001800
001800
001800
001800
001800
001800
001800
001800
001800
000C00
000C00
000C00
000C00
071C00
071800
03B800
01F000
ENDCHAR
STARTCHAR C224e
ENCODING 8782
SWIDTH 400 0
DWIDTH 24 0
BBX 24 24 0 -2
BITMAP
0007C0
000EE0
001C60
0018E0
001860
001800
007E00
00FB80
0198C0
031860
061860
061860
061860
031860
0318C0
01D980
007F00
001C00
000C00
000C00
071C00
071800
03B800
01F000
ENDCHAR
STARTCHAR C224f
ENCODING 8783
SWIDTH 400 0
DWIDTH 24 0
BBX 24 24 0 -2
BITMAP
000000
000000
000000
060030
1F0078
1F80FC
1F80FC
1F00FC
0F0078
000000
000000
000000
000000
000000
003C00
007E00
007E00
007E00
003C00
000000
000000
000000
000000
000000
ENDCHAR
STARTCHAR C2250
ENCODING 8784
SWIDTH 400 0
DWIDTH 24 0
BBX 24 24 0 -2
BITMAP
000000
000000
000000
001800
003E00
007E00
007E00
003E00
003C00
000000
000000
000000
000000
000000
0F0078
1F80FC
1F80FC
1F80FC
0F0078
000000
000000
000000
000000
000000
ENDCHAR
STARTCHAR C2251
ENCODING 8785
SWIDTH 400 0
DWIDTH 24 0
BBX 24 24 0 -2
BITMAP
000000
000000
003800
007E00
00C300
018300
018100
008300
00C600
007C00
001800
001800
001800
0FFFF0
0FFFE0
001800
001800
001800
001800
001800
001000
000000
000000
000000
ENDCHAR
STARTCHAR C2252
ENCODING 8786
SWIDTH 400 0
DWIDTH 24 0
BBX 24 24 0 -2
BITMAP
000000
000000
001000
003800
007C00
00FE00
01DF00
039B80
0719C0
061860
001800
001800
003800
007E00
00C700
018300
018100
018300
00C700
007E00
001800
000000
000000
000000
ENDCHAR
STARTCHAR C2253
ENCODING 8787
SWIDTH 400 0
DWIDTH 24 0
BBX 24 24 0 -2
BITMAP
000000
000000
01FF80
039BC0
061860
0C1830
181818
30180C
30180C
30180C
30380C
3FFFFC
3FFFFC
30180C
30180C
30180C
181818
181818
0E1830
0798E0
01FFC0
007E00
000000
000000
ENDCHAR
STARTCHAR C2254
ENCODING 8788
SWIDTH 400 0
DWIDTH 24 0
BBX 24 24 0 -2
BITMAP
000000
000000
01FF80
0383C0
060060
0C0030
180018
30000C
30000C
30180C
303C0C
307C0C
307C0C
30380C
30000C
30000C
180018
180018
0E0030
0780E0
01FFC0
007E00
000000
000000
ENDCHAR
STARTCHAR C2255
ENCODING 8789
SWIDTH 400 0
DWIDTH 24 0
BBX 24 24 0 -2
BITMAP
000000
001800
001800
003C00
003C00
007E00
007E00
00FF00
00DB00
019980
011880
001800
001800
001800
001800
001800
001800
001800
001800
001800
001800
001800
001800
001800
ENDCHAR
STARTCHAR C2256
ENCODING 8790
SWIDTH 400 0
DWIDTH 24 0
BBX 24 24 0 -2
BITMAP
001800
001800
001800
001800
001800
001800
001800
001800
001800
001800
001800
001800
001800
011880
019980
00DB00
00FF00
007E00
007E00
003C00
003C00
001800
001800
000000
ENDCHAR
STARTCHAR C2257
ENCODING 8791
SWIDTH 400 0
DWIDTH 24 0
BBX 24 24 0 -2
BITMAP
000000
000000
000000
000000
000000
000600
000380
0001E0
0000F8
FFFFFE
FFFFFE
FFFFFC
0001F0
0003C0
000700
000400
000000
000000
000000
000000
000000
000000
000000
000000
ENDCHAR
STARTCHAR C2258
ENCODING 8792
SWIDTH 400 0
DWIDTH 24 0
BBX 24 24 0 -2
BITMAP
000000
000000
000000
000000
000000
006000
01C000
078000
1F0000
7FFFFF
7FFFFF
3FFFFF
0F8000
03C000
00E000
002000
000000
000000
000000
000000
000000
000000
000000
000000
ENDCHAR
STARTCHAR C2259
ENCODING 8793
SWIDTH 400 0
DWIDTH 24 0
BBX 24 24 0 -2
BITMAP
000000
300000
3F8000
3FFE00
3FFE00
1F0000
1F8000
1FC000
1DE000
1CF000
1C7800
0C3C00
0C1E00
0C0F00
000780
0003C0
0001E0
0000F0
000078
00003C
00001E
00000F
000007
000003
ENDCHAR
STARTCHAR C225a
ENCODING 8794
SWIDTH 400 0
DWIDTH 24 0
BBX 24 24 0 -2
BITMAP
000000
00000C
0001FC
007FFC
007FFC
0000F8
0001F8
0003F8
0007B8
000F38
001E30
003C30
007830
00F010
01E000
03C000
078000
0F0000
1E0000
3C0000
780000
F00000
E00000
C00000
ENDCHAR
STARTCHAR C225b
ENCODING 8795
SWIDTH 400 0
DWIDTH 24 0
BBX 24 24 0 -2
BITMAP
000007
00000F
00001E
00003C
000078
0000F0
0001E0
0003C0
080780
0C0F00
0C1E00
0C3C00
1C7800
1CF000
1DE000
1FC000
1F8000
3F0000
3FFE00
3FF000
3F8000
300000
000000
000000
ENDCHAR
STARTCHAR C225c
ENCODING 8796
SWIDTH 400 0
DWIDTH 24 0
BBX 24 24 0 -2
BITMAP
E00000
F00000
780000
3C0000
1E0000
0F0000
078000
03C000
01E010
00F030
007830
003C30
001E38
000F38
0007B8
0003F8
0001F8
0000FC
007FFC
000FFC
0001FC
00000C
000000
000000
ENDCHAR
STARTCHAR C225d
ENCODING 8797
SWIDTH 400 0
DWIDTH 24 0
BBX 24 24 0 -2
BITMAP
0381C0
0381C0
0381C0
0381C0
0381C0
0381C0
0381C0
0381C0
0381C0
0381C0
0381C0
0381C0
0381C0
0381C0
0381C0
0381C0
0381C0
0381C0
0381C0
0381C0
0381C0
0381C0
0381C0
0381C0
ENDCHAR
STARTCHAR C225e
ENCODING 8798
SWIDTH 400 0
DWIDTH 24 0
BBX 24 24 0 -2
BITMAP
001800
001800
001800
001800
001800
001800
001800
001800
001800
001800
001800
001800
001800
001800
001800
001800
001800
001800
001800
001800
001800
001800
001800
001800
ENDCHAR
STARTCHAR C225f
ENCODING 8799
SWIDTH 400 0
DWIDTH 24 0
BBX 24 24 0 -2
BITMAP
000007
00000E
00001C
000038
000070
0000E0
0001C0
000380
000700
000E00
001C00
003800
007000
00E000
01C000
038000
070000
0E0000
1C0000
380000
700000
E00000
C00000
800000
ENDCHAR
STARTCHAR C2260
ENCODING 8800
SWIDTH 400 0
DWIDTH 24 0
BBX 24 24 0 -2
BITMAP
E00000
700000
380000
1C0000
0E0000
070000
038000
01C000
00E000
007000
003800
001C00
000E00
000700
000380
0001C0
0000E0
000070
000038
00001C
00000E
000007
000003
000001
ENDCHAR
STARTCHAR C2261
ENCODING 8801
SWIDTH 400 0
DWIDTH 24 0
BBX 24 24 0 -2
BITMAP
000000
000000
000000
0000C0
0000C0
000180
000180
000300
000600
000E00
000C00
001800
003800
003000
006000
006000
00C000
018000
038000
030000
060000
060000
000000
000000
ENDCHAR
STARTCHAR C2262
ENCODING 8802
SWIDTH 400 0
DWIDTH 24 0
BBX 24 24 0 -2
BITMAP
000000
000000
000000
060000
060000
030000
018000
00C000
00C000
006000
007000
003000
001800
001800
000C00
000600
000300
000300
000180
0001C0
0000C0
000040
000000
000000
ENDCHAR
STARTCHAR C2263
ENCODING 8803
SWIDTH 400 0
DWIDTH 24 0
BBX 24 24 0 -2
BITMAP
000000
001800
001800
007C00
03FF80
0F1BF0
1C1838
38181C
381808
1F1800
0FFC00
03FFE0
003FF0
001878
18181C
3C181C
181838
0F19F0
07FF80
003C00
001800
001800
000000
000000
ENDCHAR
STARTCHAR C2264
ENCODING 8804
SWIDTH 400 0
DWIDTH 24 0
BBX 24 24 0 -2
BITMAP
000000
0FE0F8
07C0F8
01C060
00C060
00E0C0
00E0C0
0070C0
0FFFF8
0FFFF8
003B00
001B00
07FFF8
0FFFF8
000E00
000E00
000E00
000E00
000E00
000E00
007F80
007F80
000000
000000
ENDCHAR
STARTCHAR C2265
ENCODING 8805
SWIDTH 400 0
DWIDTH 24 0
BBX 24 24 0 -2
BITMAP
000000
000000
3FFFFC
3FFFFC
3FFFFC
000000
000000
000000
3FFFFC
3FFFFC
3FFFFC
001800
001800
001800
001800
001800
001800
001800
001800
001800
001800
001800
001800
001800
ENDCHAR
STARTCHAR C2266
ENCODING 8806
SWIDTH 400 0
DWIDTH 24 0
BBX 24 24 0 -2
BITMAP
000000
000300
000300
001F00
007FC0
01FFF0
038678
070630
0F0E00
0E0E00
0E0C00
1E0C00
1E0C00
0E1804
0E1808
071830
079860
03FFC0
01FF80
003000
003000
002000
000000
000000
ENDCHAR
STARTCHAR C2267
ENCODING 8807
SWIDTH 400 0
DWIDTH 24 0
BBX 24 24 0 -2
BITMAP
000000
001F00
007FC0
00E0E0
00C060
018070
038070
018060
01C000
00C000
1FFF80
1FFF00
00E000
006000
006004
00C00C
0FC008
1F8018
11F1F0
13FFE0
1F3FC0
0E0600
000000
000000
ENDCHAR
STARTCHAR C2268
ENCODING 8808
SWIDTH 400 0
DWIDTH 24 0
BBX 24 24 0 -2
BITMAP
000000
00000C
0F001C
198038
30C070
2040E0
2041C0
204380
30C700
30CE00
199C00
0F39F0
007318
00E208
01C60C
03860C
07060C
0E060C
1C0218
380338
3001E0
200000
000000
000000
ENDCHAR
STARTCHAR C2269
ENCODING 8809
SWIDTH 400 0
DWIDTH 24 0
BBX 24 24 0 -2
BITMAP
000000
007E00
01FF80
0383C0
0600E0
0C0030
1C1838
187F18
38C718
39C708
398618
3B8618
3B8E34
198E2C
198EEC
19FFD8
0CF318
0E0030
060060
03C1C0
01FF80
003C00
000000
000000
ENDCHAR
STARTCHAR C226a
ENCODING 8810
SWIDTH 400 0
DWIDTH 24 0
BBX 24 24 0 -2
BITMAP
000000
1C0000
330788
231FE8
23383C
37701C
0C600C
00C004
00C000
01C000
01C000
01C000
01C000
01C000
01C002
00C002
00C004
006004
00700C
003838
001FF0
0007C0
000000
000000
ENDCHAR
STARTCHAR C226b
ENCODING 8811
SWIDTH 400 0
DWIDTH 24 0
BBX 24 24 0 -2
BITMAP
000000
1C0000
33FFFC
23FFFE
23380E
373806
0C3802
003800
003820
003820
003820
003FE0
003860
003820
003820
003820
003800
003800
003800
003800
00FE00
00FE00
000000
000000
ENDCHAR
STARTCHAR C226c
ENCODING 8812
SWIDTH 400 0
DWIDTH 24 0
BBX 24 24 0 -2
BITMAP
000000
001800
001800
003F00
00FF80
0098C0
0199C0
0199C0
01D800
00F800
00FC00
003F00
001F80
0019C0
01D8C0
01D8C0
0199C0
01DBC0
00FF00
001C00
001800
001800
000000
000000
ENDCHAR
STARTCHAR C226d
ENCODING 8813
SWIDTH 400 0
DWIDTH 24 0
BBX 24 24 0 -2
BITMAP
000000
00C080
01E0C0
033180
033100
033300
033300
033600
033600
01EC00
000C00
001800
001B00
003780
003CC0
006CC0
006CC0
00CCC0
00CCC0
018CC0
018780
010300
000000
000000
ENDCHAR
STARTCHAR C226e
ENCODING 8814
SWIDTH 400 0
DWIDTH 24 0
BBX 24 24 0 -2
BITMAP
000000
000000
003C00
006600
00C200
01B300
017900
014D00
03CD00
03CD00
03C900
03C900
03C900
03CB00
03DE00
037E00
016480
018180
00C300
007E00
001800
000000
000000
000000
ENDCHAR
STARTCHAR C226f
ENCODING 8815
SWIDTH 400 0
DWIDTH 24 0
BBX 24 24 0 -2
BITMAP
000000
00000C
00001C
00073C
00071C
00070C
00000C
00000C
7ECF0C
3FEF0C
36630C
36630C
36630C
36630C
36630C
36630C
36630C
36630C
36630C
76E79E
26471C
000000
000000
000000
ENDCHAR
STARTCHAR C2270
ENCODING 8816
SWIDTH 400 0
DWIDTH 24 0
BBX 24 24 0 -2
BITMAP
000000
000000
000000
000000
000000
000000
000000
000000
36C6D8
7FEFFC
12624C
12624C
12624C
12624C
12624C
12624C
12624C
12624C
12624C
3FE7FC
12624C
000000
000000
000000
ENDCHAR
STARTCHAR C2271
ENCODING 8817
SWIDTH 400 0
DWIDTH 24 0
BBX 24 24 0 -2
BITMAP
000000
000000
000000
000000
000000
000000
000000
000000
0FC488
18CFDC
306FFC
60266C
60066C
60066C
60066C
60066C
60266C
30666C
38C66C
1FC7EE
07066C
000000
000000
000000
ENDCHAR
STARTCHAR C2272
ENCODING 8818
SWIDTH 400 0
DWIDTH 24 0
BBX 24 24 0 -2
BITMAP
000000
100000
300000
700000
300000
300000
300000
300000
30FEDC
3047FC
30866C
31066C
32066C
3E066C
3B066C
31866C
31866C
30C66C
30C66C
79E7EE
38E66C
000000
000000
000000
ENDCHAR
STARTCHAR C2273
ENCODING 8819
SWIDTH 400 0
DWIDTH 24 0
BBX 24 24 0 -2
BITMAP
000000
70EE0E
606E06
604E06
60CE0E
608F0E
618F1E
610F1E
630D96
620DB6
660DA6
660DE6
6F0CE6
7B0C46
718C46
618C06
60CC06
60CC06
60CC06
70EC0E
60CC06
000000
000000
000000
ENDCHAR
STARTCHAR C2274
ENCODING 8820
SWIDTH 400 0
DWIDTH 24 0
BBX 24 24 0 -2
BITMAP
000060
0001B8
000198
000198
000030
0000C4
0001FC
0001FC
06E700
0FFF00
077300
067300
067300
067300
067300
067300
067300
067300
067300
077700
067300
000000
000000
000000
ENDCHAR
STARTCHAR C2275
ENCODING 8821
SWIDTH 400 0
DWIDTH 24 0
BBX 24 24 0 -2
BITMAP
000000
000000
000000
000000
000000
000000
000000
000000
1FE1EE
3FF33E
1B7218
1B7618
1B7618
1B7318
1B71B0
1B71E0
1B7300
1B77E0
1B73F8
1B7E1C
1B6C0C
000C0C
000738
0001E0
ENDCHAR
STARTCHAR C2276
ENCODING 8822
SWIDTH 400 0
DWIDTH 24 0
BBX 24 24 0 -2
BITMAP
000000
100000
300000
700000
300000
300000
300000
300000
30F1EE
30433E
308218
310618
360618
3F0318
3B01B0
3181E0
318300
30C7E0
30C3F8
79EE1C
38EC0C
000C0C
000738
0001E0
ENDCHAR
STARTCHAR C2277
ENCODING 8823
SWIDTH 400 0
DWIDTH 24 0
BBX 24 24 0 -2
BITMAP
000000
000000
000000
000000
000000
000000
000000
000000
0FC1F8
18E31C
30660C
30760C
302E0C
300E00
300E00
301E04
303604
30260C
1C631C
0FC1F8
030060
000000
000000
000000
ENDCHAR
STARTCHAR C2278
ENCODING 8824
SWIDTH 400 0
DWIDTH 24 0
BBX 24 24 0 -2
BITMAP
1E0000
330000
218000
218000
330000
0C0000
000000
000000
000000
000000
000000
000000
000000
000000
000000
000000
000000
000000
000000
000000
000000
000000
000000
000000
ENDCHAR
STARTCHAR C2279
ENCODING 8825
SWIDTH 400 0
DWIDTH 24 0
BBX 24 24 0 -2
BITMAP
070000
070060
060070
063060
FFF860
060060
060060
066060
7FF062
6077FF
607070
607060
607060
607060
7FE060
5F8060
1F8060
1F8060
1F8060
1B8061
3B8063
33FFFF
61FFFF
C07FFE
ENDCHAR
STARTCHAR C227a
ENCODING 8826
SWIDTH 400 0
DWIDTH 24 0
BBX 24 24 0 -2
BITMAP
070008
07003C
0601FC
0637E0
FFF860
060060
060060
066060
7FF062
6077FF
607070
607060
607060
607060
7FE060
5F8060
1F8060
1F8060
1F8060
1B8061
3B8063
33FFFF
61FFFF
C07FFE
ENDCHAR
STARTCHAR C227b
ENCODING 8827
SWIDTH 400 0
DWIDTH 24 0
BBX 24 24 0 -2
BITMAP
070000
07003C
0601F8
0637C0
FFF8C0
0600C0
0600C0
0660CC
7FF3FC
6070C0
6070C0
6070C4
607FFE
6070C0
7FE0C0
5F80C0
1F80C1
1F80E2
1F80FF
1B803E
3B8001
33FFFF
61FFFF
C07FFE
ENDCHAR
STARTCHAR C227c
ENCODING 8828
SWIDTH 400 0
DWIDTH 24 0
BBX 24 24 0 -2
BITMAP
070040
070060
0601A0
0631B0
FFFB10
060318
060318
06620C
7FF607
607C07
60780E
6073FC
6071CC
6071CC
7FE18C
5F818C
1F830C
1F830C
1F867C
1B8C79
3B9833
33FFFF
61FFFF
C07FFE
ENDCHAR
STARTCHAR C227d
ENCODING 8829
SWIDTH 400 0
DWIDTH 24 0
BBX 24 24 0 -2
BITMAP
070000
070004
0607FE
063040
FFF860
0600C0
060198
0667FC
7FF60C
60760C
60760C
60760C
6077FC
60761C
7FE60C
5F860C
1F860C
1F860C
1F87FC
1B8609
3B8003
33FFFF
61FFFF
C07FFE
ENDCHAR
STARTCHAR C227e
ENCODING 8830
SWIDTH 400 0
DWIDTH 24 0
BBX 24 24 0 -2
BITMAP
0E0000
0E1807
0C1FFF
0C5804
FFFBFE
0C1B66
0C1B66
0CDB76
FFFBFE
E0FB66
E0DB66
E0DBFE
E0DB64
E0D860
FFD864
5B1BFE
1B1060
1B3060
1B2066
3347FF
330001
73FFFF
63FFFF
C0FFFE
ENDCHAR
STARTCHAR C2321
ENCODING 8993
SWIDTH 400 0
DWIDTH 24 0
BBX 24 24 0 -2
BITMAP
060000
06030C
0633FE
7FFB0C
06330C
0C330C
0C730C
18638C
3BFBFC
70FF0C
407E00
00E3C0
0380FF
0F00FF
7BFFCC
C00030
1FFFF8
1CC338
1CC338
1FFFF8
1CC338
1CC378
1CC370
180230
ENDCHAR
STARTCHAR C2322
ENCODING 8994
SWIDTH 400 0
DWIDTH 24 0
BBX 24 24 0 -2
BITMAP
000008
00703C
FFF3FC
180F60
180060
180060
180060
18C060
3FE062
30CFFF
30C0E0
38C060
3CC060
36C060
32C060
32C060
30C060
30C060
30C060
30C061
3EC043
F8FFFF
E07FFF
001FFE
ENDCHAR
STARTCHAR C2323
ENCODING 8995
SWIDTH 400 0
DWIDTH 24 0
BBX 24 24 0 -2
BITMAP
0E0006
0E3FFF
0C3000
0CF3FE
6CB376
6DB366
3D3366
3C3376
0CB3FE
FFF366
0C3366
1E3366
1F33FE
3D3264
3DB060
6DB060
6C3076
CC33FE
8C7060
0C6060
0C6060
0C4060
0CC077
0C8FFF
ENDCHAR
STARTCHAR C2324
ENCODING 8996
SWIDTH 400 0
DWIDTH 24 0
BBX 24 24 0 -2
BITMAP
000000
000000
000000
000000
000000
000000
000000
000000
000000
000000
000000
000000
000000
000000
000000
000000
000000
000000
000000
000000
000000
FFFFFF
FFFFFF
FFFFFF
ENDCHAR
STARTCHAR C2325
ENCODING 8997
SWIDTH 400 0
DWIDTH 24 0
BBX 24 24 0 -2
BITMAP
000000
000000
000000
000000
000000
000000
000000
000000
000000
000000
000000
000000
000000
000000
000000
000000
000000
000000
FFFFFF
FFFFFF
FFFFFF
FFFFFF
FFFFFF
FFFFFF
ENDCHAR
STARTCHAR C2326
ENCODING 8998
SWIDTH 400 0
DWIDTH 24 0
BBX 24 24 0 -2
BITMAP
000000
000000
000000
000000
000000
000000
000000
000000
000000
000000
000000
000000
000000
000000
000000
FFFFFF
FFFFFF
FFFFFF
FFFFFF
FFFFFF
FFFFFF
FFFFFF
FFFFFF
FFFFFF
ENDCHAR
STARTCHAR C2327
ENCODING 8999
SWIDTH 400 0
DWIDTH 24 0
BBX 24 24 0 -2
BITMAP
000000
000000
000000
000000
000000
000000
000000
000000
000000
000000
000000
000000
FFFFFF
FFFFFF
FFFFFF
FFFFFF
FFFFFF
FFFFFF
FFFFFF
FFFFFF
FFFFFF
FFFFFF
FFFFFF
FFFFFF
ENDCHAR
STARTCHAR C2328
ENCODING 9000
SWIDTH 400 0
DWIDTH 24 0
BBX 24 24 0 -2
BITMAP
000000
000000
000000
000000
000000
000000
000000
000000
000000
FFFFFF
FFFFFF
FFFFFF
FFFFFF
FFFFFF
FFFFFF
FFFFFF
FFFFFF
FFFFFF
FFFFFF
FFFFFF
FFFFFF
FFFFFF
FFFFFF
FFFFFF
ENDCHAR
STARTCHAR C2329
ENCODING 9001
SWIDTH 400 0
DWIDTH 24 0
BBX 24 24 0 -2
BITMAP
000000
000000
000000
000000
000000
000000
FFFFFF
FFFFFF
FFFFFF
FFFFFF
FFFFFF
FFFFFF
FFFFFF
FFFFFF
FFFFFF
FFFFFF
FFFFFF
FFFFFF
FFFFFF
FFFFFF
FFFFFF
FFFFFF
FFFFFF
FFFFFF
ENDCHAR
STARTCHAR C232a
ENCODING 9002
SWIDTH 400 0
DWIDTH 24 0
BBX 24 24 0 -2
BITMAP
000000
000000
000000
FFFFFF
FFFFFF
FFFFFF
FFFFFF
FFFFFF
FFFFFF
FFFFFF
FFFFFF
FFFFFF
FFFFFF
FFFFFF
FFFFFF
FFFFFF
FFFFFF
FFFFFF
FFFFFF
FFFFFF
FFFFFF
FFFFFF
FFFFFF
FFFFFF
ENDCHAR
STARTCHAR C232b
ENCODING 9003
SWIDTH 400 0
DWIDTH 24 0
BBX 24 24 0 -2
BITMAP
FFFFFF
FFFFFF
FFFFFF
FFFFFF
FFFFFF
FFFFFF
FFFFFF
FFFFFF
FFFFFF
FFFFFF
FFFFFF
FFFFFF
FFFFFF
FFFFFF
FFFFFF
FFFFFF
FFFFFF
FFFFFF
FFFFFF
FFFFFF
FFFFFF
FFFFFF
FFFFFF
FFFFFF
ENDCHAR
STARTCHAR C232c
ENCODING 9004
SWIDTH 400 0
DWIDTH 24 0
BBX 24 24 0 -2
BITMAP
E00000
E00000
E00000
E00000
E00000
E00000
E00000
E00000
E00000
E00000
E00000
E00000
E00000
E00000
E00000
E00000
E00000
E00000
E00000
E00000
E00000
E00000
E00000
E00000
ENDCHAR
STARTCHAR C232d
ENCODING 9005
SWIDTH 400 0
DWIDTH 24 0
BBX 24 24 0 -2
BITMAP
FC0000
FC0000
FC0000
FC0000
FC0000
FC0000
FC0000
FC0000
FC0000
FC0000
FC0000
FC0000
FC0000
FC0000
FC0000
FC0000
FC0000
FC0000
FC0000
FC0000
FC0000
FC0000
FC0000
FC0000
ENDCHAR
STARTCHAR C232e
ENCODING 9006
SWIDTH 400 0
DWIDTH 24 0
BBX 24 24 0 -2
BITMAP
FF8000
FF8000
FF8000
FF8000
FF8000
FF8000
FF8000
FF8000
FF8000
FF8000
FF8000
FF8000
FF8000
FF8000
FF8000
FF8000
FF8000
FF8000
FF8000
FF8000
FF8000
FF8000
FF8000
FF8000
ENDCHAR
STARTCHAR C232f
ENCODING 9007
SWIDTH 400 0
DWIDTH 24 0
BBX 24 24 0 -2
BITMAP
FFF000
FFF000
FFF000
FFF000
FFF000
FFF000
FFF000
FFF000
FFF000
FFF000
FFF000
FFF000
FFF000
FFF000
FFF000
FFF000
FFF000
FFF000
FFF000
FFF000
FFF000
FFF000
FFF000
FFF000
ENDCHAR
STARTCHAR C2330
ENCODING 9008
SWIDTH 400 0
DWIDTH 24 0
BBX 24 24 0 -2
BITMAP
FFFE00
FFFE00
FFFE00
FFFE00
FFFE00
FFFE00
FFFE00
FFFE00
FFFE00
FFFE00
FFFE00
FFFE00
FFFE00
FFFE00
FFFE00
FFFE00
FFFE00
FFFE00
FFFE00
FFFE00
FFFE00
FFFE00
FFFE00
FFFE00
ENDCHAR
STARTCHAR C2331
ENCODING 9009
SWIDTH 400 0
DWIDTH 24 0
BBX 24 24 0 -2
BITMAP
FFFFC0
FFFFC0
FFFFC0
FFFFC0
FFFFC0
FFFFC0
FFFFC0
FFFFC0
FFFFC0
FFFFC0
FFFFC0
FFFFC0
FFFFC0
FFFFC0
FFFFC0
FFFFC0
FFFFC0
FFFFC0
FFFFC0
FFFFC0
FFFFC0
FFFFC0
FFFFC0
FFFFC0
ENDCHAR
STARTCHAR C2332
ENCODING 9010
SWIDTH 400 0
DWIDTH 24 0
BBX 24 24 0 -2
BITMAP
FFFFF8
FFFFF8
FFFFF8
FFFFF8
FFFFF8
FFFFF8
FFFFF8
FFFFF8
FFFFF8
FFFFF8
FFFFF8
FFFFF8
FFFFF8
FFFFF8
FFFFF8
FFFFF8
FFFFF8
FFFFF8
FFFFF8
FFFFF8
FFFFF8
FFFFF8
FFFFF8
FFFFF8
ENDCHAR
STARTCHAR C2333
ENCODING 9011
SWIDTH 400 0
DWIDTH 24 0
BBX 24 24 0 -2
BITMAP
001800
001800
001800
001800
001800
001800
001800
001800
001800
001800
003800
FFFFFF
FFFFFF
001800
001800
001800
001800
001800
001800
001800
001800
001800
001800
001800
ENDCHAR
STARTCHAR C2334
ENCODING 9012
SWIDTH 400 0
DWIDTH 24 0
BBX 24 24 0 -2
BITMAP
001800
001800
001800
001800
001800
001800
001800
001800
001800
001800
003800
FFFFFF
FFFFFF
000000
000000
000000
000000
000000
000000
000000
000000
000000
000000
000000
ENDCHAR
STARTCHAR C2335
ENCODING 9013
SWIDTH 400 0
DWIDTH 24 0
BBX 24 24 0 -2
BITMAP
000000
000000
000000
000000
000000
000000
000000
000000
000000
000000
000000
FFFFFF
FFFFFF
001800
001800
001800
001800
001800
001800
001800
001800
001800
001800
001800
ENDCHAR
STARTCHAR C2336
ENCODING 9014
SWIDTH 400 0
DWIDTH 24 0
BBX 24 24 0 -2
BITMAP
001800
001800
001800
001800
001800
001800
001800
001800
001800
001800
003800
FFF800
FFF800
001800
001800
001800
001800
001800
001800
001800
001800
001800
001800
001800
ENDCHAR
STARTCHAR C2337
ENCODING 9015
SWIDTH 400 0
DWIDTH 24 0
BBX 24 24 0 -2
BITMAP
001800
001800
001800
001800
001800
001800
001800
001800
001800
001800
001800
001FFF
001FFF
001800
001800
001800
001800
001800
001800
001800
001800
001800
001800
001800
ENDCHAR
STARTCHAR C2338
ENCODING 9016
SWIDTH 400 0
DWIDTH 24 0
BBX 24 24 0 -2
BITMAP
FFFFFF
FFFFFF
000000
000000
000000
000000
000000
000000
000000
000000
000000
000000
000000
000000
000000
000000
000000
000000
000000
000000
000000
000000
000000
000000
ENDCHAR
STARTCHAR C2339
ENCODING 9017
SWIDTH 400 0
DWIDTH 24 0
BBX 24 24 0 -2
BITMAP
000000
000000
000000
000000
000000
000000
000000
000000
000000
000000
000000
FFFFFF
FFFFFF
000000
000000
000000
000000
000000
000000
000000
000000
000000
000000
000000
ENDCHAR
STARTCHAR C233a
ENCODING 9018
SWIDTH 400 0
DWIDTH 24 0
BBX 24 24 0 -2
BITMAP
001800
001800
001800
001800
001800
001800
001800
001800
001800
001800
001800
001800
001800
001800
001800
001800
001800
001800
001800
001800
001800
001800
001800
001800
ENDCHAR
STARTCHAR C233b
ENCODING 9019
SWIDTH 400 0
DWIDTH 24 0
BBX 24 24 0 -2
BITMAP
000003
000003
000003
000003
000003
000003
000003
000003
000003
000003
000003
000003
000003
000003
000003
000003
000003
000003
000003
000003
000003
000003
000003
000003
ENDCHAR
STARTCHAR C233c
ENCODING 9020
SWIDTH 400 0
DWIDTH 24 0
BBX 24 24 0 -2
BITMAP
000000
000000
000000
000000
000000
000000
000000
000000
000000
000000
000000
001FFF
001FFF
001800
001800
001800
001800
001800
001800
001800
001800
001800
001800
001800
ENDCHAR
STARTCHAR C233d
ENCODING 9021
SWIDTH 400 0
DWIDTH 24 0
BBX 24 24 0 -2
BITMAP
000000
000000
000000
000000
000000
000000
000000
000000
000000
000000
000000
FFF800
FFF800
001800
001800
001800
001800
001800
001800
001800
001800
001800
001800
001800
ENDCHAR
STARTCHAR C233e
ENCODING 9022
SWIDTH 400 0
DWIDTH 24 0
BBX 24 24 0 -2
BITMAP
001800
001800
001800
001800
001800
001800
001800
001800
001800
001800
001800
001FFF
001FFF
000000
000000
000000
000000
000000
000000
000000
000000
000000
000000
000000
ENDCHAR
STARTCHAR C233f
ENCODING 9023
SWIDTH 400 0
DWIDTH 24 0
BBX 24 24 0 -2
BITMAP
001800
001800
001800
001800
001800
001800
001800
001800
001800
001800
003800
FFF800
FFF800
000000
000000
000000
000000
000000
000000
000000
000000
000000
000000
000000
ENDCHAR
STARTCHAR C2340
ENCODING 9024
SWIDTH 400 0
DWIDTH 24 0
BBX 24 24 0 -2
BITMAP
000000
000000
000000
000000
000000
000000
000000
000000
000000
000000
000000
00001F
00007F
0001E0
0003C0
000700
000600
000E00
000C00
001800
001800
001800
001800
001800
ENDCHAR
STARTCHAR C2341
ENCODING 9025
SWIDTH 400 0
DWIDTH 24 0
BBX 24 24 0 -2
BITMAP
000000
000000
000000
000000
000000
000000
000000
000000
000000
000000
000000
F00000
FC0000
0F0000
038000
01C000
00C000
006000
007000
003000
003000
003000
001800
001800
ENDCHAR
STARTCHAR C2342
ENCODING 9026
SWIDTH 400 0
DWIDTH 24 0
BBX 24 24 0 -2
BITMAP
001800
001800
001800
001800
000C00
000C00
000600
000700
000380
0001E0
00007C
00003F
000003
000000
000000
000000
000000
000000
000000
000000
000000
000000
000000
000000
ENDCHAR
STARTCHAR C2343
ENCODING 9027
SWIDTH 400 0
DWIDTH 24 0
BBX 24 24 0 -2
BITMAP
001800
001800
003000
003000
003000
006000
006000
00C000
018000
070000
3E0000
F80000
C00000
000000
000000
000000
000000
000000
000000
000000
000000
000000
000000
000000
ENDCHAR
STARTCHAR C2344
ENCODING 9028
SWIDTH 400 0
DWIDTH 24 0
BBX 24 24 0 -2
BITMAP
000000
000000
000000
000000
000000
000000
FFFFFF
FFFFFF
000000
000000
000000
000000
000000
000000
000000
FFFFFF
FFFFFF
000000
000000
000000
000000
000000
000000
000000
ENDCHAR
STARTCHAR C2345
ENCODING 9029
SWIDTH 400 0
DWIDTH 24 0
BBX 24 24 0 -2
BITMAP
001800
001800
001800
001800
001800
001800
001FFF
001FFF
001800
001800
001800
001800
001800
001800
001800
001FFF
001FFF
001800
001800
001800
001800
001800
001800
001800
ENDCHAR
STARTCHAR C2346
ENCODING 9030
SWIDTH 400 0
DWIDTH 24 0
BBX 24 24 0 -2
BITMAP
001800
001800
001800
001800
001800
001800
FFFFFF
FFFFFF
001800
001800
001800
001800
001800
001800
001800
FFFFFF
FFFFFF
001800
001800
001800
001800
001800
001800
001800
ENDCHAR
STARTCHAR C2347
ENCODING 9031
SWIDTH 400 0
DWIDTH 24 0
BBX 24 24 0 -2
BITMAP
001800
001800
001800
001800
001800
001800
FFF800
FFF800
001800
001800
001800
001800
001800
001800
001800
FFF800
FFF800
001800
001800
001800
001800
001800
001800
001800
ENDCHAR
STARTCHAR C2348
ENCODING 9032
SWIDTH 400 0
DWIDTH 24 0
BBX 24 24 0 -2
BITMAP
000001
000003
000007
00000F
00001F
00003F
00007F
0000FF
0001FF
0003FF
0007FF
000FFF
001FFF
003FFF
007FFF
00FFFF
01FFFF
03FFFF
07FFFF
0FFFFF
1FFFFF
3FFFFF
7FFFFF
FFFFFF
ENDCHAR
STARTCHAR C2349
ENCODING 9033
SWIDTH 400 0
DWIDTH 24 0
BBX 24 24 0 -2
BITMAP
800000
C00000
E00000
F00000
F80000
FC0000
FE0000
FF0000
FF8000
FFC000
FFE000
FFF000
FFF800
FFFC00
FFFE00
FFFF00
FFFF80
FFFFC0
FFFFE0
FFFFF0
FFFFF8
FFFFFC
FFFFFE
FFFFFF
ENDCHAR
STARTCHAR C234a
ENCODING 9034
SWIDTH 400 0
DWIDTH 24 0
BBX 24 24 0 -2
BITMAP
FFFFFF
7FFFFF
3FFFFF
1FFFFF
0FFFFF
07FFFF
03FFFF
01FFFF
00FFFF
007FFF
003FFF
001FFF
000FFF
0007FF
0003FF
0001FF
0000FF
00007F
00003F
00001F
00000F
000007
000003
000001
ENDCHAR
STARTCHAR C234b
ENCODING 9035
SWIDTH 400 0
DWIDTH 24 0
BBX 24 24 0 -2
BITMAP
FFFFFF
FFFFFE
FFFFFC
FFFFF8
FFFFF0
FFFFE0
FFFFC0
FFFF80
FFFF00
FFFE00
FFFC00
FFF800
FFF000
FFE000
FFC000
FF8000
FF0000
FE0000
FC0000
F80000
F00000
E00000
C00000
800000
ENDCHAR
STARTCHAR C234c
ENCODING 9036
SWIDTH 400 0
DWIDTH 24 0
BBX 24 24 0 -2
BITMAP
000003
000007
00000E
00001C
000038
000070
0000E0
0001C0
000380
000700
000E00
001C00
003800
007000
00E000
01C000
038000
070000
0E0000
1C0000
380000
700000
E00000
C00000
ENDCHAR
STARTCHAR C234d
ENCODING 9037
SWIDTH 400 0
DWIDTH 24 0
BBX 24 24 0 -2
BITMAP
C00000
E00000
700000
380000
1C0000
0E0000
070000
038000
01C000
00E000
007000
003800
001C00
000E00
000700
000380
0001C0
0000E0
000070
000038
00001C
00000E
000007
000003
ENDCHAR
STARTCHAR C234e
ENCODING 9038
SWIDTH 400 0
DWIDTH 24 0
BBX 24 24 0 -2
BITMAP
C00003
E00007
70000E
38001C
1C0038
0E0070
0700E0
0381C0
01C380
00E700
007E00
003C00
003C00
007E00
00E700
01C380
0381C0
0700E0
0E0070
1C0038
38001C
70000E
E00007
C00003
ENDCHAR
STARTCHAR C2421
ENCODING 9249
SWIDTH 400 0
DWIDTH 24 0
BBX 24 24 0 -2
BITMAP
000000
007C00
00FF00
018380
0301C0
0700C0
060040
060060
0C0060
0C0060
0C0060
0C0060
0C0060
0C0060
0C0060
060060
060060
0200C0
030180
018300
00FE00
003C00
000000
000000
ENDCHAR
STARTCHAR C2422
ENCODING 9250
SWIDTH 400 0
DWIDTH 24 0
BBX 24 24 0 -2
BITMAP
000000
000800
001800
007800
00F800
001800
001800
001800
001800
001800
001800
001800
001800
001800
001800
001800
001800
001800
001800
003C00
01FF80
01FF80
000000
000000
ENDCHAR
STARTCHAR C2423
ENCODING 9251
SWIDTH 400 0
DWIDTH 24 0
BBX 24 24 0 -2
BITMAP
000000
007E00
01FF80
0381C0
0600E0
060060
0E0060
0E0060
0F0060
0700E0
0001C0
000380
000600
000C00
003800
006000
01C000
038020
060020
0E0060
0FFFE0
0FFFE0
000000
000000
ENDCHAR
STARTCHAR C2424
ENCODING 9252
SWIDTH 400 0
DWIDTH 24 0
BBX 24 24 0 -2
BITMAP
000000
007C00
01FF00
030380
0601C0
0600E0
0600E0
0700E0
0300C0
000180
000300
003F00
0003C0
0000E0
0600E0
0E0060
0E0060
0C00E0
0600E0
0701C0
03FF00
00FC00
000000
000000
ENDCHAR
STARTCHAR C2425
ENCODING 9253
SWIDTH 400 0
DWIDTH 24 0
BBX 24 24 0 -2
BITMAP
000000
000180
000380
000780
000F80
001B80
003380
006380
00C380
018380
030380
060380
0C0380
180380
380380
3FFFF8
3FFFFC
000380
000380
000380
001FF0
001FF0
000000
000000
ENDCHAR
STARTCHAR C2426
ENCODING 9254
SWIDTH 400 0
DWIDTH 24 0
BBX 24 24 0 -2
BITMAP
000000
07FFE0
07FFC0
060000
060000
060000
060000
060000
063F00
06E3C0
0780E0
070060
060070
000070
000030
0E0030
0E0070
0C0060
0600E0
0703C0
03FF00
007C00
000000
000000
ENDCHAR
STARTCHAR C2427
ENCODING 9255
SWIDTH 400 0
DWIDTH 24 0
BBX 24 24 0 -2
BITMAP
000000
003E00
00FF80
0180C0
0300E0
0700E0
060060
060000
0C0000
0C7E00
0CE380
0D80E0
0E0060
0E0070
0C0070
0C0070
0C0070
0E0060
0600E0
0381C0
01FF00
007C00
000000
000000
ENDCHAR
STARTCHAR C2428
ENCODING 9256
SWIDTH 400 0
DWIDTH 24 0
BBX 24 24 0 -2
BITMAP
000000
0FFFF0
0FFFF0
0C0070
0C0060
0C00C0
0801C0
000180
000380
000300
000300
000600
000600
000600
000E00
000C00
000C00
001C00
001800
001800
001800
001800
000000
000000
ENDCHAR
STARTCHAR C2429
ENCODING 9257
SWIDTH 400 0
DWIDTH 24 0
BBX 24 24 0 -2
BITMAP
000000
007E00
01FF80
0381C0
0700E0
060060
060060
070060
0380E0
01C1C0
00FB00
01FF00
0383C0
0601E0
0600E0
0E0070
0E0070
0E0070
0700E0
0781E0
03FFC0
00FF00
000000
000000
ENDCHAR
STARTCHAR C242a
ENCODING 9258
SWIDTH 400 0
DWIDTH 24 0
BBX 24 24 0 -2
BITMAP
000000
007E00
01FF80
0381C0
070060
060060
0E0070
0E0070
0E0070
0E0070
060070
0300F0
01FF70
00FE70
000070
000060
060060
0700E0
0600C0
0703C0
03FF00
00FC00
000000
000000
ENDCHAR
STARTCHAR C242b
ENCODING 9259
SWIDTH 400 0
DWIDTH 24 0
BBX 24 24 0 -2
BITMAP
000000
01FF80
01FF00
003800
003800
003800
003800
003800
003800
003800
003800
003800
003800
003800
003800
003800
003800
003800
003800
003C00
01FF80
01FF80
000000
000000
ENDCHAR
STARTCHAR C242c
ENCODING 9260
SWIDTH 400 0
DWIDTH 24 0
BBX 24 24 0 -2
BITMAP
000000
0FFFF0
0FFFF0
0381C0
0381C0
0381C0
0381C0
0381C0
0381C0
0381C0
0381C0
0381C0
0381C0
0381C0
0381C0
0381C0
0381C0
0381C0
0381C0
0381C0
07C3E0
1FFFF8
000000
000000
ENDCHAR
STARTCHAR C242d
ENCODING 9261
SWIDTH 400 0
DWIDTH 24 0
BBX 24 24 0 -2
BITMAP
000000
1FFFF8
1FFFF8
061860
061860
061860
061860
061860
061860
061860
061860
061860
061860
061860
061860
061860
061860
061860
061860
061860
1FFFF8
1FFFF8
000000
000000
ENDCHAR
STARTCHAR C242e
ENCODING 9262
SWIDTH 400 0
DWIDTH 24 0
BBX 24 24 0 -2
BITMAP
000000
3FF87C
1FF038
1CE038
1C6030
1C7030
1C7060
1C3060
1C3860
1C38E0
1C18C0
1C1CC0
1C1DC0
1C1D80
1C0F80
1C0F80
1C0F00
1C0700
1C0700
1C0700
3E0200
3E0200
000000
000000
ENDCHAR
STARTCHAR C242f
ENCODING 9263
SWIDTH 400 0
DWIDTH 24 0
BBX 24 24 0 -2
BITMAP
000000
0FC0F8
0F80F8
070060
030060
038060
0380C0
0180C0
01C1C0
01C180
00C180
00E380
00E300
007300
007700
007600
003E00
003E00
001C00
001C00
001800
001800
000000
000000
ENDCHAR
STARTCHAR C2430
ENCODING 9264
SWIDTH 400 0
DWIDTH 24 0
BBX 24 24 0 -2
BITMAP
000000
3E0FFC
3C0FFC
1C0638
1C0638
1C0E38
0E0C38
0E0C38
0E1C38
061838
071838
071838
03B038
03B038
03B038
03F038
01E038
01E038
00C038
00C038
00C0FC
00C0FC
000000
000000
ENDCHAR
STARTCHAR C2431
ENCODING 9265
SWIDTH 400 0
DWIDTH 24 0
BBX 24 24 0 -2
BITMAP
000000
3E3FFC
1E1FFC
1C1998
0E1998
0E1998
0E3998
063198
063198
073198
077198
077198
076198
03E198
03E198
03E198
03C198
03C198
01C198
01C198
0083FC
0083FC
000000
000000
ENDCHAR
STARTCHAR C2432
ENCODING 9266
SWIDTH 400 0
DWIDTH 24 0
BBX 24 24 0 -2
BITMAP
000000
387FFC
387FF8
183FF8
182FF8
1C6FF8
0C6FF8
0C4FF8
0C4FF8
0C4FF8
06CFF8
06CFF8
06CFF8
078FF8
078FF8
078FF8
078FF8
038FF8
030FF8
030FF8
031FFC
011FFC
000000
000000
ENDCHAR
STARTCHAR C2433
ENCODING 9267
SWIDTH 400 0
DWIDTH 24 0
BBX 24 24 0 -2
BITMAP
000000
3FF07C
1FF038
0C7030
0C3030
0C3860
0C18E0
0C18C0
0C0D80
0C0F80
0C0700
0C0700
0C0F00
0C0F80
0C1D80
0C19C0
0C18C0
0C30E0
0C6060
0C6070
3FE07C
3FE07C
000000
000000
ENDCHAR
STARTCHAR C2434
ENCODING 9268
SWIDTH 400 0
DWIDTH 24 0
BBX 24 24 0 -2
BITMAP
000000
0FE3F0
0FC3F0
038180
018300
01C300
00C300
00E600
006600
007C00
003C00
003C00
003C00
007E00
006E00
00C700
00C300
018380
0183C0
0301C0
0FC7F0
0FC7F0
000000
000000
ENDCHAR
STARTCHAR C2435
ENCODING 9269
SWIDTH 400 0
DWIDTH 24 0
BBX 24 24 0 -2
BITMAP
000000
001000
001C00
001800
001800
001800
001800
001800
001800
001800
001800
001800
001800
001800
001800
001800
001800
001800
001800
001800
001800
001000
000000
000000
ENDCHAR
STARTCHAR C2436
ENCODING 9270
SWIDTH 400 0
DWIDTH 24 0
BBX 24 24 0 -2
BITMAP
000000
000200
000380
000300
000300
01C300
01C300
018300
018300
018300
018300
018300
018300
018300
018300
018300
018300
000300
000300
000300
000300
000200
000000
000000
ENDCHAR
STARTCHAR C2437
ENCODING 9271
SWIDTH 400 0
DWIDTH 24 0
BBX 24 24 0 -2
BITMAP
000000
000060
000070
070060
070060
061C60
061C60
061860
061860
061860
061860
061860
061860
061860
061860
061860
061860
060060
060060
000060
000060
000060
000000
000000
ENDCHAR
STARTCHAR C2438
ENCODING 9272
SWIDTH 400 0
DWIDTH 24 0
BBX 24 24 0 -2
BITMAP
000000
000080
0001C0
0C01C0
060180
030380
018300
00C300
006600
003E00
001C00
001C00
003E00
007700
00E380
01C1C0
0380E0
07007E
0E001E
1C000C
300000
000000
000000
000000
ENDCHAR
STARTCHAR C2439
ENCODING 9273
SWIDTH 400 0
DWIDTH 24 0
BBX 24 24 0 -2
BITMAP
000000
000180
000300
004300
00C600
00C600
00CC00
00F800
007C00
006E00
00C600
00C600
01C600
018600
038600
038600
030600
030E00
030C00
031800
01F000
00E000
000000
000000
ENDCHAR
STARTCHAR C243a
ENCODING 9274
SWIDTH 400 0
DWIDTH 24 0
BBX 24 24 0 -2
BITMAP
000000
001000
001C00
001800
001800
001818
3FFFFC
000000
000000
000000
000000
000000
000000
000000
000000
000000
000000
000000
000000
000000
000000
000000
000000
000000
ENDCHAR
STARTCHAR C243b
ENCODING 9275
SWIDTH 400 0
DWIDTH 24 0
BBX 24 24 0 -2
BITMAP
000000
001000
001C00
001800
001800
001818
3FFFFC
000000
000000
000000
000000
000000
000060
0FFFF0
000000
000000
000000
000000
000000
000000
000000
000000
000000
000000
ENDCHAR
STARTCHAR C243c
ENCODING 9276
SWIDTH 400 0
DWIDTH 24 0
BBX 24 24 0 -2
BITMAP
000000
001000
001C00
001800
001800
001818
3FFFFC
000000
000000
000000
000000
000000
000060
0FFFF0
000000
000000
000000
000000
000000
000038
1FFFF8
000000
000000
000000
ENDCHAR
STARTCHAR C243d
ENCODING 9277
SWIDTH 400 0
DWIDTH 24 0
BBX 24 24 0 -2
BITMAP
000000
008000
00E000
01C000
018000
0300C0
07FFE0
0201C0
0301C0
018180
008180
00C300
00E300
007600
003E00
001C00
003E00
007780
00E3FC
0380FC
0E0078
380010
000000
000000
ENDCHAR
STARTCHAR C243e
ENCODING 9278
SWIDTH 400 0
DWIDTH 24 0
BBX 24 24 0 -2
BITMAP
001000
001C00
001800
001800
001800
001800
001800
001800
001808
1FFFFC
003800
001800
001800
001800
001800
001800
001800
001800
001800
001800
001800
001800
000000
000000
ENDCHAR
STARTCHAR C243f
ENCODING 9279
SWIDTH 400 0
DWIDTH 24 0
BBX 24 24 0 -2
BITMAP
000100
01C1C0
018180
018180
018180
018180
018180
018180
018188
3FFFFC
018180
018180
018180
018180
018180
018180
018180
018180
018180
018180
018180
018180
000000
000000
ENDCHAR
STARTCHAR C2440
ENCODING 9280
SWIDTH 400 0
DWIDTH 24 0
BBX 24 24 0 -2
BITMAP
000000
0700E0
0718C0
0618C0
0618C0
0618C0
0618C0
0618C0
0618C4
3FFFFE
0738C0
0618C0
0618C0
0618C0
0618C0
0618C0
0618C0
0618C0
0618C0
0600C0
0600C0
0000C0
000000
000000
ENDCHAR
STARTCHAR C2441
ENCODING 9281
SWIDTH 400 0
DWIDTH 24 0
BBX 24 24 0 -2
BITMAP
000000
001C00
001C00
003E00
003600
006700
006700
004300
00C380
00C380
018180
01FFC0
03FFC0
0300C0
0200E0
0600E0
060060
040070
0C0070
3F01FC
1F01F8
000000
000000
000000
ENDCHAR
STARTCHAR C2442
ENCODING 9282
SWIDTH 400 0
DWIDTH 24 0
BBX 24 24 0 -2
BITMAP
000000
0FFE00
0FFF80
0380C0
038060
038070
038070
038060
0380E0
0381C0
03FF80
03FFE0
038070
038030
038038
038038
038030
038070
0380E0
0FFFC0
0FFF00
000000
000000
000000
ENDCHAR
STARTCHAR C2443
ENCODING 9283
SWIDTH 400 0
DWIDTH 24 0
BBX 24 24 0 -2
BITMAP
000000
007E20
01FFE0
0380E0
060060
060030
0E0010
0C0000
1C0000
1C0000
1C0000
1C0000
1C0000
0C0000
0E0018
060030
060030
030060
01FFE0
00FF80
003E00
000000
000000
000000
ENDCHAR
STARTCHAR C2444
ENCODING 9284
SWIDTH 400 0
DWIDTH 24 0
BBX 24 24 0 -2
BITMAP
000000
0FFE00
0FFF80
0380C0
038060
038060
038070
038030
038038
038038
038038
038038
038038
038030
038070
038070
038060
0380C0
038380
0FFE00
0FF800
000000
000000
000000
ENDCHAR
STARTCHAR C2445
ENCODING 9285
SWIDTH 400 0
DWIDTH 24 0
BBX 24 24 0 -2
BITMAP
000000
0FFFF0
0FFFF0
038038
038018
038018
038000
038100
038100
038100
03FF00
03FF00
038100
038100
038100
038018
038018
038038
038038
0FFFF0
0FFFE0
000000
000000
000000
ENDCHAR
STARTCHAR C2446
ENCODING 9286
SWIDTH 400 0
DWIDTH 24 0
BBX 24 24 0 -2
BITMAP
000000
0FFFF0
0FFFF0
038038
038018
038018
038000
038100
038100
038100
03FF00
03FF00
038100
038100
038100
038000
038000
038000
038000
0FF000
0FF000
000000
000000
000000
ENDCHAR
STARTCHAR C2447
ENCODING 9287
SWIDTH 400 0
DWIDTH 24 0
BBX 24 24 0 -2
BITMAP
000000
007E40
01FFC0
0380E0
070060
060020
0E0020
0C0000
1C0000
1C0000
1C0000
1C03F8
1C03F8
0C00E0
0E00E0
0E00E0
0600E0
0301E0
01C360
00FE60
003800
000000
000000
000000
ENDCHAR
STARTCHAR C2448
ENCODING 9288
SWIDTH 400 0
DWIDTH 24 0
BBX 24 24 0 -2
BITMAP
000000
0FC3F0
0F81F0
0700E0
0700E0
0700E0
0700E0
0700E0
0700E0
0700E0
07FFE0
07FFE0
0700E0
0700E0
0700E0
0700E0
0700E0
0700E0
0700E0
0FC3F0
0F81F0
000000
000000
000000
ENDCHAR
STARTCHAR C2449
ENCODING 9289
SWIDTH 400 0
DWIDTH 24 0
BBX 24 24 0 -2
BITMAP
000000
00FF00
00FF00
001800
001800
001800
001800
001800
001800
001800
001800
001800
001800
001800
001800
001800
001800
001800
003C00
00FF00
00FF00
000000
000000
000000
ENDCHAR
STARTCHAR C244a
ENCODING 9290
SWIDTH 400 0
DWIDTH 24 0
BBX 24 24 0 -2
BITMAP
000000
001FE0
000FC0
000300
000300
000300
000300
000300
000300
000300
000300
000300
000300
000300
000300
038300
078700
030700
038E00
01FC00
007000
000000
000000
000000
ENDCHAR
STARTCHAR C244b
ENCODING 9291
SWIDTH 400 0
DWIDTH 24 0
BBX 24 24 0 -2
BITMAP
000000
0FC0F0
0F80F0
0700C0
070180
070300
070600
070C00
071C00
073C00
076E00
07C600
078700
070300
070380
070180
0701C0
0701C0
0700E0
0FC3F0
0F81F0
000000
000000
000000
ENDCHAR
STARTCHAR C244c
ENCODING 9292
SWIDTH 400 0
DWIDTH 24 0
BBX 24 24 0 -2
BITMAP
000000
0FE000
0FC000
038000
038000
038000
038000
038000
038000
038000
038000
038000
038000
038000
038008
038018
038018
038038
038030
0FFFF0
0FFFE0
000000
000000
000000
ENDCHAR
STARTCHAR C244d
ENCODING 9293
SWIDTH 400 0
DWIDTH 24 0
BBX 24 24 0 -2
BITMAP
000000
3C007C
1E00F8
0E00F0
0F01F0
0F01F0
0F8170
0D8370
0DC370
0CC270
0CC270
0CE670
0C6470
0C6C70
0C7870
0C3870
0C1870
0C1070
0C1070
3E00FC
1E00F8
000000
000000
000000
ENDCHAR
STARTCHAR C244e
ENCODING 9294
SWIDTH 400 0
DWIDTH 24 0
BBX 24 24 0 -2
BITMAP
000000
0F01F8
0F01F8
078060
078060
06C060
06E060
066060
067060
063060
061860
061C60
060E60
060660
060760
0603E0
0601E0
0601E0
0600E0
1F8060
1F8000
000000
000000
000000
ENDCHAR
STARTCHAR C244f
ENCODING 9295
SWIDTH 400 0
DWIDTH 24 0
BBX 24 24 0 -2
BITMAP
000000
007E00
01FF80
0300C0
060060
060060
0E0070
0E0070
1C0038
1C0038
1C0038
1C0038
1C0038
0C0030
0E0070
0E0070
060060
0300C0
018180
00FF00
003C00
000000
000000
000000
ENDCHAR
STARTCHAR C2450
ENCODING 9296
SWIDTH 400 0
DWIDTH 24 0
BBX 24 24 0 -2
BITMAP
000000
0FFF00
0FFFC0
0380F0
038070
038038
038038
038030
038070
0380E0
0383C0
03FF00
038000
038000
038000
038000
038000
038000
038000
0FE000
0FC000
000000
000000
000000
ENDCHAR
STARTCHAR C2451
ENCODING 9297
SWIDTH 400 0
DWIDTH 24 0
BBX 24 24 0 -2
BITMAP
000000
007E00
01FF80
0300C0
060060
060060
0E0070
0E0070
1C0038
1C0038
1C0038
1C0038
1C0038
0C0030
0E3870
0E7C70
064460
03C6C0
01C6C0
00FF80
003F0C
0001FC
000078
000000
ENDCHAR
STARTCHAR C2452
ENCODING 9298
SWIDTH 400 0
DWIDTH 24 0
BBX 24 24 0 -2
BITMAP
000000
0FFF00
0FFF80
0380C0
0380E0
038060
038060
038060
0380E0
0381C0
03FF00
03FE00
038E00
038700
038700
038380
038380
0381C0
0381C0
0FE3F0
0FC3F0
000000
000000
000000
ENDCHAR
STARTCHAR C2453
ENCODING 9299
SWIDTH 400 0
DWIDTH 24 0
BBX 24 24 0 -2
BITMAP
000000
00FE60
03FF60
0701E0
060060
0E0030
0E0010
0E0000
0F0000
07FC00
01FF00
003FE0
0001F0
000070
080038
180038
0C0030
0F0070
0FC1E0
04FFC0
047F00
000000
000000
000000
ENDCHAR
STARTCHAR C2454
ENCODING 9300
SWIDTH 400 0
DWIDTH 24 0
BBX 24 24 0 -2
BITMAP
000000
0FFFF0
1FFFF8
181818
181818
101808
101808
001800
001800
001800
001800
001800
001800
001800
001800
001800
001800
001800
003C00
00FF00
007E00
000000
000000
000000
ENDCHAR
STARTCHAR C2455
ENCODING 9301
SWIDTH 400 0
DWIDTH 24 0
BBX 24 24 0 -2
BITMAP
000000
0FE3F0
0FC1F0
038040
038040
038040
038040
038040
038040
038040
038040
038040
038040
038040
038040
038040
0380C0
03C0C0
01E380
00FF00
003C00
000000
000000
000000
ENDCHAR
STARTCHAR C2456
ENCODING 9302
SWIDTH 400 0
DWIDTH 24 0
BBX 24 24 0 -2
BITMAP
000000
1F80F0
1F80F0
070060
070040
030040
0380C0
038080
038180
01C180
01C100
00C300
00E300
00E200
006200
007600
007400
003C00
003800
001800
001000
000000
000000
000000
ENDCHAR
STARTCHAR C2457
ENCODING 9303
SWIDTH 400 0
DWIDTH 24 0
BBX 24 24 0 -2
BITMAP
000000
7E7F3E
3E7E3C
381808
181C08
1C1C18
1C1E18
0C1E10
0E1E30
0E3E30
063620
072720
076760
036360
03C3C0
03C3C0
03C3C0
03C3C0
018380
018180
008100
000000
000000
000000
ENDCHAR
STARTCHAR C2458
ENCODING 9304
SWIDTH 400 0
DWIDTH 24 0
BBX 24 24 0 -2
BITMAP
000000
0FE3F0
0FC3F0
0381C0
018180
01C380
00E300
006300
007600
003E00
003C00
003C00
007E00
006700
00E700
00C380
01C180
0181C0
0300E0
0FC3F8
0FC3F8
000000
000000
000000
ENDCHAR
STARTCHAR C2459
ENCODING 9305
SWIDTH 400 0
DWIDTH 24 0
BBX 24 24 0 -2
BITMAP
000000
0FC1F8
0FC1F8
038060
018040
01C0C0
00E080
006100
007300
003300
003A00
001E00
001C00
001C00
001C00
001C00
001C00
001C00
001C00
00FF80
007F00
000000
000000
000000
ENDCHAR
STARTCHAR C245a
ENCODING 9306
SWIDTH 400 0
DWIDTH 24 0
BBX 24 24 0 -2
BITMAP
000000
03FFF0
03FFF0
0700E0
0600E0
0401C0
000380
000300
000600
000C00
001C00
001800
003800
007000
00E010
01C030
018030
038060
0700E0
0FFFE0
07FFC0
000000
000000
000000
ENDCHAR
STARTCHAR C245b
ENCODING 9307
SWIDTH 400 0
DWIDTH 24 0
BBX 24 24 0 -2
BITMAP
000000
000000
000000
000000
000000
000000
000000
000000
01FC00
030600
030300
030300
007F00
00E300
018300
030300
060300
060760
07FFC0
03F3C0
00C100
000000
000000
000000
ENDCHAR
STARTCHAR C245c
ENCODING 9308
SWIDTH 400 0
DWIDTH 24 0
BBX 24 24 0 -2
BITMAP
000000
00C000
07C000
00C000
00C000
00C000
00C000
00C000
00DF00
00FB80
00C0C0
00C0C0
00C060
00C060
00C060
00C060
00C0C0
00C0C0
00E180
01BF00
000E00
000000
000000
000000
ENDCHAR
STARTCHAR C245d
ENCODING 9309
SWIDTH 400 0
DWIDTH 24 0
BBX 24 24 0 -2
BITMAP
000000
000000
000000
000000
000000
000000
000000
000000
00FF00
01C380
0180C0
0301C0
030080
060000
060000
060000
070020
030040
01C180
00FF00
003E00
000000
000000
000000
ENDCHAR
STARTCHAR C245e
ENCODING 9310
SWIDTH 400 0
DWIDTH 24 0
BBX 24 24 0 -2
BITMAP
000000
000180
000380
000780
000180
000180
000180
000180
00F980
01C780
038380
030180
020180
060180
060180
060180
030180
030380
01C780
00FDC0
0030C0
000000
000000
000000
ENDCHAR
STARTCHAR C245f
ENCODING 9311
SWIDTH 400 0
DWIDTH 24 0
BBX 24 24 0 -2
BITMAP
000000
000000
000000
000000
000000
000000
000000
000000
00FF00
01C380
0181C0
0300C0
020060
07FFE0
060000
060000
070020
030040
01C1C0
00FF00
007E00
000000
000000
000000
ENDCHAR
STARTCHAR C2460
ENCODING 9312
SWIDTH 400 0
DWIDTH 24 0
BBX 24 24 0 -2
BITMAP
000000
000F00
001D80
0019C0
001980
001800
001800
003800
03FFC0
001800
001800
001800
001800
001800
001800
001800
001800
001800
003800
00FF00
00FE00
000000
000000
000000
ENDCHAR
STARTCHAR C2461
ENCODING 9313
SWIDTH 400 0
DWIDTH 24 0
BBX 24 24 0 -2
BITMAP
000000
000000
000000
000000
000000
000000
000000
000000
00FCE0
01C760
018320
038300
038300
018300
00FE00
00F800
018000
01FC00
01FF00
038380
0601C0
070180
038300
00FE00
ENDCHAR
STARTCHAR C2462
ENCODING 9314
SWIDTH 400 0
DWIDTH 24 0
BBX 24 24 0 -2
BITMAP
000000
008000
078000
018000
018000
018000
018000
018000
01BE00
01E300
01C180
018180
018180
018180
018180
018180
018180
018180
018180
07E7E0
03C3C0
000000
000000
000000
ENDCHAR
STARTCHAR C2463
ENCODING 9315
SWIDTH 400 0
DWIDTH 24 0
BBX 24 24 0 -2
BITMAP
000000
000000
001800
003800
003800
001000
000000
000000
003800
00F800
001800
001800
001800
001800
001800
001800
001800
001800
003800
00FE00
007E00
000000
000000
000000
ENDCHAR
STARTCHAR C2464
ENCODING 9316
SWIDTH 400 0
DWIDTH 24 0
BBX 24 24 0 -2
BITMAP
000000
000000
000600
000F00
000700
000200
000000
000000
000600
001E00
000600
000600
000600
000600
000600
000600
000600
000600
000600
000600
030600
030E00
019C00
01F800
ENDCHAR
STARTCHAR C2465
ENCODING 9317
SWIDTH 400 0
DWIDTH 24 0
BBX 24 24 0 -2
BITMAP
000000
008000
078000
018000
018000
018000
018000
018000
0187E0
018100
018200
018400
018800
019800
01BC00
01CE00
018700
018380
0181C0
07E3E0
03C1E0
000000
000000
000000
ENDCHAR
STARTCHAR C2466
ENCODING 9318
SWIDTH 400 0
DWIDTH 24 0
BBX 24 24 0 -2
BITMAP
000000
000800
007800
007800
001800
001800
001800
001800
001800
001800
001800
001800
001800
001800
001800
001800
001800
001800
001C00
007F00
007E00
000000
000000
000000
ENDCHAR
STARTCHAR C2467
ENCODING 9319
SWIDTH 400 0
DWIDTH 24 0
BBX 24 24 0 -2
BITMAP
000000
000000
000000
000000
000000
000000
000000
000000
06E780
0F3CC0
0E1860
061860
061860
061860
061860
061860
061860
061860
061860
0E38E0
0E38E0
000000
000000
000000
ENDCHAR
STARTCHAR C2468
ENCODING 9320
SWIDTH 400 0
DWIDTH 24 0
BBX 24 24 0 -2
BITMAP
000000
000000
000000
000000
000000
000000
000000
000000
019F00
03E380
07C180
0181C0
0181C0
0181C0
0181C0
0181C0
0181C0
0181C0
0181C0
07E3E0
03C3E0
000000
000000
000000
ENDCHAR
STARTCHAR C2469
ENCODING 9321
SWIDTH 400 0
DWIDTH 24 0
BBX 24 24 0 -2
BITMAP
000000
000000
000000
000000
000000
000000
000000
000000
007E00
01C380
0381C0
0300C0
060060
060060
060060
060060
0300C0
0300C0
01C380
007E00
001800
000000
000000
000000
ENDCHAR
STARTCHAR C246a
ENCODING 9322
SWIDTH 400 0
DWIDTH 24 0
BBX 24 24 0 -2
BITMAP
000000
000000
000000
000000
000000
000000
000000
000000
01BF00
07E380
018180
0180C0
0180C0
0180C0
0180C0
0180C0
018180
01E380
01BF00
018000
018000
018000
03C000
07F000
ENDCHAR
STARTCHAR C246b
ENCODING 9323
SWIDTH 400 0
DWIDTH 24 0
BBX 24 24 0 -2
BITMAP
000000
000000
000000
000000
000000
000000
000000
000000
00FF00
01C700
030300
070300
060300
060300
060300
070300
030300
01C700
00FB00
000300
000300
000300
000380
000FE0
ENDCHAR
STARTCHAR C246c
ENCODING 9324
SWIDTH 400 0
DWIDTH 24 0
BBX 24 24 0 -2
BITMAP
000000
000000
000000
000000
000000
000000
000000
000000
006780
01EFC0
007860
007000
006000
006000
006000
006000
006000
006000
006000
01F800
01F800
000000
000000
000000
ENDCHAR
STARTCHAR C246d
ENCODING 9325
SWIDTH 400 0
DWIDTH 24 0
BBX 24 24 0 -2
BITMAP
000000
000000
000000
000000
000000
000000
000000
000000
00FF40
01C3C0
0300C0
030040
018000
00F000
003F00
000780
0601C0
0700C0
07C1C0
06FF80
003E00
000000
000000
000000
ENDCHAR
STARTCHAR C246e
ENCODING 9326
SWIDTH 400 0
DWIDTH 24 0
BBX 24 24 0 -2
BITMAP
000000
002000
003000
007000
007000
007000
007000
007000
03FE00
007000
007000
007000
007000
007000
007000
007000
007000
007080
007300
003E00
001800
000000
000000
000000
ENDCHAR
STARTCHAR C246f
ENCODING 9327
SWIDTH 400 0
DWIDTH 24 0
BBX 24 24 0 -2
BITMAP
000000
000000
000000
000000
000000
000000
000000
000000
038380
038380
018180
018180
018180
018180
018180
018180
018180
018380
01C780
00FDC0
0030C0
000000
000000
000000
ENDCHAR
STARTCHAR C2470
ENCODING 9328
SWIDTH 400 0
DWIDTH 24 0
BBX 24 24 0 -2
BITMAP
000000
000000
000000
000000
000000
000000
000000
000000
07C3E0
0300C0
018080
018180
00C100
00C300
00C200
006600
006C00
007800
003800
001000
001000
000000
000000
000000
ENDCHAR
STARTCHAR C2471
ENCODING 9329
SWIDTH 400 0
DWIDTH 24 0
BBX 24 24 0 -2
BITMAP
000000
000000
000000
000000
000000
000000
000000
000000
1E3E78
0C1830
060820
061C20
061C60
031460
033640
03B6C0
01A280
01E380
00C380
00C100
000100
000000
000000
000000
ENDCHAR
STARTCHAR C2472
ENCODING 9330
SWIDTH 400 0
DWIDTH 24 0
BBX 24 24 0 -2
BITMAP
000000
000000
000000
000000
000000
000000
000000
000000
07C1E0
0180C0
00C180
006300
003600
001C00
001C00
003600
006300
00C180
0180C0
07C1F0
0381E0
000000
000000
000000
ENDCHAR
STARTCHAR C2473
ENCODING 9331
SWIDTH 400 0
DWIDTH 24 0
BBX 24 24 0 -2
BITMAP
000000
000000
000000
000000
000000
000000
000000
000000
07F3E0
01C180
00C180
00C100
006300
006300
003200
003600
001C00
001C00
001C00
001800
031800
07B000
077000
03E000
ENDCHAR
STARTCHAR C2474
ENCODING 9332
SWIDTH 400 0
DWIDTH 24 0
BBX 24 24 0 -2
BITMAP
000000
000000
000000
000000
000000
000000
000000
000000
00FFC0
01C180
018300
000600
000C00
001800
003000
006000
00C000
018080
030180
07FF00
03FF00
000000
000000
000000
ENDCHAR
STARTCHAR C2475
ENCODING 9333
SWIDTH 400 0
DWIDTH 24 0
BBX 24 24 0 -2
BITMAP
000000
001C00
001C00
003E00
003600
006700
006700
004300
00C380
00C380
018180
01FFC0
03FFC0
0300C0
0200E0
0600E0
060060
040070
0C0070
3F01FC
1F01F8
000000
000000
000000
ENDCHAR
STARTCHAR C2476
ENCODING 9334
SWIDTH 400 0
DWIDTH 24 0
BBX 24 24 0 -2
BITMAP
000000
0FFE00
0FFF80
0380C0
038060
038070
038070
038060
0380E0
0381C0
03FF80
03FFE0
038070
038030
038038
038038
038030
038070
0380E0
0FFFC0
0FFF00
000000
000000
000000
ENDCHAR
STARTCHAR C2477
ENCODING 9335
SWIDTH 400 0
DWIDTH 24 0
BBX 24 24 0 -2
BITMAP
000000
0FFFE0
0FFFE0
038070
038030
038018
038000
038000
038000
038000
038000
038000
038000
038000
038000
038000
038000
038000
03C000
0FF000
0FF000
000000
000000
000000
ENDCHAR
STARTCHAR C2478
ENCODING 9336
SWIDTH 400 0
DWIDTH 24 0
BBX 24 24 0 -2
BITMAP
000000
001800
001800
001800
003800
003C00
006E00
004600
00C700
00C700
008300
018380
0301C0
0201C0
0600E0
0600E0
040060
0C0070
180038
1FFFF8
1FFFF8
000000
000000
000000
ENDCHAR
STARTCHAR C2479
ENCODING 9337
SWIDTH 400 0
DWIDTH 24 0
BBX 24 24 0 -2
BITMAP
000000
0FFFF0
0FFFF0
038038
038018
038018
038000
038100
038100
038100
03FF00
03FF00
038100
038100
038100
038018
038018
038038
038038
0FFFF0
0FFFE0
000000
000000
000000
ENDCHAR
STARTCHAR C247a
ENCODING 9338
SWIDTH 400 0
DWIDTH 24 0
BBX 24 24 0 -2
BITMAP
000000
03FFF0
03FFF0
0700E0
0600E0
0401C0
000380
000300
000600
000C00
001C00
001800
003800
007000
00E010
01C030
018030
038060
0700E0
0FFFE0
07FFC0
000000
000000
000000
ENDCHAR
STARTCHAR C247b
ENCODING 9339
SWIDTH 400 0
DWIDTH 24 0
BBX 24 24 0 -2
BITMAP
000000
0FC3F0
0F81F0
0700E0
0700E0
0700E0
0700E0
0700E0
0700E0
0700E0
07FFE0
07FFE0
0700E0
0700E0
0700E0
0700E0
0700E0
0700E0
0700E0
0FC3F0
0F81F0
000000
000000
000000
ENDCHAR
STARTCHAR C247c
ENCODING 9340
SWIDTH 400 0
DWIDTH 24 0
BBX 24 24 0 -2
BITMAP
000000
007E00
01FF80
0300C0
060060
060060
0E0070
0C8130
1C8138
1CFF38
1CFF38
1CFF38
1C8138
0C8130
0C8130
0E0070
060060
0300C0
018180
00FF00
003C00
000000
000000
000000
ENDCHAR
STARTCHAR C247d
ENCODING 9341
SWIDTH 400 0
DWIDTH 24 0
BBX 24 24 0 -2
BITMAP
000000
00FF00
00FF00
001800
001800
001800
001800
001800
001800
001800
001800
001800
001800
001800
001800
001800
001800
001800
003C00
00FF00
00FF00
000000
000000
000000
ENDCHAR
STARTCHAR C247e
ENCODING 9342
SWIDTH 400 0
DWIDTH 24 0
BBX 24 24 0 -2
BITMAP
000000
0FC0F0
0F80F0
0700C0
070180
070300
070600
070C00
071C00
073C00
076E00
07C600
078700
070300
070380
070180
0701C0
0701C0
0700E0
0FC3F0
0F81F0
000000
000000
000000
ENDCHAR
STARTCHAR C2521
ENCODING 9505
SWIDTH 400 0
DWIDTH 24 0
BBX 24 24 0 -2
BITMAP
000000
001C00
001C00
003E00
003600
006700
006700
004300
00C380
00C380
018180
0181C0
0301C0
0300C0
0200E0
0600E0
060060
040070
0C0070
3F01FC
1F01F8
000000
000000
000000
ENDCHAR
STARTCHAR C2522
ENCODING 9506
SWIDTH 400 0
DWIDTH 24 0
BBX 24 24 0 -2
BITMAP
000000
3C007C
1E00F8
0E00F0
0F01F0
0F01F0
0F8170
0D8370
0DC370
0CC270
0CC270
0CE670
0C6470
0C6C70
0C7870
0C3870
0C1870
0C1070
0C1070
3E00FC
1E00F8
000000
000000
000000
ENDCHAR
STARTCHAR C2523
ENCODING 9507
SWIDTH 400 0
DWIDTH 24 0
BBX 24 24 0 -2
BITMAP
000000
0F01F8
0F01F8
078060
078060
06C060
06E060
066060
067060
063060
061860
061C60
060E60
060660
060760
0603E0
0601E0
0601E0
0600E0
1F8060
1F8000
000000
000000
000000
ENDCHAR
STARTCHAR C2524
ENCODING 9508
SWIDTH 400 0
DWIDTH 24 0
BBX 24 24 0 -2
BITMAP
000000
0FFFF0
1FFFF8
1FFFF8
180018
180018
000000
000000
060060
07FFE0
07FFE0
07FFE0
060060
060060
000000
000000
180018
180018
1FFFF8
1FFFF8
0FFFF0
000000
000000
000000
ENDCHAR
STARTCHAR C2525
ENCODING 9509
SWIDTH 400 0
DWIDTH 24 0
BBX 24 24 0 -2
BITMAP
000000
007E00
01FF80
0300C0
060060
060060
0E0070
0E0070
1C0038
1C0038
1C0038
1C0038
1C0038
0C0030
0E0070
0E0070
060060
0300C0
018180
00FF00
003C00
000000
000000
000000
ENDCHAR
STARTCHAR C2526
ENCODING 9510
SWIDTH 400 0
DWIDTH 24 0
BBX 24 24 0 -2
BITMAP
000000
0FFFF0
0FFFF0
0381C0
0381C0
0381C0
0381C0
0381C0
0381C0
0381C0
0381C0
0381C0
0381C0
0381C0
0381C0
0381C0
0381C0
0381C0
0381C0
0FC3F0
0FC3F0
000000
000000
000000
ENDCHAR
STARTCHAR C2527
ENCODING 9511
SWIDTH 400 0
DWIDTH 24 0
BBX 24 24 0 -2
BITMAP
000000
0FFF00
0FFFC0
0380F0
038070
038038
038038
038030
038070
0380E0
0383C0
03FF00
038000
038000
038000
038000
038000
038000
038000
0FE000
0FC000
000000
000000
000000
ENDCHAR
STARTCHAR C2528
ENCODING 9512
SWIDTH 400 0
DWIDTH 24 0
BBX 24 24 0 -2
BITMAP
000000
0FFFF0
07FFF8
038018
01C018
00E008
007000
003800
001C00
000E00
000700
000600
000C00
001800
003000
006018
00C018
018038
07FFF8
1FFFF8
1FFFF0
000000
000000
000000
ENDCHAR
STARTCHAR C2529
ENCODING 9513
SWIDTH 400 0
DWIDTH 24 0
BBX 24 24 0 -2
BITMAP
000000
0FFFF0
1FFFF8
181818
181818
101808
101808
001800
001800
001800
001800
001800
001800
001800
001800
001800
001800
001800
003C00
00FF00
007E00
000000
000000
000000
ENDCHAR
STARTCHAR C252a
ENCODING 9514
SWIDTH 400 0
DWIDTH 24 0
BBX 24 24 0 -2
BITMAP
000000
038000
07C0C0
0863F0
003630
003678
001C30
001800
001800
001800
001800
001800
001800
001800
001800
001800
001800
001800
001800
00FF00
007E00
000000
000000
000000
ENDCHAR
STARTCHAR C252b
ENCODING 9515
SWIDTH 400 0
DWIDTH 24 0
BBX 24 24 0 -2
BITMAP
000000
007E00
007E00
001800
001800
00FF00
03DBC0
0718E0
0E1870
1C1838
1C1838
1C1838
0E1870
0E1870
0718E0
01FF80
003C00
001800
001800
007E00
007E00
000000
000000
000000
ENDCHAR
STARTCHAR C252c
ENCODING 9516
SWIDTH 400 0
DWIDTH 24 0
BBX 24 24 0 -2
BITMAP
000000
0FE3F0
0FC3F0
0381C0
018180
01C380
00E300
006300
007600
003E00
003C00
003C00
007E00
006700
00E700
00C380
01C180
0181C0
0300E0
0FC3F8
0FC3F8
000000
000000
000000
ENDCHAR
STARTCHAR C252d
ENCODING 9517
SWIDTH 400 0
DWIDTH 24 0
BBX 24 24 0 -2
BITMAP
000000
007E00
007E00
1C1838
3C183C
36186C
061860
061860
061860
061860
061860
061860
0718E0
0318C0
0318C0
01FF80
00FF00
001800
003C00
00FF00
007E00
000000
000000
000000
ENDCHAR
STARTCHAR C252e
ENCODING 9518
SWIDTH 400 0
DWIDTH 24 0
BBX 24 24 0 -2
BITMAP
000000
007E00
01FF80
0380C0
060060
0C0070
1C0038
1C0038
1E0078
0E0070
060060
060060
0700E0
0300C0
010080
198198
18C318
184218
1FC3F8
1FC3F8
0FC3F0
000000
000000
000000
ENDCHAR
STARTCHAR C252f
ENCODING 9519
SWIDTH 400 0
DWIDTH 24 0
BBX 24 24 0 -2
BITMAP
000000
000000
000000
000000
000000
000000
000000
000000
003C40
006640
00C640
0186C0
038780
030700
070700
060640
060E40
071E40
03FFC0
03F780
00C200
000000
000000
000000
ENDCHAR
STARTCHAR C2530
ENCODING 9520
SWIDTH 400 0
DWIDTH 24 0
BBX 24 24 0 -2
BITMAP
000000
0003C0
000FE0
001860
001020
003020
006020
006060
0068C0
00DF80
00DF00
00C980
0180C0
0180C0
0380C0
0300C0
038180
03C180
067700
063E00
060800
060000
060000
060000
ENDCHAR
STARTCHAR C2531
ENCODING 9521
SWIDTH 400 0
DWIDTH 24 0
BBX 24 24 0 -2
BITMAP
000000
000000
000000
000000
000000
000000
000000
000000
01E0E0
03B1E0
031B80
021B00
021E00
000C00
001C00
001800
001800
003000
003000
006000
000000
000000
000000
000000
ENDCHAR
STARTCHAR C2532
ENCODING 9522
SWIDTH 400 0
DWIDTH 24 0
BBX 24 24 0 -2
BITMAP
000000
001800
007F00
006780
0041C0
0060C0
0030C0
001800
003C00
006600
00C200
018300
030300
020300
060300
060300
060200
030600
039C00
01F800
00F000
000000
000000
000000
ENDCHAR
STARTCHAR C2533
ENCODING 9523
SWIDTH 400 0
DWIDTH 24 0
BBX 24 24 0 -2
BITMAP
000000
000000
000000
000000
000000
000000
000000
000000
00FF80
01E3C0
01C0C0
018000
00C700
007F00
019E00
030000
060020
0700C0
03FF80
00FE00
003800
000000
000000
000000
ENDCHAR
STARTCHAR C2534
ENCODING 9524
SWIDTH 400 0
DWIDTH 24 0
BBX 24 24 0 -2
BITMAP
000000
006000
00E000
00C1C0
00C380
00DF00
007C00
001800
003000
00C000
018000
030000
030000
060000
060000
070000
03C000
00F800
00BC00
01CC00
038E00
038C00
019800
00F000
ENDCHAR
STARTCHAR C2535
ENCODING 9525
SWIDTH 400 0
DWIDTH 24 0
BBX 24 24 0 -2
BITMAP
000000
000000
000000
000000
000000
000000
000000
000000
03CF80
06D8C0
00F0C0
00E0C0
00C180
00C180
018380
018300
018300
038300
038700
030600
000600
000E00
000E00
000C00
ENDCHAR
STARTCHAR C2536
ENCODING 9526
SWIDTH 400 0
DWIDTH 24 0
BBX 24 24 0 -2
BITMAP
000000
000FC0
003860
007070
00C030
01C030
018030
030030
030070
070060
07FFE0
060060
060060
0600C0
0600C0
060180
060380
060300
070600
03DC00
00F000
000000
000000
000000
ENDCHAR
STARTCHAR C2537
ENCODING 9527
SWIDTH 400 0
DWIDTH 24 0
BBX 24 24 0 -2
BITMAP
000000
000000
000000
000000
000000
000000
000000
000000
001C00
001800
001800
003000
007000
006000
00E000
00C000
00C100
00C200
00FE00
007800
001000
000000
000000
000000
ENDCHAR
STARTCHAR C2538
ENCODING 9528
SWIDTH 400 0
DWIDTH 24 0
BBX 24 24 0 -2
BITMAP
000000
000000
000000
000000
000000
000000
000000
000000
00E0C0
00E180
00C700
00DC00
01F000
01F800
018C00
038C00
030C20
030C60
030CC0
0707C0
020300
000000
000000
000000
ENDCHAR
STARTCHAR C2539
ENCODING 9529
SWIDTH 400 0
DWIDTH 24 0
BBX 24 24 0 -2
BITMAP
000000
007800
00FC00
006600
000200
000200
000600
000600
000E00
000E00
000E00
001A00
003A00
003200
007200
006200
00C300
01C340
0383E0
0701E0
020040
000000
000000
000000
ENDCHAR
STARTCHAR C253a
ENCODING 9530
SWIDTH 400 0
DWIDTH 24 0
BBX 24 24 0 -2
BITMAP
000000
000000
000000
000000
000000
000000
000000
000000
003040
007040
006040
0060C0
00C0C0
00C080
00C180
01C100
018100
01C360
03C7E0
037D80
061000
060000
060000
040000
ENDCHAR
STARTCHAR C253b
ENCODING 9531
SWIDTH 400 0
DWIDTH 24 0
BBX 24 24 0 -2
BITMAP
000000
000000
000000
000000
000000
000000
000000
000000
038000
038040
0180C0
018080
018180
010300
030600
030C00
021800
023000
02E000
078000
020000
000000
000000
000000
ENDCHAR
STARTCHAR C253c
ENCODING 9532
SWIDTH 400 0
DWIDTH 24 0
BBX 24 24 0 -2
BITMAP
000000
000C00
003000
007040
0071E0
007FC0
001C00
007000
00E000
00C000
006000
0033C0
003F80
00E000
018000
030000
060000
038000
01F800
00FE00
000600
030600
03DE00
00F800
ENDCHAR
STARTCHAR C253d
ENCODING 9533
SWIDTH 400 0
DWIDTH 24 0
BBX 24 24 0 -2
BITMAP
000000
000000
000000
000000
000000
000000
000000
000000
003F00
006180
00C0C0
0180C0
0380C0
0300C0
0700C0
060180
060180
030300
038E00
01FC00
007000
000000
000000
000000
ENDCHAR
STARTCHAR C253e
ENCODING 9534
SWIDTH 400 0
DWIDTH 24 0
BBX 24 24 0 -2
BITMAP
000000
000000
000000
000000
000000
000000
000000
000000
01FFC0
03FF80
006200
006200
004600
00C400
008C00
018800
018800
039900
031F00
071E00
020800
000000
000000
000000
ENDCHAR
STARTCHAR C253f
ENCODING 9535
SWIDTH 400 0
DWIDTH 24 0
BBX 24 24 0 -2
BITMAP
000000
000000
000000
000000
000000
000000
000000
000000
001F00
003B80
006180
00C0C0
00C0C0
00C0C0
0180C0
0181C0
03C180
034180
036300
027E00
061800
060000
060000
040000
ENDCHAR
STARTCHAR C2540
ENCODING 9536
SWIDTH 400 0
DWIDTH 24 0
BBX 24 24 0 -2
BITMAP
000000
000000
000000
000000
000000
000000
000000
000000
007FE0
00C300
018180
0180C0
0300C0
0300C0
0601C0
060180
060300
020600
031C00
01F800
00C000
000000
000000
000000
ENDCHAR
STARTCHAR C2541
ENCODING 9537
SWIDTH 400 0
DWIDTH 24 0
BBX 24 24 0 -2
BITMAP
000000
000000
000000
000000
000000
000000
000000
000000
01FFC0
030FC0
041800
003000
006000
006000
00C000
00C100
00C300
00C600
00FC00
007800
003000
000000
000000
000000
ENDCHAR
STARTCHAR C2542
ENCODING 9538
SWIDTH 400 0
DWIDTH 24 0
BBX 24 24 0 -2
BITMAP
000000
000000
000000
000000
000000
000000
000000
000000
038380
038180
0181C0
0181C0
018180
010180
030100
020300
020300
020600
031C00
01F000
00C000
000000
000000
000000
ENDCHAR
STARTCHAR C2543
ENCODING 9539
SWIDTH 400 0
DWIDTH 24 0
BBX 24 24 0 -2
BITMAP
000000
000000
000000
000300
000300
000600
000600
000E00
00FF00
01C980
0388C0
0318C0
0718C0
0610C0
0610C0
0631C0
033180
033380
01EF00
00F800
006000
006000
00C000
00C000
ENDCHAR
STARTCHAR C2544
ENCODING 9540
SWIDTH 400 0
DWIDTH 24 0
BBX 24 24 0 -2
BITMAP
000000
000000
000000
000000
000000
01E000
03F030
023070
003060
0030E0
0019C0
001B80
001B00
001F00
001E00
003C00
003800
007800
00EC00
01CC00
038E20
030660
0707C0
060380
ENDCHAR
STARTCHAR C2545
ENCODING 9541
SWIDTH 400 0
DWIDTH 24 0
BBX 24 24 0 -2
BITMAP
000000
000000
000000
000300
000300
000600
000600
000C00
00CD80
018CC0
0308C0
071840
061840
061840
0610C0
0630C0
073180
033380
01FF00
00F800
006000
006000
00C000
00C000
ENDCHAR
STARTCHAR C2546
ENCODING 9542
SWIDTH 400 0
DWIDTH 24 0
BBX 24 24 0 -2
BITMAP
000000
000000
000000
000000
000000
000000
000000
000000
00C080
018040
038060
070820
061830
061830
0C1830
0C3860
0C3060
0E38C0
0759C0
03CF80
018600
000000
000000
000000
ENDCHAR
STARTCHAR C2547
ENCODING 9543
SWIDTH 400 0
DWIDTH 24 0
BBX 24 24 0 -2
BITMAP
000000
000000
00E000
006000
006000
00C000
00C000
00C000
018F80
01F9C0
0001C0
0001C0
0001C0
0001C0
000180
000180
000180
000380
001F00
000F00
000200
000000
000000
000000
ENDCHAR
STARTCHAR C2548
ENCODING 9544
SWIDTH 400 0
DWIDTH 24 0
BBX 24 24 0 -2
BITMAP
000000
000000
006000
006000
00C000
00C000
01FF80
000180
008380
00C300
004300
006600
003C00
001C00
001C00
003C00
007600
00E700
00C380
018180
000000
000000
000000
000000
ENDCHAR
STARTCHAR C2549
ENCODING 9545
SWIDTH 400 0
DWIDTH 24 0
BBX 24 24 0 -2
BITMAP
000000
000000
000000
03FF80
038180
038180
038180
038180
038180
038180
038180
038180
038180
038180
038180
038180
038180
038180
038180
010100
000000
000000
000000
000000
ENDCHAR
STARTCHAR C254a
ENCODING 9546
SWIDTH 400 0
DWIDTH 24 0
BBX 24 24 0 -2
BITMAP
000000
000000
010000
01FF00
018000
018000
018000
018000
018000
018000
018000
018000
018000
018000
018000
018000
018000
018000
01FF00
00FF80
000000
000000
000000
000000
ENDCHAR
STARTCHAR C254b
ENCODING 9547
SWIDTH 400 0
DWIDTH 24 0
BBX 24 24 0 -2
BITMAP
000000
000000
00E000
006000
006000
00C000
00C000
00C180
01FF80
003180
003180
003180
007180
007380
006300
006300
00C300
00C300
019F00
010E00
000000
000000
000000
000000
ENDCHAR
STARTCHAR C254c
ENCODING 9548
SWIDTH 400 0
DWIDTH 24 0
BBX 24 24 0 -2
BITMAP
000000
000000
001800
001C00
001800
001800
001800
001D80
00FF80
001800
001800
003000
003000
007000
006200
006300
00C180
00C780
01FDC0
01C0C0
000000
000000
000000
000000
ENDCHAR
STARTCHAR C254d
ENCODING 9549
SWIDTH 400 0
DWIDTH 24 0
BBX 24 24 0 -2
BITMAP
000000
000000
000000
01FC00
000C00
000C00
001800
001800
001880
003F80
000180
000180
000180
000300
000300
000300
000300
000600
007E00
007C00
001000
000000
000000
000000
ENDCHAR
STARTCHAR C254e
ENCODING 9550
SWIDTH 400 0
DWIDTH 24 0
BBX 24 24 0 -2
BITMAP
000000
000000
00E600
006E00
006E00
00CC00
00CC00
00D800
019980
01FF80
001980
001980
003980
003180
003180
007180
006300
00C300
00DF00
018E00
000000
000000
000000
000000
ENDCHAR
STARTCHAR C254f
ENCODING 9551
SWIDTH 400 0
DWIDTH 24 0
BBX 24 24 0 -2
BITMAP
000000
000000
003180
003980
007300
006300
006700
00C600
00CE00
018C00
031800
031800
018C00
00CC00
00C600
00E600
006300
007300
003380
003180
000000
000000
000000
000000
ENDCHAR
STARTCHAR C2550
ENCODING 9552
SWIDTH 400 0
DWIDTH 24 0
BBX 24 24 0 -2
BITMAP
000000
000000
000100
03FF80
006000
006000
00C000
00C000
00C100
01FF80
000300
000300
000300
000300
000300
000300
000700
000600
003E00
001C00
000800
000000
000000
000000
ENDCHAR
STARTCHAR C2551
ENCODING 9553
SWIDTH 400 0
DWIDTH 24 0
BBX 24 24 0 -2
BITMAP
000000
000000
000080
00FF80
00C000
00C000
00C000
00C000
00C000
00C000
00C000
00C000
00C000
00C000
00C000
018000
018000
010000
030000
000000
000000
000000
000000
000000
ENDCHAR
STARTCHAR C2552
ENCODING 9554
SWIDTH 400 0
DWIDTH 24 0
BBX 24 24 0 -2
BITMAP
000000
000000
000100
018180
018180
018180
018180
018180
018180
018180
018180
018780
01F980
018180
000180
000180
000180
000180
000180
000180
000100
000000
000000
000000
ENDCHAR
STARTCHAR C2553
ENCODING 9555
SWIDTH 400 0
DWIDTH 24 0
BBX 24 24 0 -2
BITMAP
000000
000000
000600
000700
000E00
000C00
000C00
001800
001800
003000
006000
00C000
00C000
006000
003000
003000
001800
000C00
000600
000700
000200
000000
000000
000000
ENDCHAR
STARTCHAR C2554
ENCODING 9556
SWIDTH 400 0
DWIDTH 24 0
BBX 24 24 0 -2
BITMAP
000000
000000
000080
01FFC0
001C00
001800
001800
001800
001800
001800
001800
001800
001800
001800
001800
001800
001800
001800
001800
001800
000000
000000
000000
000000
ENDCHAR
STARTCHAR C2555
ENCODING 9557
SWIDTH 400 0
DWIDTH 24 0
BBX 24 24 0 -2
BITMAP
000000
000000
001000
001800
001800
039980
039980
039980
039980
039980
039980
039980
039980
03B980
03FF80
001800
001800
001800
001800
003980
01FF80
000000
000000
000000
ENDCHAR
STARTCHAR C2556
ENCODING 9558
SWIDTH 400 0
DWIDTH 24 0
BBX 24 24 0 -2
BITMAP
000000
000000
001800
001C00
001800
003300
006380
00C700
018600
000C00
001800
003800
007800
00D800
011800
021800
001800
001800
001800
001800
000000
000000
000000
000000
ENDCHAR
STARTCHAR C2557
ENCODING 9559
SWIDTH 400 0
DWIDTH 24 0
BBX 24 24 0 -2
BITMAP
000000
000000
000000
00FF80
000180
000180
000180
000180
000180
00FF80
00C100
00C000
00C000
00C000
008000
018000
018000
018000
010000
020000
000000
000000
000000
000000
ENDCHAR
STARTCHAR C2558
ENCODING 9560
SWIDTH 400 0
DWIDTH 24 0
BBX 24 24 0 -2
BITMAP
000000
000000
000000
01FF80
018180
018180
018180
01A180
01B180
019180
019980
019980
018D80
018D80
018F80
018580
018180
018180
01FF80
018180
000100
000000
000000
000000
ENDCHAR
STARTCHAR C2559
ENCODING 9561
SWIDTH 400 0
DWIDTH 24 0
BBX 24 24 0 -2
BITMAP
000000
000000
000000
01FF80
00E180
00C180
00C180
00C180
00C180
00C180
00C180
00C380
00DF00
00C300
00C000
00C000
00C000
00C000
00C000
00C000
000000
000000
000000
000000
ENDCHAR
STARTCHAR C255a
ENCODING 9562
SWIDTH 400 0
DWIDTH 24 0
BBX 24 24 0 -2
BITMAP
000000
000000
002000
007000
007000
007000
007180
03FF80
006000
006000
006100
00FF80
00C300
000300
000300
000300
000300
000600
000C00
000800
000000
000000
000000
000000
ENDCHAR
STARTCHAR C255b
ENCODING 9563
SWIDTH 400 0
DWIDTH 24 0
BBX 24 24 0 -2
BITMAP
000000
000000
000C00
000C00
000C00
001800
001800
001800
003000
003000
007000
006400
006200
00C300
00C100
00C180
00C180
01FFC0
01F1C0
000080
000000
000000
000000
000000
ENDCHAR
STARTCHAR C255c
ENCODING 9564
SWIDTH 400 0
DWIDTH 24 0
BBX 24 24 0 -2
BITMAP
000000
000000
010080
018180
008180
00C300
00E700
006E00
003C00
001800
001800
001800
001800
001800
001800
001800
001800
001800
001800
001800
001000
000000
000000
000000
ENDCHAR
STARTCHAR C255d
ENCODING 9565
SWIDTH 400 0
DWIDTH 24 0
BBX 24 24 0 -2
BITMAP
000000
000000
000080
01FFC0
001C00
001800
001800
001800
001800
001800
007800
00F800
018000
018000
038000
038080
018080
018180
01C300
00FE00
003800
000000
000000
000000
ENDCHAR
STARTCHAR C255e
ENCODING 9566
SWIDTH 400 0
DWIDTH 24 0
BBX 24 24 0 -2
BITMAP
000000
000000
001C00
001800
001800
001880
01FF80
001800
001800
001800
007800
00F800
018000
018000
038000
038080
018080
018180
01C300
00FE00
003800
000000
000000
000000
ENDCHAR
STARTCHAR C255f
ENCODING 9567
SWIDTH 400 0
DWIDTH 24 0
BBX 24 24 0 -2
BITMAP
000000
000000
00C000
00E000
00C700
00C600
00C600
00C600
00C680
01FF80
00C600
00C600
00C600
00C600
00C600
00C400
00C000
00C000
00C000
00FF00
007F00
000000
000000
000000
ENDCHAR
STARTCHAR C2560
ENCODING 9568
SWIDTH 400 0
DWIDTH 24 0
BBX 24 24 0 -2
BITMAP
000000
000000
000000
03FF80
00EC00
00CC00
00D800
019800
019900
03FF80
003B00
003300
003300
007300
006300
006300
00C300
00C600
01BE00
011C00
000000
000000
000000
000000
ENDCHAR
STARTCHAR C2561
ENCODING 9569
SWIDTH 400 0
DWIDTH 24 0
BBX 24 24 0 -2
BITMAP
000000
000000
000800
001E00
001C00
003C00
006C00
00CC00
038C00
000C00
000E00
000E00
000600
000600
000600
000300
000300
000300
000380
000180
000080
000000
000000
000000
ENDCHAR
STARTCHAR C2562
ENCODING 9570
SWIDTH 400 0
DWIDTH 24 0
BBX 24 24 0 -2
BITMAP
000000
000000
002000
007000
006000
00E300
00C700
008600
018E00
018C00
00D800
007000
007000
006000
00C400
00C600
018300
018F80
03FB80
03C180
000000
000000
000000
000000
ENDCHAR
STARTCHAR C2563
ENCODING 9571
SWIDTH 400 0
DWIDTH 24 0
BBX 24 24 0 -2
BITMAP
000000
000000
000100
03FF80
000300
000300
008300
008300
00C300
006600
007600
003E00
001C00
001C00
003E00
007600
006300
00E300
01C380
038180
020000
000000
000000
000000
ENDCHAR
STARTCHAR C2564
ENCODING 9572
SWIDTH 400 0
DWIDTH 24 0
BBX 24 24 0 -2
BITMAP
000000
000000
000200
01FF00
00E700
00C300
00C600
00C600
018600
018E00
01FFC0
0001C0
0001C0
000180
000180
000180
000300
000300
000600
000C00
000800
000000
000000
000000
ENDCHAR
STARTCHAR C2565
ENCODING 9573
SWIDTH 400 0
DWIDTH 24 0
BBX 24 24 0 -2
BITMAP
000000
000000
00E000
00C000
00C000
00C000
00C000
018000
018000
038000
0380C0
01FFC0
0001C0
0001C0
000180
000180
000300
000300
000700
000C00
000800
000000
000000
000000
ENDCHAR
STARTCHAR C2566
ENCODING 9574
SWIDTH 400 0
DWIDTH 24 0
BBX 24 24 0 -2
BITMAP
000000
000000
001000
001800
001800
001800
001800
003980
01FF00
001800
003800
003C00
007C00
006C00
006C00
006C00
00CC00
00CC00
018C00
038F80
020700
000000
000000
000000
ENDCHAR
STARTCHAR C2567
ENCODING 9575
SWIDTH 400 0
DWIDTH 24 0
BBX 24 24 0 -2
BITMAP
000000
000000
001800
001800
001800
001800
003000
003000
003000
007000
006000
006000
00C000
00C000
00C000
008000
018000
018F80
03FF80
000000
000000
000000
000000
000000
ENDCHAR
STARTCHAR C2568
ENCODING 9576
SWIDTH 400 0
DWIDTH 24 0
BBX 24 24 0 -2
BITMAP
000000
000000
004400
006E00
006E00
006E00
006E00
006E00
006E00
006E00
006E00
006E00
00CE00
00CE00
00CE00
00CE00
00CE00
018E00
010F80
020780
000000
000000
000000
000000
ENDCHAR
STARTCHAR C2569
ENCODING 9577
SWIDTH 400 0
DWIDTH 24 0
BBX 24 24 0 -2
BITMAP
000000
000000
000000
000000
000000
000000
000000
000000
000080
01FFC0
01FF80
000000
000000
000000
000000
000000
000000
000000
000000
000000
000000
000000
000000
000000
ENDCHAR
STARTCHAR C256a
ENCODING 9578
SWIDTH 400 0
DWIDTH 24 0
BBX 24 24 0 -2
BITMAP
000000
000000
000300
000380
000300
018300
00C700
006600
006600
003E00
001C00
001C00
001E00
001E00
001B00
003380
003180
0061C0
00C1C0
0180C0
000000
000000
000000
000000
ENDCHAR
STARTCHAR C256b
ENCODING 9579
SWIDTH 400 0
DWIDTH 24 0
BBX 24 24 0 -2
BITMAP
000000
000000
010100
038180
038180
038180
038180
038180
038180
038180
038180
038180
038180
038180
038180
038180
038180
038180
03FF80
038180
000100
000000
000000
000000
ENDCHAR
STARTCHAR C256c
ENCODING 9580
SWIDTH 400 0
DWIDTH 24 0
BBX 24 24 0 -2
BITMAP
000000
000000
000000
000000
000000
000000
000000
000000
000000
001000
003800
007C00
003800
000000
000000
000000
000000
000000
000000
000000
000000
000000
000000
000000
ENDCHAR
STARTCHAR C256d
ENCODING 9581
SWIDTH 400 0
DWIDTH 24 0
BBX 24 24 0 -2
BITMAP
000000
000000
000000
000000
000000
000000
000000
000000
000000
000000
000000
000000
000000
000000
000000
000000
000000
000000
000000
000000
000000
000000
000000
000000
ENDCHAR
STARTCHAR C256e
ENCODING 9582
SWIDTH 400 0
DWIDTH 24 0
BBX 24 24 0 -2
BITMAP
000000
000000
000000
000000
000000
000100
000300
000600
000600
000C00
001800
001800
003000
007000
00E000
01C000
008000
000000
000000
000000
000000
000000
000000
000000
ENDCHAR
STARTCHAR C256f
ENCODING 9583
SWIDTH 400 0
DWIDTH 24 0
BBX 24 24 0 -2
BITMAP
000000
000000
000000
000000
000000
000080
000180
000100
000100
000300
000300
010200
018600
008C00
00CC00
007800
007000
000000
000000
000000
000000
000000
000000
000000
ENDCHAR
STARTCHAR C2570
ENCODING 9584
SWIDTH 400 0
DWIDTH 24 0
BBX 24 24 0 -2
BITMAP
000000
000000
000000
000000
000000
01C000
00C000
006000
006000
003000
001800
001800
000C00
000600
000600
000300
000100
000000
000000
000000
000000
000000
000000
000000
ENDCHAR
STARTCHAR C2621
ENCODING 9761
SWIDTH 400 0
DWIDTH 24 0
BBX 24 24 0 -2
BITMAP
000000
007E00
03FFC0
0700E0
0C1830
183818
18F818
30180C
30180C
30180C
30180C
30180C
30180C
30180C
30180C
30180C
183C18
18FF18
0E0030
0780E0
01FFC0
007E00
000000
000000
ENDCHAR
STARTCHAR C2622
ENCODING 9762
SWIDTH 400 0
DWIDTH 24 0
BBX 24 24 0 -2
BITMAP
000000
007E00
03FFC0
0700E0
0C0030
187F18
18E398
31818C
31C1CC
30818C
30030C
30060C
300C0C
30180C
30304C
30E0CC
1981D8
19FFD8
0E0030
0780E0
01FFC0
007E00
000000
000000
ENDCHAR
STARTCHAR C2623
ENCODING 9763
SWIDTH 400 0
DWIDTH 24 0
BBX 24 24 0 -2
BITMAP
000000
007E00
03FFC0
0700E0
0C0030
187F18
18E398
31818C
31C1CC
30818C
30030C
301E0C
30038C
30018C
3181CC
3381CC
198198
18FF18
0E3C30
0780E0
01FFC0
007E00
000000
000000
ENDCHAR
STARTCHAR C2624
ENCODING 9764
SWIDTH 400 0
DWIDTH 24 0
BBX 24 24 0 -2
BITMAP
000000
007E00
03FFC0
0700E0
0C0230
180618
180E18
301E0C
30360C
30660C
30C60C
31860C
33060C
33FF8C
33FF8C
30060C
180618
181F98
0E0030
0780E0
01FFC0
007E00
000000
000000
ENDCHAR
STARTCHAR C2625
ENCODING 9765
SWIDTH 400 0
DWIDTH 24 0
BBX 24 24 0 -2
BITMAP
000000
007E00
03FFC0
0700E0
0C0030
19FF98
19FF18
31800C
31800C
31FE0C
31C30C
31818C
3001CC
3181CC
3381CC
33018C
198318
18FE18
0E3C30
0780E0
01FFC0
007E00
000000
000000
ENDCHAR
STARTCHAR C2626
ENCODING 9766
SWIDTH 400 0
DWIDTH 24 0
BBX 24 24 0 -2
BITMAP
000000
007E00
03FFC0
0700E0
0C0030
18FF18
19C398
31838C
33818C
33980C
33FE0C
33C38C
33818C
3381CC
3381CC
31818C
18C198
187F18
0E3C30
0780E0
01FFC0
007E00
000000
000000
ENDCHAR
STARTCHAR C2627
ENCODING 9767
SWIDTH 400 0
DWIDTH 24 0
BBX 24 24 0 -2
BITMAP
000000
007E00
03FFC0
0700E0
0C0030
19FF98
19FF98
33010C
33030C
32030C
30030C
30060C
30060C
300E0C
300C0C
300C0C
181818
181818
0E1830
0780E0
01FFC0
007E00
000000
000000
ENDCHAR
STARTCHAR C2628
ENCODING 9768
SWIDTH 400 0
DWIDTH 24 0
BBX 24 24 0 -2
BITMAP
000000
007E00
03FFC0
0700E0
0C3C30
18FF18
19C398
31818C
31818C
30C30C
307E0C
307E0C
30C38C
31818C
3381CC
3381CC
198198
18FF18
0E3C30
0780E0
01FFC0
007E00
000000
000000
ENDCHAR
STARTCHAR C2629
ENCODING 9769
SWIDTH 400 0
DWIDTH 24 0
BBX 24 24 0 -2
BITMAP
000000
007E00
03FFC0
0700E0
0C0030
18FF18
19C398
31818C
3381CC
3381CC
3181CC
31C3CC
30FFCC
3001CC
31C1CC
31C18C
198318
18FE18
0E3C30
0780E0
01FFC0
007E00
000000
000000
ENDCHAR
STARTCHAR C262a
ENCODING 9770
SWIDTH 400 0
DWIDTH 24 0
BBX 24 24 0 -2
BITMAP
000000
007E00
03FFC0
0700E0
0C0030
198F98
1B98D8
3198CC
3198CC
3198CC
3198CC
3198CC
3198CC
3198CC
3198CC
3198CC
1BCF98
1BC218
0E0030
0780E0
01FFC0
007E00
000000
000000
ENDCHAR
STARTCHAR C262b
ENCODING 9771
SWIDTH 400 0
DWIDTH 24 0
BBX 24 24 0 -2
BITMAP
000000
060060
0C0830
181818
30380C
30F80C
30180C
30180C
601806
601806
601806
601806
601806
601806
601806
30180C
30180C
30180C
383C1C
18FF18
0CFF30
060060
000000
000000
ENDCHAR
STARTCHAR C262c
ENCODING 9772
SWIDTH 400 0
DWIDTH 24 0
BBX 24 24 0 -2
BITMAP
000000
060060
0C3C30
187E18
30C30C
31818C
3381CC
3381CC
61C1C6
608186
600306
600606
600C06
601806
603006
30600C
30C04C
3180CC
39FFDC
19FFD8
0CFFB0
060060
000000
000000
ENDCHAR
STARTCHAR C262d
ENCODING 9773
SWIDTH 400 0
DWIDTH 24 0
BBX 24 24 0 -2
BITMAP
000000
060060
0C1C30
187E18
30C30C
31818C
31E1CC
30E1CC
604186
600386
600606
601F06
600786
600186
60C1C6
31C1CC
33C1CC
33818C
39C39C
18FF18
0C3C30
060060
000000
000000
ENDCHAR
STARTCHAR C262e
ENCODING 9774
SWIDTH 400 0
DWIDTH 24 0
BBX 24 24 0 -2
BITMAP
000000
060060
0C0430
180E18
300E0C
301E0C
303E0C
302E0C
606E06
604E06
60CE06
608E06
618E06
610E06
630E06
33FFCC
300E0C
300E0C
380E1C
181F18
0C1F30
060060
000000
000000
ENDCHAR
STARTCHAR C262f
ENCODING 9775
SWIDTH 400 0
DWIDTH 24 0
BBX 24 24 0 -2
BITMAP
000000
060060
0CFF30
18FF18
30800C
30800C
30800C
30800C
609C06
60FF06
60C306
608186
6001C6
6001C6
6181C6
33C1CC
31818C
31838C
38C31C
187E18
0C1830
060060
000000
000000
ENDCHAR
STARTCHAR C2630
ENCODING 9776
SWIDTH 400 0
DWIDTH 24 0
BBX 24 24 0 -2
BITMAP
000000
060060
0C3C30
187F18
30C18C
3181CC
31818C
31800C
638006
639806
63FE06
63C306
638186
638186
6381C6
3381CC
31818C
31818C
38C31C
187E18
0C3830
060060
000000
000000
ENDCHAR
STARTCHAR C2631
ENCODING 9777
SWIDTH 400 0
DWIDTH 24 0
BBX 24 24 0 -2
BITMAP
000000
060060
0DFFB0
1BFFD8
33818C
33018C
32030C
30030C
600306
600306
600606
600606
600606
600E06
600E06
300C0C
300C0C
300C0C
381C1C
181C18
0C0830
060060
000000
000000
ENDCHAR
STARTCHAR C2632
ENCODING 9778
SWIDTH 400 0
DWIDTH 24 0
BBX 24 24 0 -2
BITMAP
000000
060060
0C3830
18FE18
31830C
31818C
33818C
33818C
61C386
60F706
607C06
60FF06
61C386
618186
6381C6
3381CC
3381CC
31818C
39C39C
18FF18
0C3C30
060060
000000
000000
ENDCHAR
STARTCHAR C2633
ENCODING 9779
SWIDTH 400 0
DWIDTH 24 0
BBX 24 24 0 -2
BITMAP
000000
060060
0C3C30
187E18
30C30C
31818C
3381CC
3381CC
6381C6
6381C6
6181C6
61C3C6
60FFC6
6001C6
6001C6
3181CC
33C18C
31838C
39831C
18FE18
0C3830
060060
000000
000000
ENDCHAR
STARTCHAR C2634
ENCODING 9780
SWIDTH 400 0
DWIDTH 24 0
BBX 24 24 0 -2
BITMAP
000000
060060
0C8730
198F98
3398CC
3198EC
31986C
31986C
619866
619866
619866
619866
619866
619866
619866
31986C
31986C
3198CC
399CDC
1BCF98
0FC330
060060
000000
000000
ENDCHAR
STARTCHAR C2635
ENCODING 9781
SWIDTH 400 0
DWIDTH 24 0
BBX 24 24 0 -2
BITMAP
000000
000000
001800
003800
003800
001000
000000
000000
007800
003800
001800
001800
001800
001800
001800
001800
001800
001800
003800
00FE00
007E00
000000
000000
000000
ENDCHAR
STARTCHAR C2636
ENCODING 9782
SWIDTH 400 0
DWIDTH 24 0
BBX 24 24 0 -2
BITMAP
000000
000000
010080
0381C0
0381C0
010080
000000
000000
0783C0
0381C0
0381C0
0381C0
0381C0
0381C0
0381C0
0381C0
0381C0
0381C0
0381C0
0FE7F0
07C3E0
000000
000000
000000
ENDCHAR
STARTCHAR C2637
ENCODING 9783
SWIDTH 400 0
DWIDTH 24 0
BBX 24 24 0 -2
BITMAP
000000
000000
081810
1C3838
1C3838
081010
000000
000000
3C7878
1C3838
1C1838
1C1838
1C1838
1C1838
1C1838
1C1838
1C1838
1C1838
1C3838
7F7EFE
3E7E7C
000000
000000
000000
ENDCHAR
STARTCHAR C2638
ENCODING 9784
SWIDTH 400 0
DWIDTH 24 0
BBX 24 24 0 -2
BITMAP
000000
000000
0C0000
1E0000
0E0000
040000
000000
000000
1CF83C
0C3008
0C3018
0C1810
0C1830
0C0C60
0C0C40
0C0EC0
0C0680
0C0780
0C0300
3F0300
3F0000
000000
000000
000000
ENDCHAR
STARTCHAR C2639
ENCODING 9785
SWIDTH 400 0
DWIDTH 24 0
BBX 24 24 0 -2
BITMAP
000000
000000
000000
000000
000000
000000
000000
000000
07C3E0
0300C0
018080
018180
00C100
00C200
006600
006400
006C00
007800
003800
001000
001000
000000
000000
000000
ENDCHAR
STARTCHAR C263a
ENCODING 9786
SWIDTH 400 0
DWIDTH 24 0
BBX 24 24 0 -2
BITMAP
000000
000000
000010
000038
000038
000010
000000
000000
7C1E78
380C38
180838
1C1838
0C1838
063038
062038
066038
034038
03C038
038038
0180FE
00007C
000000
000000
000000
ENDCHAR
STARTCHAR C263b
ENCODING 9787
SWIDTH 400 0
DWIDTH 24 0
BBX 24 24 0 -2
BITMAP
000000
000000
00030C
00039C
00039C
000108
000000
000000
7CF73C
30631C
30630C
18430C
18430C
1CC30C
0C830C
0C830C
07830C
07830C
07030C
0207FE
0207FE
000000
000000
000000
ENDCHAR
STARTCHAR C263c
ENCODING 9788
SWIDTH 400 0
DWIDTH 24 0
BBX 24 24 0 -2
BITMAP
000000
000000
00088C
001DCC
0008CC
000000
000000
000000
7CD9DC
30C8CC
30C8CC
1888CC
1988CC
1D88CC
0D88CC
0F08CC
0F08CC
0608CC
0608CC
061DCC
001DCC
000000
000000
000000
ENDCHAR
STARTCHAR C263d
ENCODING 9789
SWIDTH 400 0
DWIDTH 24 0
BBX 24 24 0 -2
BITMAP
000000
000000
080000
1C0000
1C0000
080000
000000
000000
3CF07C
1C6030
1C3020
1C1840
1C0C80
1C0700
1C0300
1C0580
1C08C0
1C1060
1C2030
3EF07C
3E7038
000000
000000
000000
ENDCHAR
STARTCHAR C263e
ENCODING 9790
SWIDTH 400 0
DWIDTH 24 0
BBX 24 24 0 -2
BITMAP
000000
000000
000000
000000
000000
000000
000000
000000
07C1E0
0180C0
00C180
006300
003600
001C00
001C00
003600
006300
00C180
0180C0
07C1F0
0381E0
000000
000000
000000
ENDCHAR
STARTCHAR C2721
ENCODING 10017
SWIDTH 400 0
DWIDTH 24 0
BBX 24 24 0 -2
BITMAP
000000
000000
000000
000000
000000
000000
000000
000000
000000
000000
000004
00000E
FFFFFF
000000
000000
000000
000000
000000
000000
000000
000000
000000
000000
000000
ENDCHAR
STARTCHAR C2722
ENCODING 10018
SWIDTH 400 0
DWIDTH 24 0
BBX 24 24 0 -2
BITMAP
001800
001800
001800
001800
001800
001800
001800
001800
001800
001800
001800
001800
001800
001800
001800
001800
001800
001800
001800
001800
001800
001800
001800
001000
ENDCHAR
STARTCHAR C2723
ENCODING 10019
SWIDTH 400 0
DWIDTH 24 0
BBX 24 24 0 -2
BITMAP
000000
000000
000000
000000
000000
000000
000000
000000
018000
00E000
007000
003C00
001E00
000F00
000F00
000700
000300
000000
000000
000000
000000
000000
000000
000000
ENDCHAR
STARTCHAR C2724
ENCODING 10020
SWIDTH 400 0
DWIDTH 24 0
BBX 24 24 0 -2
BITMAP
000E00
000E00
000C00
000C00
000C00
000C00
000C00
000C00
000C00
000C00
000C00
001C00
001800
001800
001800
003800
003000
007000
006000
00C000
018000
030000
060000
0C0000
ENDCHAR
STARTCHAR C2725
ENCODING 10021
SWIDTH 400 0
DWIDTH 24 0
BBX 24 24 0 -2
BITMAP
000000
000060
1FFFF0
0001E0
000380
000E00
001C00
007800
00E000
01C000
038000
070000
0E0000
1C0000
380000
700001
600003
E00002
600006
700004
3E000E
1FFFFF
03FFFE
000000
ENDCHAR
STARTCHAR C2726
ENCODING 10022
SWIDTH 400 0
DWIDTH 24 0
BBX 24 24 0 -2
BITMAP
001C00
001C00
001800
001800
001800
001800
001800
001800
001800
001800
001800
001800
001800
001800
001800
001800
001800
001800
001800
001800
001800
03F800
00F800
007000
ENDCHAR
STARTCHAR C2727
ENCODING 10023
SWIDTH 400 0
DWIDTH 24 0
BBX 24 24 0 -2
BITMAP
000000
000000
000000
000018
3FFFFC
000000
000000
000000
000000
000000
000000
000000
000000
000000
000000
000000
000000
000004
00000E
FFFFFF
000000
000000
000000
000000
ENDCHAR
STARTCHAR C2728
ENCODING 10024
SWIDTH 400 0
DWIDTH 24 0
BBX 24 24 0 -2
BITMAP
000000
000000
000000
000000
000000
006000
003000
001800
001800
000800
000007
FFFFFF
000000
000000
000000
000000
000000
000000
000000
000000
000000
000000
000000
000000
ENDCHAR
STARTCHAR C2729
ENCODING 10025
SWIDTH 400 0
DWIDTH 24 0
BBX 24 24 0 -2
BITMAP
003800
003800
003000
003000
003000
003000
003000
003000
003800
007800
007800
006C00
006400
00C600
00C600
01C300
018300
030180
0300C0
060060
0C003C
18001F
30000E
600000
ENDCHAR
STARTCHAR C272a
ENCODING 10026
SWIDTH 400 0
DWIDTH 24 0
BBX 24 24 0 -2
BITMAP
0381C0
0381C0
038180
038180
038180
038180
038180
038180
038180
038180
038180
038180
038180
038180
030180
030180
030180
060180
060181
0C0181
0C0183
1801FF
3001FF
60007E
ENDCHAR
STARTCHAR C272b
ENCODING 10027
SWIDTH 400 0
DWIDTH 24 0
BBX 24 24 0 -2
BITMAP
00C000
006000
003000
003000
001800
001800
001800
001800
001C00
001E00
001E00
003600
007300
006300
00E180
00C1C0
0180C0
0180E0
030070
060038
0C003C
18001F
30000F
600000
ENDCHAR
STARTCHAR C272c
ENCODING 10028
SWIDTH 400 0
DWIDTH 24 0
BBX 24 24 0 -2
BITMAP
001800
000800
000C00
000C00
000400
000600
000600
03C600
038700
038300
030300
030300
060180
060180
0601C0
0E00C0
0C00E0
0C0060
180070
100038
30003E
60001F
C0000E
800004
ENDCHAR
STARTCHAR C272d
ENCODING 10029
SWIDTH 400 0
DWIDTH 24 0
BBX 24 24 0 -2
BITMAP
000000
60000C
7FFFFE
60000C
60000C
60000C
60000C
60000C
60000C
60000C
60000C
60000C
60000C
60000C
60000C
60000C
60000C
60000C
60000C
60000C
60000C
60007C
60003C
600008
ENDCHAR
STARTCHAR C272e
ENCODING 10030
SWIDTH 400 0
DWIDTH 24 0
BBX 24 24 0 -2
BITMAP
000000
000000
000000
000000
000000
000000
000000
000000
600006
7FFFFF
600006
C0000C
C00008
000000
000000
000000
000000
000000
000000
000000
000000
000000
000000
000000
ENDCHAR
STARTCHAR C272f
ENCODING 10031
SWIDTH 400 0
DWIDTH 24 0
BBX 24 24 0 -2
BITMAP
000000
010000
01C000
00E000
007100
003100
000300
000200
000600
000400
000C00
000800
001800
001800
003000
003000
007000
01E000
00E000
006000
007000
007000
007000
003000
ENDCHAR
STARTCHAR C2730
ENCODING 10032
SWIDTH 400 0
DWIDTH 24 0
BBX 24 24 0 -2
BITMAP
000000
0601C0
07FFC0
0601C0
0601C0
0601C0
0601C0
0601C0
0601C0
0601C0
0601C0
0601C0
0601C0
0601C0
0601C0
0601C0
0601C0
0C01C1
0C01C1
0C01C1
1801C3
1001FF
2000FF
40003E
ENDCHAR
STARTCHAR C2731
ENCODING 10033
SWIDTH 400 0
DWIDTH 24 0
BBX 24 24 0 -2
BITMAP
000000
000000
38000E
30000E
30000C
30000C
30000C
30000C
30000C
30000C
30000C
30000C
30000C
30000C
30000C
30000C
30000C
30000C
30000C
30000C
30000C
7FFFFC
00000C
000000
ENDCHAR
STARTCHAR C2732
ENCODING 10034
SWIDTH 400 0
DWIDTH 24 0
BBX 24 24 0 -2
BITMAP
000000
00000C
3FFFFE
00300E
00300C
00300C
00300C
00300C
00300C
00300C
00300C
00300C
00700C
00600C
00600C
00600C
00C00C
00C00C
01800C
03800C
07001C
0E07F8
1C00F0
700040
ENDCHAR
STARTCHAR C2733
ENCODING 10035
SWIDTH 400 0
DWIDTH 24 0
BBX 24 24 0 -2
BITMAP
003800
003800
003000
003000
003000
003008
3FFFFC
00301C
00300C
00300C
00300C
00700C
00700C
00600C
00600C
00C00C
00C00C
01800C
01801C
03001C
060018
0C0FF8
1801F0
600060
ENDCHAR
STARTCHAR C2734
ENCODING 10036
SWIDTH 400 0
DWIDTH 24 0
BBX 24 24 0 -2
BITMAP
070000
070000
060000
060000
060004
0FFFFE
1C0006
180006
300006
600006
C00006
800006
000006
000006
000006
000006
000006
000006
00000E
00000C
00001C
0003F8
0001F0
000060
ENDCHAR
STARTCHAR C2735
ENCODING 10037
SWIDTH 400 0
DWIDTH 24 0
BBX 24 24 0 -2
BITMAP
100000
1C0000
180000
180000
180000
180020
1801F0
1803C0
183E00
1BF000
1F0000
180000
180000
180000
180000
180000
180002
180002
180006
180004
18000C
1FFFFE
07FFFC
000000
ENDCHAR
STARTCHAR C2736
ENCODING 10038
SWIDTH 400 0
DWIDTH 24 0
BBX 24 24 0 -2
BITMAP
000000
000004
7FFFFE
600000
600000
600000
600000
600000
600000
600000
600000
600000
600000
600000
600000
600000
600000
600000
600000
600000
600002
7FFFFF
600000
000000
ENDCHAR
STARTCHAR C2737
ENCODING 10039
SWIDTH 400 0
DWIDTH 24 0
BBX 24 24 0 -2
BITMAP
000000
000006
FFFFFF
300000
300000
300000
300000
300000
300000
300000
300000
300000
300000
300000
300000
300000
300000
300000
300000
300000
3FFFFE
3FFFFF
000000
000000
ENDCHAR
STARTCHAR C2738
ENCODING 10040
SWIDTH 400 0
DWIDTH 24 0
BBX 24 24 0 -2
BITMAP
001800
001800
001800
001800
001800
001800
001800
001800
001800
001806
FFFFFF
001800
001800
001800
001800
001800
001800
001800
001800
001800
001800
001800
001800
001000
ENDCHAR
STARTCHAR C2739
ENCODING 10041
SWIDTH 400 0
DWIDTH 24 0
BBX 24 24 0 -2
BITMAP
007000
007000
007000
007000
007000
007000
007000
007800
007E00
007700
0073C0
0071E0
0070E0
007070
007030
007000
007000
007000
007000
007000
007000
007000
007000
006000
ENDCHAR
STARTCHAR C273a
ENCODING 10042
SWIDTH 400 0
DWIDTH 24 0
BBX 24 24 0 -2
BITMAP
0300C0
03FFE0
030060
030060
030060
030060
030060
030060
030060
030060
030060
030060
030060
030060
030060
030FE0
0303C0
030180
030000
030000
030000
030000
030000
030000
ENDCHAR
STARTCHAR C273b
ENCODING 10043
SWIDTH 400 0
DWIDTH 24 0
BBX 24 24 0 -2
BITMAP
000000
300007
3FFFFF
300000
300000
300000
300000
300000
300000
300000
300000
300000
300000
300000
300000
300000
300000
300000
300000
600000
600000
C00000
800000
000000
ENDCHAR
STARTCHAR C273c
ENCODING 10044
SWIDTH 400 0
DWIDTH 24 0
BBX 24 24 0 -2
BITMAP
000000
000000
000000
001C00
001C00
001800
001800
003800
003000
007000
006000
00E000
01C0C0
018060
030030
060038
0C0018
187FFC
3FF80C
1E000C
0C0004
000000
000000
000000
ENDCHAR
STARTCHAR C273d
ENCODING 10045
SWIDTH 400 0
DWIDTH 24 0
BBX 24 24 0 -2
BITMAP
000000
000038
1FFFF8
020030
020070
030060
0300E0
0100C0
0181C0
008180
00C300
004700
006600
003E00
003C00
003C00
007E00
00E700
01C380
0381E0
0700FC
0E007F
18000E
600004
ENDCHAR
STARTCHAR C273e
ENCODING 10046
SWIDTH 400 0
DWIDTH 24 0
BBX 24 24 0 -2
BITMAP
000000
000000
000000
180030
1FFFF0
1C0030
1C0030
1C0030
1C0030
1C0030
1C0030
1C0030
1C0030
1C0030
1C0030
1C0030
1C0030
1C0030
1FFFF0
1C0030
180020
000000
000000
000000
ENDCHAR
STARTCHAR C273f
ENCODING 10047
SWIDTH 400 0
DWIDTH 24 0
BBX 24 24 0 -2
BITMAP
200000
30000C
3FFFFE
30000C
30000C
30000C
30000C
30000C
30000C
30000C
30000C
30000C
30000C
30000C
30000C
30000C
30000C
30000C
30000C
30000C
30000C
3FFFFC
30000C
200000
ENDCHAR
STARTCHAR C2740
ENCODING 10048
SWIDTH 400 0
DWIDTH 24 0
BBX 24 24 0 -2
BITMAP
000000
001C00
001C00
001800
001800
001800
001800
001800
001800
00180C
3FFFFE
001800
001800
001800
001800
001800
001800
001800
001800
001800
001800
001806
FFFFFF
000000
ENDCHAR
STARTCHAR C2741
ENCODING 10049
SWIDTH 400 0
DWIDTH 24 0
BBX 24 24 0 -2
BITMAP
001000
001C00
001800
001800
001800
001800
001800
001800
001800
001806
FFFFFF
001800
001800
001800
001800
001800
001800
001800
001800
001800
001800
001818
3FFFFC
000000
ENDCHAR
STARTCHAR C2742
ENCODING 10050
SWIDTH 400 0
DWIDTH 24 0
BBX 24 24 0 -2
BITMAP
00E000
00E000
00C000
00C000
01C000
018040
33FFE0
1B80E0
0F00C0
0601C0
060180
0F0180
198300
30C300
606600
003C00
001C00
003E00
007700
00C3C0
0181F8
07007F
1C001E
700004
ENDCHAR
STARTCHAR C2743
ENCODING 10051
SWIDTH 400 0
DWIDTH 24 0
BBX 24 24 0 -2
BITMAP
007000
007000
007000
006000
006038
00FFFC
00C038
018038
018030
038030
066060
063860
0C18E0
1818C0
3009C0
200380
000700
000E00
001C00
007000
00E000
038000
1E0000
780000
ENDCHAR
STARTCHAR C2744
ENCODING 10052
SWIDTH 400 0
DWIDTH 24 0
BBX 24 24 0 -2
BITMAP
001800
001800
001800
001800
001800
001800
001806
7FFFFE
001800
003800
003800
003C00
007400
006600
006200
00C300
00C100
018180
0300C0
060070
0C003C
18001F
30000F
600004
ENDCHAR
STARTCHAR C2745
ENCODING 10053
SWIDTH 400 0
DWIDTH 24 0
BBX 24 24 0 -2
BITMAP
00C000
00C000
00C000
00C0E0
00C0E0
0180C2
FFFFFF
0180C0
0180C0
0380C0
0301C0
030180
060180
060300
0E0300
0FC700
007E00
001F00
001FC0
0071E0
00E070
038038
0E001C
70000C
ENDCHAR
STARTCHAR C2746
ENCODING 10054
SWIDTH 400 0
DWIDTH 24 0
BBX 24 24 0 -2
BITMAP
000000
000038
1FFFF8
0000F0
0001C0
000300
000E00
001800
001800
001800
001800
001806
FFFFFF
001800
001800
001800
001800
001800
001800
001800
001800
01F800
007800
003000
ENDCHAR
STARTCHAR C2747
ENCODING 10055
SWIDTH 400 0
DWIDTH 24 0
BBX 24 24 0 -2
BITMAP
000000
000000
000000
000000
000000
004000
003000
001800
201802
3FFFFF
600007
E00006
C0000C
000000
000000
000000
000000
000000
000000
000000
000000
000000
000000
000000
ENDCHAR
STARTCHAR C2748
ENCODING 10056
SWIDTH 400 0
DWIDTH 24 0
BBX 24 24 0 -2
BITMAP
0001C0
0001C0
0001C0
0001C0
0001C0
0001C2
7FFFFF
0001C0
0001C0
0001C0
0601C0
0301C0
0181C0
01C1C0
00C1C0
00C1C0
0001C0
0001C0
0001C0
0001C0
0001C0
001FC0
000F80
000300
ENDCHAR
STARTCHAR C2749
ENCODING 10057
SWIDTH 400 0
DWIDTH 24 0
BBX 24 24 0 -2
BITMAP
001C00
001C00
001800
001800
001800
001800
041800
071840
061820
0E1810
0C1818
0C180C
18180E
181806
301807
301803
601803
C01801
001800
001800
001800
03F800
00F800
007000
ENDCHAR
STARTCHAR C274a
ENCODING 10058
SWIDTH 400 0
DWIDTH 24 0
BBX 24 24 0 -2
BITMAP
003800
003800
003000
003000
003000
003004
7FFFFE
003000
003000
003E00
003E00
007E00
006E00
006E00
00EE00
00CE00
00CE00
018E00
030E01
060E01
0C0E03
180FFF
3007FF
6003FE
ENDCHAR
STARTCHAR C274b
ENCODING 10059
SWIDTH 400 0
DWIDTH 24 0
BBX 24 24 0 -2
BITMAP
000008
1C001C
1FFFFC
1C000C
1C000C
1C000C
1C000C
1C000C
1C000C
1FFFFC
1C0008
1C0000
1C0000
1C0000
1C0000
1C0000
180000
180000
180000
300000
300000
600000
600000
C00000
ENDCHAR
STARTCHAR C274c
ENCODING 10060
SWIDTH 400 0
DWIDTH 24 0
BBX 24 24 0 -2
BITMAP
001800
001800
001800
38181C
38181C
301818
301818
301818
301818
301818
301818
301818
3FFFF8
303818
001800
001800
001800
001800
001800
001800
001800
001800
001800
001000
ENDCHAR
STARTCHAR C274d
ENCODING 10061
SWIDTH 400 0
DWIDTH 24 0
BBX 24 24 0 -2
BITMAP
001800
001800
001800
001800
001800
001800
201808
38180E
30180C
30180C
30180C
30180C
30180C
30180C
30180C
30180C
30180C
30180C
30180C
30180C
30180C
7FFFFC
000008
000000
ENDCHAR
STARTCHAR C274e
ENCODING 10062
SWIDTH 400 0
DWIDTH 24 0
BBX 24 24 0 -2
BITMAP
000000
000000
000000
000000
060408
070E0E
060C1C
060C18
0C1838
1C1830
183060
3060C0
60E0C0
387060
1C3830
0E1C18
060E1C
070E0C
03060C
000000
000000
000000
000000
000000
ENDCHAR
STARTCHAR C274f
ENCODING 10063
SWIDTH 400 0
DWIDTH 24 0
BBX 24 24 0 -2
BITMAP
000000
000000
000008
3FFFFC
003800
001800
001800
001800
001800
001800
001800
001800
001800
001800
001800
001800
001800
001800
001800
001804
00180E
FFFFFF
000000
000000
ENDCHAR
STARTCHAR C2750
ENCODING 10064
SWIDTH 400 0
DWIDTH 24 0
BBX 24 24 0 -2
BITMAP
000020
000070
3FFFF8
000030
000030
000030
000030
000030
000030
000030
3FFFF0
300030
300000
300000
300000
300000
300000
300000
300002
300002
300006
3FFFFE
1FFFFE
0FFFFC
ENDCHAR
STARTCHAR C2751
ENCODING 10065
SWIDTH 400 0
DWIDTH 24 0
BBX 24 24 0 -2
BITMAP
001800
001800
001800
001800
301818
3FFFFC
30181C
301818
301818
301818
301818
301818
301818
301818
301818
301818
301818
3019F8
301870
301820
001800
001800
001800
001000
ENDCHAR
STARTCHAR C2752
ENCODING 10066
SWIDTH 400 0
DWIDTH 24 0
BBX 24 24 0 -2
BITMAP
000008
00001C
3FFFFC
001800
001800
001800
001800
001800
001800
001800
003807
FFFFFF
001800
001800
001800
001800
001800
001800
001800
001800
001800
001800
001800
001000
ENDCHAR
STARTCHAR C2753
ENCODING 10067
SWIDTH 400 0
DWIDTH 24 0
BBX 24 24 0 -2
BITMAP
000000
007800
007000
006000
00C000
00C000
018000
038200
070380
0E0700
0E0600
038C00
00EC00
007800
003000
006000
00C100
0180C0
060060
0C0FF0
1FFE38
0F0038
040010
000000
ENDCHAR
STARTCHAR C2754
ENCODING 10068
SWIDTH 400 0
DWIDTH 24 0
BBX 24 24 0 -2
BITMAP
001800
000C00
300C06
3FFFFF
300000
300000
300000
300000
300000
300000
300000
300000
300000
300000
300000
300000
300000
300000
300000
600000
600000
C00000
800000
000000
ENDCHAR
STARTCHAR C2755
ENCODING 10069
SWIDTH 400 0
DWIDTH 24 0
BBX 24 24 0 -2
BITMAP
000000
060000
7F0000
070000
060000
060000
0C0000
0C0000
190000
1F8000
138000
038000
238000
230000
330000
360000
1E0000
1E0000
0C0000
0E0000
1BC003
31FFFE
E07FF8
800000
ENDCHAR
STARTCHAR C2756
ENCODING 10070
SWIDTH 400 0
DWIDTH 24 0
BBX 24 24 0 -2
BITMAP
01C1C0
01C1C0
0181C0
0181C0
0181C0
0181C0
0181C0
0181C0
0181C6
FFFFFF
0181C0
0181C0
0181C0
0181C0
0181C0
0181C0
0381C0
0301C0
0301C0
0601C0
0601C0
0C01C0
1801C0
300180
ENDCHAR
STARTCHAR C2757
ENCODING 10071
SWIDTH 400 0
DWIDTH 24 0
BBX 24 24 0 -2
BITMAP
007000
007200
006180
0061C0
0060C0
0060C0
006006
007FFE
7FF000
007000
003000
003000
003000
001800
001800
001C00
000C00
000E00
000600
000301
000183
0000F6
00007E
00001E
ENDCHAR
STARTCHAR C2758
ENCODING 10072
SWIDTH 400 0
DWIDTH 24 0
BBX 24 24 0 -2
BITMAP
000030
3FFFF0
000030
000030
000030
000030
000030
1FFFF0
1C0030
180000
180000
300010
3FFFF8
30001C
000018
000018
000018
000038
000038
000030
000070
000FE0
0003C0
000180
ENDCHAR
STARTCHAR C2759
ENCODING 10073
SWIDTH 400 0
DWIDTH 24 0
BBX 24 24 0 -2
BITMAP
000000
000060
7FFFF0
000070
000060
000060
000060
000060
000060
000060
000060
0FFFE0
000060
000060
000060
000060
000060
000060
000060
000060
000062
FFFFFF
000000
000000
ENDCHAR
STARTCHAR C275a
ENCODING 10074
SWIDTH 400 0
DWIDTH 24 0
BBX 24 24 0 -2
BITMAP
000100
0001C0
000380
000F00
001800
00F000
03C000
060000
0001E0
0001C0
000300
000E00
001800
007000
01C000
060060
0000E0
0001C0
000380
000E00
001C00
007000
01C000
0F0000
ENDCHAR
STARTCHAR C275b
ENCODING 10075
SWIDTH 400 0
DWIDTH 24 0
BBX 24 24 0 -2
BITMAP
000300
000700
000600
000C00
001800
003080
0061C0
00C180
018300
020600
040C00
001800
003800
007800
00D800
019800
021800
0C1800
001800
001800
001800
001800
001800
001000
ENDCHAR
STARTCHAR C275c
ENCODING 10076
SWIDTH 400 0
DWIDTH 24 0
BBX 24 24 0 -2
BITMAP
004000
007000
003800
001C00
000E00
000600
038600
038000
038000
038000
138060
138038
13801C
33800E
338007
338007
738003
638003
E38020
C38020
C3C060
01FFE0
007FE0
000000
ENDCHAR
STARTCHAR C275d
ENCODING 10077
SWIDTH 400 0
DWIDTH 24 0
BBX 24 24 0 -2
BITMAP
007000
007300
006180
0060C0
006040
006004
007FFE
7FE000
006000
007020
007038
003030
003060
001860
0018C0
001D80
000F00
000E00
000F00
003B81
00E1E3
03C07E
0E003E
78000E
ENDCHAR
STARTCHAR C275e
ENCODING 10078
SWIDTH 400 0
DWIDTH 24 0
BBX 24 24 0 -2
BITMAP
0001F0
000FF8
07FE00
060000
060000
06001C
07FFFC
06000C
06000C
06000C
06000C
06000C
06000C
07FFFC
060008
0C0000
0C0000
0C0000
1C0000
180000
180000
300000
200000
400000
ENDCHAR
STARTCHAR C275f
ENCODING 10079
SWIDTH 400 0
DWIDTH 24 0
BBX 24 24 0 -2
BITMAP
0003F0
007FF0
1FF800
001800
001800
001800
001818
3FFFFC
001800
001800
001800
001800
001806
FFFFFF
001800
001800
001800
001800
001800
001800
001800
01F800
007800
003000
ENDCHAR
STARTCHAR C2760
ENCODING 10080
SWIDTH 400 0
DWIDTH 24 0
BBX 24 24 0 -2
BITMAP
001800
001800
001800
001800
003807
FFFFFF
001800
001800
001800
001860
1FFFF0
020060
0100E0
0180C0
00C180
00E300
007600
003C00
003C00
007E00
00C3C0
0300FF
0C003F
70000E
ENDCHAR
STARTCHAR C2761
ENCODING 10081
SWIDTH 400 0
DWIDTH 24 0
BBX 24 24 0 -2
BITMAP
003800
003800
003000
003004
00300E
003FFE
003000
003000
003000
003060
0FFFF0
020070
0300E0
0181C0
01C180
00E380
007700
003E00
003C00
007F00
00E3E0
03C1FF
0E007F
7C001C
ENDCHAR
STARTCHAR C2762
ENCODING 10082
SWIDTH 400 0
DWIDTH 24 0
BBX 24 24 0 -2
BITMAP
003000
001800
001800
001804
00080E
7FFFFE
0300C0
0100C0
0181C0
008180
00C180
004380
006300
002300
003600
001C00
001C00
003E00
006380
00C1C0
0380F8
07003F
1C000F
700002
ENDCHAR
STARTCHAR C2763
ENCODING 10083
SWIDTH 400 0
DWIDTH 24 0
BBX 24 24 0 -2
BITMAP
0001C0
0001C0
0301C0
01C1C0
00E1C0
0061C0
0001C0
0801C0
0E01C0
0701C0
0381C0
0101C0
0001C0
0001C7
00FFFF
FF01C0
0001C0
0001C0
0001C0
0001C0
0001C0
0001C0
0001C0
000180
ENDCHAR
STARTCHAR C2764
ENCODING 10084
SWIDTH 400 0
DWIDTH 24 0
BBX 24 24 0 -2
BITMAP
0003F8
08FFFC
1FF800
1C0000
1C0000
1C0000
1C0000
1C0007
1FFFFF
1C0180
1C0180
1C0180
1C0180
1C0180
1C0180
180180
180180
180180
100180
300180
300180
600180
600180
C00180
ENDCHAR
STARTCHAR C2765
ENCODING 10085
SWIDTH 400 0
DWIDTH 24 0
BBX 24 24 0 -2
BITMAP
002000
001000
001800
001806
FFFFFF
00C000
00C000
00C000
00C000
00C030
00FFF8
00C038
00C038
00C038
018038
018038
018038
030038
060038
060038
0C0030
180FF0
3003E0
6001C0
ENDCHAR
STARTCHAR C2766
ENCODING 10086
SWIDTH 400 0
DWIDTH 24 0
BBX 24 24 0 -2
BITMAP
000000
000038
1FFFF8
001800
001800
001800
001800
001800
00180C
3FFFFE
003600
003600
007600
006600
006600
006600
00C600
00C600
018601
038601
070603
0E07FF
1803FF
6001FE
ENDCHAR
STARTCHAR C2767
ENCODING 10087
SWIDTH 400 0
DWIDTH 24 0
BBX 24 24 0 -2
BITMAP
000020
0C0070
0FFFF8
0C0030
0C0030
0C0030
0C0030
0C0030
0C0030
0C0030
0C0030
0FFFF0
0C0030
0C0030
0C0030
0C0030
0C0030
0C0030
0C0030
0C0030
0C0030
0FFFF0
0C0030
000020
ENDCHAR
STARTCHAR C2768
ENCODING 10088
SWIDTH 400 0
DWIDTH 24 0
BBX 24 24 0 -2
BITMAP
000000
000000
20000C
3FFFFE
30000E
30000C
30000C
30000C
30000C
30000C
30000C
3FFFFC
30000C
30000C
30000C
30000C
30000C
30000C
30000C
3FFFFC
30000C
200000
000000
000000
ENDCHAR
STARTCHAR C2769
ENCODING 10089
SWIDTH 400 0
DWIDTH 24 0
BBX 24 24 0 -2
BITMAP
000000
060060
07FFF0
060060
060060
060060
060060
070060
07FFE0
060060
060060
060060
060060
070060
07FFE0
060060
060060
040060
0C0060
080060
180060
1007E0
2001E0
4000C0
ENDCHAR
STARTCHAR C276a
ENCODING 10090
SWIDTH 400 0
DWIDTH 24 0
BBX 24 24 0 -2
BITMAP
001800
001800
001800
001800
001800
00180E
7FFFFE
003800
007C00
007C00
00FA00
00DB00
019B00
019980
0318C0
0618E0
061870
0C183C
18181F
301807
601800
801800
001800
001000
ENDCHAR
STARTCHAR C276b
ENCODING 10091
SWIDTH 400 0
DWIDTH 24 0
BBX 24 24 0 -2
BITMAP
038000
038000
030000
030000
060008
07FFFC
0E181C
0C1818
181830
101820
201C00
001C00
001E00
003200
003300
006300
00C180
00C0C0
0180E0
030070
06003C
0C001F
300007
600000
ENDCHAR
STARTCHAR C276c
ENCODING 10092
SWIDTH 400 0
DWIDTH 24 0
BBX 24 24 0 -2
BITMAP
000E00
000E00
000E00
000E00
000E00
000E00
040E00
070E00
060E08
060FFC
060E00
060E00
060E00
060E00
060E00
060E00
060E00
060E00
060E00
060E00
060E00
060E00
0E0E07
FFFFFF
ENDCHAR
STARTCHAR C276d
ENCODING 10093
SWIDTH 400 0
DWIDTH 24 0
BBX 24 24 0 -2
BITMAP
000000
000007
7FFFFF
00C000
00C000
00C010
01FFF8
018038
030030
020060
078060
0C6060
1830C0
3019C0
200980
000300
000600
000C00
001800
003000
00E000
01C000
060000
3C0000
ENDCHAR
STARTCHAR C276e
ENCODING 10094
SWIDTH 400 0
DWIDTH 24 0
BBX 24 24 0 -2
BITMAP
000180
03FFC0
0381C0
0381C0
0381C0
0381C0
0301C0
0601C0
0600FF
0C007F
180000
6000E0
0FFFE0
0300C0
0101C0
008180
00C300
007600
003C00
003E00
00F780
03C3FF
0F007F
7C003C
ENDCHAR
STARTCHAR C276f
ENCODING 10095
SWIDTH 400 0
DWIDTH 24 0
BBX 24 24 0 -2
BITMAP
040020
060070
07FFF8
061830
061830
061830
061830
0C1830
0C1832
FFFFFF
0C3830
0C1830
0C1830
1C3030
1C3030
1C3030
1C3034
1FFFFE
086060
00C060
018060
030FE0
0603C0
080180
ENDCHAR
STARTCHAR C2770
ENCODING 10096
SWIDTH 400 0
DWIDTH 24 0
BBX 24 24 0 -2
BITMAP
000E00
700E00
600C00
600C00
600C00
600C00
600C00
600C00
608C0E
7FCFFE
600C00
600C00
600C00
600C00
600C00
600C00
600C00
600C00
604C01
638C01
7E0C03
780FFF
600FFF
2003FE
ENDCHAR
STARTCHAR C2771
ENCODING 10097
SWIDTH 400 0
DWIDTH 24 0
BBX 24 24 0 -2
BITMAP
0007C0
007FE0
1FF800
006000
006000
006000
006000
006038
3FFFF8
006000
006000
006000
006000
006007
FFFFFF
006000
006000
006000
006001
006001
006003
007FFF
007FFF
001FFE
ENDCHAR
STARTCHAR C2772
ENCODING 10098
SWIDTH 400 0
DWIDTH 24 0
BBX 24 24 0 -2
BITMAP
0007F0
207FF0
3FFC00
301800
301800
301800
301800
301800
30180C
3FFFFE
301C00
301800
301C00
300C00
300C00
300600
300600
300300
302380
30C1C1
3F80E3
3C007E
30003E
00000E
ENDCHAR
STARTCHAR C2773
ENCODING 10099
SWIDTH 400 0
DWIDTH 24 0
BBX 24 24 0 -2
BITMAP
060000
060000
060030
0FFFF8
0C0000
180000
1000C0
27FFE0
400000
000000
000040
0FFFE0
000060
000060
000060
000060
000060
000061
000061
000031
000033
00001E
00000E
000006
ENDCHAR
STARTCHAR C2774
ENCODING 10100
SWIDTH 400 0
DWIDTH 24 0
BBX 24 24 0 -2
BITMAP
001C00
001C00
001800
001800
001800
001808
00981C
01D838
3FDE60
00DEC0
00DB00
019B00
019900
019980
039880
0318C0
061860
061830
0C181C
18180F
301807
E1F802
007800
003000
ENDCHAR
STARTCHAR C2775
ENCODING 10101
SWIDTH 400 0
DWIDTH 24 0
BBX 24 24 0 -2
BITMAP
001800
001800
001800
001800
001810
181838
0C1830
061860
071840
031880
033900
003C00
007600
006200
006300
00C300
00C180
0180C0
0300E0
060070
0C003C
18001F
300007
600000
ENDCHAR
STARTCHAR C2776
ENCODING 10102
SWIDTH 400 0
DWIDTH 24 0
BBX 24 24 0 -2
BITMAP
0001F0
000FF0
19FE40
1F9840
1C1840
1C1840
1C1860
1C1860
1C1860
1C1860
1C1860
1C1820
1C1820
1C1830
1C1830
181830
181818
181818
101818
30180C
30180E
601807
601807
C01000
ENDCHAR
STARTCHAR C2777
ENCODING 10103
SWIDTH 400 0
DWIDTH 24 0
BBX 24 24 0 -2
BITMAP
038080
038040
070030
0E0018
0C000C
1801EE
3201CE
6101C6
010180
018180
008300
00C300
00C700
004600
006E00
003C00
003800
003C00
006700
00C3C0
0381F0
06007F
18001E
600004
ENDCHAR
STARTCHAR C2778
ENCODING 10104
SWIDTH 400 0
DWIDTH 24 0
BBX 24 24 0 -2
BITMAP
040060
0300E0
00E180
003F00
001E00
003B80
00E0E0
038038
1E001C
3001C0
0081C0
0081C0
008180
004300
006300
002700
001E00
001C00
003E00
007300
00C1F0
03007F
1C001F
700006
ENDCHAR
STARTCHAR C2779
ENCODING 10105
SWIDTH 400 0
DWIDTH 24 0
BBX 24 24 0 -2
BITMAP
000038
060038
070030
060030
060030
060030
060030
060030
07FFF0
060030
000030
000030
040030
060030
07FFF0
060030
060030
060030
0E0030
0C0030
1C0030
180030
300030
600030
ENDCHAR
STARTCHAR C277a
ENCODING 10106
SWIDTH 400 0
DWIDTH 24 0
BBX 24 24 0 -2
BITMAP
070038
070038
060030
060030
060030
060030
07FFF0
070030
060020
060000
060000
060010
07FFF8
070038
060038
060038
060038
040038
0C0038
0C0038
180038
180038
300038
600030
ENDCHAR
STARTCHAR C277b
ENCODING 10107
SWIDTH 400 0
DWIDTH 24 0
BBX 24 24 0 -2
BITMAP
000000
040038
07FFF8
060300
060300
060300
0E0300
0C0300
0C0302
0FFFFF
0C0F00
000F00
001B00
001B00
003300
006300
00C300
018300
030300
060300
1C0300
307F00
C01E00
000C00
ENDCHAR
STARTCHAR C277c
ENCODING 10108
SWIDTH 400 0
DWIDTH 24 0
BBX 24 24 0 -2
BITMAP
001800
0C1800
0E1800
0C1800
0C1830
1FFFF8
181800
181800
301800
601800
401800
001800
001806
FFFFFF
001800
001800
001800
001800
001800
001800
001800
001800
001800
001000
ENDCHAR
STARTCHAR C277d
ENCODING 10109
SWIDTH 400 0
DWIDTH 24 0
BBX 24 24 0 -2
BITMAP
001800
001880
0018E0
001870
001830
001800
001804
00380E
7FFFFE
001800
003800
003C00
007400
006600
00E200
00C300
00C100
018180
0300C0
060060
0C003C
18001F
30000F
600002
ENDCHAR
STARTCHAR C277e
ENCODING 10110
SWIDTH 400 0
DWIDTH 24 0
BBX 24 24 0 -2
BITMAP
003000
001800
001802
FFFFFF
003000
007000
006000
00C000
018100
030180
060300
060600
030C00
009800
007000
006000
00C0C0
018060
030030
060038
0C1FFC
1FF81C
0C000C
040000
ENDCHAR
STARTCHAR C2821
ENCODING 10273
SWIDTH 400 0
DWIDTH 24 0
BBX 24 24 0 -2
BITMAP
000004
00000E
7FFFFE
001800
001800
001800
001800
001800
001800
001800
001800
001818
3FFFFC
001800
001800
001900
0019C0
0018E0
001870
001830
001800
001800
003807
FFFFFF
ENDCHAR
STARTCHAR C2822
ENCODING 10274
SWIDTH 400 0
DWIDTH 24 0
BBX 24 24 0 -2
BITMAP
0003F8
087FFC
1FF060
1C3060
1C3060
1C3060
1C3060
1C3060
1C3060
1C3060
1C3060
1C3060
187060
186060
186060
186030
30C030
30C338
318198
2181CC
631FEE
C7F067
830067
000000
ENDCHAR
STARTCHAR C2823
ENCODING 10275
SWIDTH 400 0
DWIDTH 24 0
BBX 24 24 0 -2
BITMAP
000000
000007
FFFFFF
030000
030000
030000
0300C0
03FFE0
0600C0
0600C0
0640C0
0630C0
0618C0
0618C0
0608C0
0601C0
0601C0
0601C0
0601C1
0601C1
06F9C3
7FC1FF
7800FF
60007E
ENDCHAR
STARTCHAR C2824
ENCODING 10276
SWIDTH 400 0
DWIDTH 24 0
BBX 24 24 0 -2
BITMAP
0700E0
0700E0
0600C0
0600C0
0600C0
0600C6
FFFFFF
0600C0
0600C0
0600C0
0600C0
0600C0
0600C0
0700C0
07FFC0
0600C0
0600C0
0600C0
0600C0
0600C0
0600C0
07FFC0
0700C0
060000
ENDCHAR
STARTCHAR C2825
ENCODING 10277
SWIDTH 400 0
DWIDTH 24 0
BBX 24 24 0 -2
BITMAP
001C00
001C00
071800
061800
061800
0C180C
0FFFFE
0C1C00
181800
181800
301800
601800
401800
001818
1FFFFC
001800
001800
001800
001800
001800
001800
001800
001C07
FFFFFF
ENDCHAR
STARTCHAR C2826
ENCODING 10278
SWIDTH 400 0
DWIDTH 24 0
BBX 24 24 0 -2
BITMAP
000008
10001C
1FFFFC
18180C
18180C
18180C
18180C
181C1C
1FFFFC
18180C
18180C
18180C
18180C
181C1C
1FFFFC
18180C
18180C
38180C
30180C
30180C
20180C
6018FC
C01878
800030
ENDCHAR
STARTCHAR C2827
ENCODING 10279
SWIDTH 400 0
DWIDTH 24 0
BBX 24 24 0 -2
BITMAP
000000
200008
3FFFFC
30180C
30180C
30180C
30180C
30180C
30180C
30180C
30180C
3FFFFC
30180C
30180C
30180C
30180C
30180C
30180C
30180C
30180C
3FFFFC
30000C
200000
000000
ENDCHAR
STARTCHAR C2828
ENCODING 10280
SWIDTH 400 0
DWIDTH 24 0
BBX 24 24 0 -2
BITMAP
000000
00000C
3FFFFE
00181C
001818
001830
001800
0C1800
0E1800
0C1800
0C1808
0C1FFC
0C1800
0C1800
0C1800
0C1800
0E1800
1E1800
1B1800
119800
30F800
307FFF
601FFF
C00FFC
ENDCHAR
STARTCHAR C2829
ENCODING 10281
SWIDTH 400 0
DWIDTH 24 0
BBX 24 24 0 -2
BITMAP
001800
000C00
080C06
1FFFFF
1C0000
9C0000
DC0000
7C0000
7C0000
1C0000
1C0000
1C0000
1C0000
7C0000
DC0000
1C0000
1C0000
1C0000
180000
180000
300000
300000
600000
C00000
ENDCHAR
STARTCHAR C282a
ENCODING 10282
SWIDTH 400 0
DWIDTH 24 0
BBX 24 24 0 -2
BITMAP
000040
006470
3FF4E0
007780
006600
00E208
30C31E
1CC318
0EC1B0
07C1E0
0181C0
0380C0
0300C0
060060
060030
0C003C
18001F
30000F
E00004
000000
000000
000000
000000
000000
ENDCHAR
STARTCHAR C282b
ENCODING 10283
SWIDTH 400 0
DWIDTH 24 0
BBX 24 24 0 -2
BITMAP
003000
003000
006000
004000
308018
3FFFFC
30001C
300018
300018
300018
300018
300018
300018
3FFFF8
300018
300018
300018
300018
300018
300018
300018
3FFFF8
380018
300018
ENDCHAR
STARTCHAR C282c
ENCODING 10284
SWIDTH 400 0
DWIDTH 24 0
BBX 24 24 0 -2
BITMAP
000E00
000E00
000C00
100C04
180C0E
1FFFFF
180C0C
180C08
180C00
180C30
1FFFF0
188070
18C060
184060
1860C0
183180
301B00
300E00
300E00
301B80
6071F0
41C07F
86000F
3C0002
ENDCHAR
STARTCHAR C282d
ENCODING 10285
SWIDTH 400 0
DWIDTH 24 0
BBX 24 24 0 -2
BITMAP
000000
000000
080070
1FFFF8
1CC630
1CC630
1CC630
1CC630
1CC630
1CC630
1CC630
1CC630
1CC630
1CC630
1CC630
1CC630
1CC630
1CC630
1CC630
1CC630
1CC632
FFFFFF
000000
000000
ENDCHAR
STARTCHAR C282e
ENCODING 10286
SWIDTH 400 0
DWIDTH 24 0
BBX 24 24 0 -2
BITMAP
000030
0FFFF0
0C0030
0C0030
0C0030
0C0030
0C0030
0C0030
0FFFF0
0C0030
0C0030
0C0030
0C0030
0C0030
0FFFF0
0C0030
0C0030
0C0030
0C0030
0C0030
0C0030
0FFFF0
0C0030
0C0020
ENDCHAR
STARTCHAR C282f
ENCODING 10287
SWIDTH 400 0
DWIDTH 24 0
BBX 24 24 0 -2
BITMAP
000018
0FFFFC
000078
0000E0
0181C0
007B80
003E00
000E06
FFFFFF
000E07
001E0C
001E08
003E10
007E00
00EE00
01CE00
038E00
070E00
0E0E00
180E00
700E00
C0FE00
007C00
001800
ENDCHAR
STARTCHAR C2830
ENCODING 10288
SWIDTH 400 0
DWIDTH 24 0
BBX 24 24 0 -2
BITMAP
060000
060000
060000
0C0018
0FFFFC
1C1800
181800
301800
601800
C01800
001800
00180E
7FFFFE
003C00
003400
006600
006300
00C180
01C0C0
038060
07003C
0E001F
180007
600000
ENDCHAR
STARTCHAR C2831
ENCODING 10289
SWIDTH 400 0
DWIDTH 24 0
BBX 24 24 0 -2
BITMAP
000000
000006
FFFFFF
006000
006000
00C000
00C000
00C000
018000
038000
030018
07FFFC
07001C
0F0018
0B0018
130018
230018
430018
830018
030018
030018
03FFF8
030018
030000
ENDCHAR
STARTCHAR C2832
ENCODING 10290
SWIDTH 400 0
DWIDTH 24 0
BBX 24 24 0 -2
BITMAP
000000
000038
1FFFF8
000000
000000
000000
000000
000000
000006
FFFFFF
001800
001800
061800
061840
0C1820
0C1830
181818
38180C
30180E
601806
C01806
001800
001800
001000
ENDCHAR
STARTCHAR C2833
ENCODING 10291
SWIDTH 400 0
DWIDTH 24 0
BBX 24 24 0 -2
BITMAP
001C00
001C00
001800
001800
001800
201800
301804
701C0E
FFFFFF
301806
301806
301906
301886
3018C6
301866
301FE6
37FE76
37F036
338016
300006
300006
30007E
30003C
200008
ENDCHAR
STARTCHAR C2834
ENCODING 10292
SWIDTH 400 0
DWIDTH 24 0
BBX 24 24 0 -2
BITMAP
0007E0
007FF0
1FF800
001800
001800
001800
001800
001804
7FFFFE
003800
003C00
007C00
00DA00
00DB00
019980
0318C0
061860
0C1830
18181F
30180F
601807
801800
001800
001000
ENDCHAR
STARTCHAR C2835
ENCODING 10293
SWIDTH 400 0
DWIDTH 24 0
BBX 24 24 0 -2
BITMAP
003000
001800
201800
201806
3FFFFF
600007
C00004
800408
000600
000200
008200
00C300
00C300
018100
018180
038180
0300C0
0700E0
060070
0C0038
0C001C
18000F
300007
600000
ENDCHAR
STARTCHAR C2836
ENCODING 10294
SWIDTH 400 0
DWIDTH 24 0
BBX 24 24 0 -2
BITMAP
004000
007000
003800
001800
001804
7FFFFE
000000
000070
080070
040060
060060
020060
0300C0
0300C0
0381C0
018180
018180
01C300
00C300
00C200
00C600
000406
FFFFFF
000000
ENDCHAR
STARTCHAR C2837
ENCODING 10295
SWIDTH 400 0
DWIDTH 24 0
BBX 24 24 0 -2
BITMAP
0E0300
0E0300
0C0300
1C0700
180600
186606
3FFFFF
360C30
661830
461830
863030
060030
060030
060030
060030
060030
060030
060030
060030
060030
060030
0603F0
0601E0
060040
ENDCHAR
STARTCHAR C2838
ENCODING 10296
SWIDTH 400 0
DWIDTH 24 0
BBX 24 24 0 -2
BITMAP
001800
001800
10183C
081838
041830
061860
0718C0
031980
001900
001806
FFFFFF
001800
001800
0718C0
061860
061830
0C1818
0C181C
18180C
30180E
601806
C01802
001800
001000
ENDCHAR
STARTCHAR C2839
ENCODING 10297
SWIDTH 400 0
DWIDTH 24 0
BBX 24 24 0 -2
BITMAP
003000
007000
00C080
0181E0
060380
0E0700
070C00
00D800
007080
00C060
038030
060018
3FFFFC
3FDC0C
181804
021800
031840
071820
0E1830
0C1818
18180C
30180C
601804
001800
ENDCHAR
STARTCHAR C283a
ENCODING 10298
SWIDTH 400 0
DWIDTH 24 0
BBX 24 24 0 -2
BITMAP
060000
060000
060000
0C0018
0FFFFC
181800
181800
301800
601800
C01800
001804
7FFFFE
001800
001800
1C183C
181838
181838
181838
181838
181838
181838
181838
3FFFF8
100030
ENDCHAR
STARTCHAR C283b
ENCODING 10299
SWIDTH 400 0
DWIDTH 24 0
BBX 24 24 0 -2
BITMAP
000006
7FFFFE
600006
607066
607066
606066
606066
606066
6CECC6
66C6C6
63C3C6
61C1C6
61C1C6
61E1E6
61E1E6
633376
633336
663636
660406
6C0806
601006
60003E
60001E
60000C
ENDCHAR
STARTCHAR C283c
ENCODING 10300
SWIDTH 400 0
DWIDTH 24 0
BBX 24 24 0 -2
BITMAP
040060
0600E0
0300C0
018180
00C30C
7FFFFE
001800
001800
001800
001800
003838
1FFFF8
001800
001800
001800
001806
FFFFFF
001800
001800
001800
001800
001800
001800
001000
ENDCHAR
STARTCHAR C283d
ENCODING 10301
SWIDTH 400 0
DWIDTH 24 0
BBX 24 24 0 -2
BITMAP
000004
00700E
7FF3FF
007006
007006
307206
1C7386
0E71C6
0670E6
067066
007006
007006
00700E
01F03E
077066
1C7186
707F06
607E06
207406
007006
007006
03F07E
01E03C
00C008
ENDCHAR
STARTCHAR C283e
ENCODING 10302
SWIDTH 400 0
DWIDTH 24 0
BBX 24 24 0 -2
BITMAP
003800
003800
003000
00300C
0031DC
1FFFF8
003060
0030C0
003180
003306
FFFFFF
001C00
003800
007000
00E000
01C018
03FFFC
06C000
1CC000
30C000
E0C000
00FFFC
007FFE
003FFE
ENDCHAR
STARTCHAR C283f
ENCODING 10303
SWIDTH 400 0
DWIDTH 24 0
BBX 24 24 0 -2
BITMAP
000000
000007
FFFFFF
003800
003000
006000
20400C
3FFFFE
30C30E
30C30C
30C30C
30C30C
30C30C
30C30C
30C30C
30C30C
30C30C
30C30C
30C30C
30C30C
30C30C
30C37C
30831C
200018
ENDCHAR
STARTCHAR C2840
ENCODING 10304
SWIDTH 400 0
DWIDTH 24 0
BBX 24 24 0 -2
BITMAP
001800
001800
001860
001FF0
00FE00
3FF800
001800
001818
3FFFFC
001800
001800
001806
FFFFFF
003800
007C00
00DA00
019980
0318E0
061878
0C183F
38180F
E01802
001800
001000
ENDCHAR
STARTCHAR C2841
ENCODING 10305
SWIDTH 400 0
DWIDTH 24 0
BBX 24 24 0 -2
BITMAP
00000C
3FFFFE
0300C0
0300C0
0300C0
0300C0
03FFC0
0300C0
0300C0
0300C0
0300C0
0300C0
03FFC0
0300C0
0300C0
0300C0
0300C6
FFFFFF
0000C0
0000C0
0000C0
0000C0
0000C0
0000C0
ENDCHAR
STARTCHAR C2842
ENCODING 10306
SWIDTH 400 0
DWIDTH 24 0
BBX 24 24 0 -2
BITMAP
001800
001800
001830
3FFFF8
001838
001838
FFFFFF
003838
001838
001838
3FFFF0
001800
001800
003830
1FFFF0
001800
001806
FFFFFF
001800
001800
001800
001800
001800
001000
ENDCHAR
STARTCHAR C2843
ENCODING 10307
SWIDTH 400 0
DWIDTH 24 0
BBX 24 24 0 -2
BITMAP
001800
001800
001800
20180C
3FFFFE
30300E
303E0C
30630C
30E18C
31C0CC
339C6C
37180C
3C180C
301C0C
30370C
30638C
30C1CC
3180EC
33006C
3C000C
30000C
3000FC
30003C
200018
ENDCHAR
STARTCHAR C2844
ENCODING 10308
SWIDTH 400 0
DWIDTH 24 0
BBX 24 24 0 -2
BITMAP
000004
30000E
3FFFFE
301800
301800
301800
301800
301818
3FFFFC
30001C
300018
300018
300018
300018
300018
3FFFF8
301818
301800
301800
301800
301800
301806
3FFFFF
000000
ENDCHAR
STARTCHAR C2845
ENCODING 10309
SWIDTH 400 0
DWIDTH 24 0
BBX 24 24 0 -2
BITMAP
003000
003800
006000
00C030
0FFFF0
0C0030
0C0030
0C0030
0C0030
0C0030
0FFFF0
0C0030
0C0030
0C0030
0C0030
0C0030
0FFFF0
0C0030
0C0030
0C0030
0C0030
0C0030
0FFFF0
0C0030
ENDCHAR
STARTCHAR C2846
ENCODING 10310
SWIDTH 400 0
DWIDTH 24 0
BBX 24 24 0 -2
BITMAP
000004
00000E
7FFFFE
006000
00C000
018080
030060
060030
0C0018
1FFFFC
3FD00C
1C1C04
001800
001800
001800
001810
1FFFF8
001800
001800
001800
001800
001800
003807
FFFFFF
ENDCHAR
STARTCHAR C2847
ENCODING 10311
SWIDTH 400 0
DWIDTH 24 0
BBX 24 24 0 -2
BITMAP
003800
007800
01C00C
2703FE
3C000E
30000C
30000C
30000C
30000C
30000C
30000C
30E00C
3FE3FC
30000C
30000C
30000C
30000C
30000C
30000C
30000C
30000C
3FFFFC
30000C
200000
ENDCHAR
STARTCHAR C2848
ENCODING 10312
SWIDTH 400 0
DWIDTH 24 0
BBX 24 24 0 -2
BITMAP
000000
000038
1FFFF8
001800
001800
001800
001800
001806
FFFFFF
001800
001800
001800
001800
001820
1FFFF0
1C0030
1C0030
1C0030
1C0030
1C0030
1C0030
1C0030
1FFFF0
180030
ENDCHAR
STARTCHAR C2849
ENCODING 10313
SWIDTH 400 0
DWIDTH 24 0
BBX 24 24 0 -2
BITMAP
060070
060070
060060
0E0060
0C4060
0FE466
1C6FFE
186E60
38EE60
30CE60
30CE60
6CCE60
C6CE60
078E60
038E66
030FFF
070060
060060
0E0060
1C0060
380060
700060
E00060
800060
ENDCHAR
STARTCHAR C284a
ENCODING 10314
SWIDTH 400 0
DWIDTH 24 0
BBX 24 24 0 -2
BITMAP
007000
007000
046040
07FFE0
0600E0
064060
063060
061860
061860
060860
060066
FFFFFF
060060
060060
066060
063060
0C1860
0C0860
1C0060
180060
180060
300FE0
2003C0
400180
ENDCHAR
STARTCHAR C284b
ENCODING 10315
SWIDTH 400 0
DWIDTH 24 0
BBX 24 24 0 -2
BITMAP
1800C0
1FFFE0
1C0060
1C0060
1C0060
1C0060
1FFFE0
1C0060
1C0060
1C0060
1C00E0
1FFFC0
1C2018
1C2038
1C1060
1C18C0
1C0900
1C0E00
1C1700
1C7380
1DC1E0
1F007F
1C003F
0C000E
ENDCHAR
STARTCHAR C284c
ENCODING 10316
SWIDTH 400 0
DWIDTH 24 0
BBX 24 24 0 -2
BITMAP
01C000
01C000
038380
03FFC0
060300
0C0200
180400
300C38
7FFFF8
181838
181838
181838
181838
183838
1FFFF8
180010
180000
180000
180001
180003
180002
1FFFFE
1FFFFE
07FFFC
ENDCHAR
STARTCHAR C284d
ENCODING 10317
SWIDTH 400 0
DWIDTH 24 0
BBX 24 24 0 -2
BITMAP
070060
070060
060060
060060
060060
36676E
36666C
36666C
36666C
36666C
36666C
36666C
36666C
36666C
7FE7FC
26446C
060060
060060
0E0060
0C0060
1C0060
180060
300060
600040
ENDCHAR
STARTCHAR C284e
ENCODING 10318
SWIDTH 400 0
DWIDTH 24 0
BBX 24 24 0 -2
BITMAP
001C00
001C00
001810
001FF8
001C00
001800
001806
3FFFFF
301007
301804
301808
301870
37FFF0
301800
301800
301FF0
301FF8
3007F8
300000
600000
600000
C00000
800000
000000
ENDCHAR
STARTCHAR C284f
ENCODING 10319
SWIDTH 400 0
DWIDTH 24 0
BBX 24 24 0 -2
BITMAP
001800
001800
001800
001800
001800
301810
3FFFF8
38381C
301818
301818
301818
301818
301818
3FFFF8
301818
301800
001800
001810
001818
00180C
001FFE
FFFF07
E00003
200003
ENDCHAR
STARTCHAR C2850
ENCODING 10320
SWIDTH 400 0
DWIDTH 24 0
BBX 24 24 0 -2
BITMAP
000000
003800
003000
006000
004000
188018
1FFFFC
18C318
18C318
18C318
18C318
18C318
18C318
18C318
18C318
18C318
18C318
18C318
18C318
18C318
18C318
18C318
FFFFFF
000000
ENDCHAR
STARTCHAR C2851
ENCODING 10321
SWIDTH 400 0
DWIDTH 24 0
BBX 24 24 0 -2
BITMAP
030000
070008
063FFC
0E0000
1C0000
380000
730000
070000
060006
0EFFFF
1C0060
1C0060
3C0060
3C0060
5C0060
9C0060
1C0060
1C0060
1C0060
1C0060
1C0060
1C07E0
1C01E0
1800C0
ENDCHAR
STARTCHAR C2852
ENCODING 10322
SWIDTH 400 0
DWIDTH 24 0
BBX 24 24 0 -2
BITMAP
003000
001800
001800
001806
7FFFFE
007800
006800
006C00
00CC0C
00C41E
018638
038670
0302E0
070380
0F0100
1B0180
3300C0
C300E0
030270
030E3C
03381F
03E00F
038002
030000
ENDCHAR
STARTCHAR C2853
ENCODING 10323
SWIDTH 400 0
DWIDTH 24 0
BBX 24 24 0 -2
BITMAP
000000
000007
FFFFFF
018180
018180
018180
018184
61818E
7FFFFF
618186
618186
618186
618186
618186
618186
61FF86
618106
600006
600006
600006
600006
600006
600006
600006
ENDCHAR
STARTCHAR C2854
ENCODING 10324
SWIDTH 400 0
DWIDTH 24 0
BBX 24 24 0 -2
BITMAP
040060
07FFF0
060070
060060
060060
07FFE0
060060
060060
060060
07FFE0
060060
060060
060060
060060
07FFE0
04C360
00C300
00C300
018301
038303
070302
0E03FE
1C03FE
7001FC
ENDCHAR
STARTCHAR C2855
ENCODING 10325
SWIDTH 400 0
DWIDTH 24 0
BBX 24 24 0 -2
BITMAP
038000
0380C0
07FFE0
0601E0
0C0180
180308
3FFFFC
6C0C1C
0C0C0C
0C0C0C
0C0C0C
0FFFFC
0C0C0C
0C0C0C
0C0C0C
0C0C0C
0FFFFC
0C000C
0C000C
1C000C
18000C
1801FC
3000F8
600030
ENDCHAR
STARTCHAR C2856
ENCODING 10326
SWIDTH 400 0
DWIDTH 24 0
BBX 24 24 0 -2
BITMAP
00C000
007000
003800
001800
001006
FFFFFF
000000
000000
000070
1FFFF0
000000
000020
1FFFF0
000000
000000
000030
1FFFF0
1C0030
1C0030
1C0030
1C0030
1C0030
1FFFF0
180030
ENDCHAR
STARTCHAR C2857
ENCODING 10327
SWIDTH 400 0
DWIDTH 24 0
BBX 24 24 0 -2
BITMAP
00C300
01E180
0180E0
030070
060038
0C1018
183808
203800
007400
00E600
01C300
0381C0
0700E0
0E0078
18003F
37FFEF
E600E6
860060
060060
060060
060060
060060
07FFE0
040040
ENDCHAR
STARTCHAR C2858
ENCODING 10328
SWIDTH 400 0
DWIDTH 24 0
BBX 24 24 0 -2
BITMAP
000004
00000E
7FFFFE
000000
000000
040020
07FFF0
060030
060030
060030
060030
060030
07FFF0
060030
040020
000038
060038
030070
038060
01C0C0
00C0C0
00C186
00430F
FFFFFF
ENDCHAR
STARTCHAR C2859
ENCODING 10329
SWIDTH 400 0
DWIDTH 24 0
BBX 24 24 0 -2
BITMAP
000004
00000E
7FFFFE
003800
007000
00E010
03E01C
063038
3C3870
F078C0
00DD00
038E00
0E1E00
383F00
E07F80
00EEC0
01CEE0
070E70
1E0E3F
300C1F
C01C0C
03F800
00F800
007000
ENDCHAR
STARTCHAR C285a
ENCODING 10330
SWIDTH 400 0
DWIDTH 24 0
BBX 24 24 0 -2
BITMAP
0001C0
000FE0
01FE00
1FD808
018E1C
00E678
0073E0
003F00
03FE00
1F0300
000380
000FC0
003C60
00F060
07C070
1E01F0
0003B0
001E30
007830
03C030
3F0070
000FE0
0007C0
000180
ENDCHAR
STARTCHAR C285b
ENCODING 10331
SWIDTH 400 0
DWIDTH 24 0
BBX 24 24 0 -2
BITMAP
000020
0C0070
0FFFF8
0C0030
0C0030
0C0030
0FFFF0
0C0030
0C0030
0C0030
0C0030
0FFFF0
0C0030
0C0030
0C0030
0C0030
0FFFF0
000020
038080
070060
0E0038
18001C
30000E
600006
ENDCHAR
STARTCHAR C285c
ENCODING 10332
SWIDTH 400 0
DWIDTH 24 0
BBX 24 24 0 -2
BITMAP
001C00
001C00
001800
001818
3FFFFC
001800
001800
001800
001806
FFFFFF
01C1C0
00C180
0EC180
0EC1B0
1CC19C
18C18C
31C18E
318187
638187
830182
070180
0E1F80
1C0F00
700200
ENDCHAR
STARTCHAR C285d
ENCODING 10333
SWIDTH 400 0
DWIDTH 24 0
BBX 24 24 0 -2
BITMAP
001800
001800
001800
001818
3FFFFC
001800
001800
001800
001802
FFFFFF
003800
001800
0E1800
0E1800
0C1818
0C1FFC
0C1800
1C1800
1E1800
1B1800
31D800
30FFFF
603FFF
000FFC
ENDCHAR
STARTCHAR C285e
ENCODING 10334
SWIDTH 400 0
DWIDTH 24 0
BBX 24 24 0 -2
BITMAP
040020
060070
07FFF8
060030
060030
060030
060030
060030
07FFF0
061830
001800
001800
061800
061800
06181C
061FFC
0C1800
0E1800
1F1800
199800
38F800
307FFF
601FFF
C00FFC
ENDCHAR
STARTCHAR C285f
ENCODING 10335
SWIDTH 400 0
DWIDTH 24 0
BBX 24 24 0 -2
BITMAP
003000
007000
02C0E0
03FFE0
030060
030060
03FFE0
0300E0
030060
030060
0300E7
03FFEF
03006E
03007C
033FF8
7FFCE0
7E01E0
700760
001C60
007060
01C060
070FE0
3C03C0
E00180
ENDCHAR
STARTCHAR C2860
ENCODING 10336
SWIDTH 400 0
DWIDTH 24 0
BBX 24 24 0 -2
BITMAP
001800
001800
00180C
3FFFFE
003800
001800
001830
1FFFF0
1C1830
1C1830
1C3830
1FFFF0
1C1830
1C1830
1FFFF0
181830
001800
001806
FFFFFF
001800
001800
001800
001800
001000
ENDCHAR
STARTCHAR C2861
ENCODING 10337
SWIDTH 400 0
DWIDTH 24 0
BBX 24 24 0 -2
BITMAP
002000
003000
001808
3FFFFC
000080
0400E0
0600E0
0301C0
018180
01C300
00C607
FFFFFF
001800
001800
001800
001818
3FFFFC
001800
001800
001800
001800
001800
001800
001000
ENDCHAR
STARTCHAR C2862
ENCODING 10338
SWIDTH 400 0
DWIDTH 24 0
BBX 24 24 0 -2
BITMAP
000000
30000C
3FFFFC
300000
300000
300010
3FFFF8
380000
300000
300000
30000C
3FFFFE
318800
318C0E
31861C
318638
318360
3181C0
3180C0
2186E0
61BC70
C1F03F
81C01F
01800E
ENDCHAR
STARTCHAR C2863
ENCODING 10339
SWIDTH 400 0
DWIDTH 24 0
BBX 24 24 0 -2
BITMAP
0001C0
0003C0
003F00
01F070
0F01F0
000FC0
007C00
03C03C
0E03F8
003F80
00FC00
3FD800
001800
061800
071808
061FFC
061C00
061800
0E1800
0F1800
1DD800
187800
301FFF
400FFF
ENDCHAR
STARTCHAR C2864
ENCODING 10340
SWIDTH 400 0
DWIDTH 24 0
BBX 24 24 0 -2
BITMAP
000000
0C0060
0FFFF0
0C0060
0C0060
0C0060
0FFFE0
0C0060
000000
000030
3FFFF8
301838
301838
301838
301838
3FFFF8
380030
300000
300001
300003
300002
3FFFFE
1FFFFE
07FFFC
ENDCHAR
STARTCHAR C2865
ENCODING 10341
SWIDTH 400 0
DWIDTH 24 0
BBX 24 24 0 -2
BITMAP
000006
00000F
FFFFFF
00C300
00C300
00C300
20C30C
3FFFFE
30C30E
30C30C
30C30C
31830C
3183FC
3303FC
3600FC
38000C
30000C
3000EC
37FFEC
30000C
30000C
30000C
3FFFFC
20000C
ENDCHAR
STARTCHAR C2866
ENCODING 10342
SWIDTH 400 0
DWIDTH 24 0
BBX 24 24 0 -2
BITMAP
0001F8
003FFC
1FFF00
001800
0C1870
061870
0318E0
0198C0
019980
009B06
FFFFFF
003C00
003E00
007F00
00F980
01D8E0
039870
07183C
0E181F
1C180F
701806
C01800
001800
001800
ENDCHAR
STARTCHAR C2867
ENCODING 10343
SWIDTH 400 0
DWIDTH 24 0
BBX 24 24 0 -2
BITMAP
000030
1FFFF0
1C1830
1C1830
1C1830
1C1830
1FFFF0
1C3830
1C1830
1C1830
1C1830
1C1830
1FFFF0
081820
001800
001800
001808
3FFFFC
001800
001800
001800
001806
00380F
FFFFFF
ENDCHAR
STARTCHAR C2868
ENCODING 10344
SWIDTH 400 0
DWIDTH 24 0
BBX 24 24 0 -2
BITMAP
003800
003C00
007400
006600
00C300
018180
0300C0
060070
0C003C
1800DF
27FFEE
C01804
001800
001808
00181C
3FFFFC
001800
041838
071830
031860
039860
0198C6
019D8F
FFFFFF
ENDCHAR
STARTCHAR C2869
ENCODING 10345
SWIDTH 400 0
DWIDTH 24 0
BBX 24 24 0 -2
BITMAP
040010
060038
07FFF8
060000
060060
07FFF0
060000
060000
060060
07FFF0
060000
060006
FFFFFF
0C6000
0C2010
0C101C
0C1838
0C0CE0
0C0780
0C0380
0C79E0
0FE0FF
0F003F
0C000C
ENDCHAR
STARTCHAR C286a
ENCODING 10346
SWIDTH 400 0
DWIDTH 24 0
BBX 24 24 0 -2
BITMAP
000204
60C30E
7FE3FF
60C306
60C306
7FC3FE
60C306
60C306
60C306
7FC3FE
60C206
600006
600006
600006
600006
600006
600006
600006
600006
600006
600006
60007E
60003C
600008
ENDCHAR
STARTCHAR C286b
ENCODING 10347
SWIDTH 400 0
DWIDTH 24 0
BBX 24 24 0 -2
BITMAP
003000
007000
04E070
07FFF8
060030
060030
07FFF0
060020
060000
060030
07FFF8
060038
060038
060038
07FFF8
041C10
001804
00180E
FFFFFF
001800
001800
001800
001800
001800
ENDCHAR
STARTCHAR C286c
ENCODING 10348
SWIDTH 400 0
DWIDTH 24 0
BBX 24 24 0 -2
BITMAP
001800
001800
001820
1FFFF0
003830
001830
001832
FFFFFF
001830
001830
003830
1FFFF0
201800
18183C
0E1878
0718E0
031B80
00D800
031BC0
1E1860
F8183C
E1F81C
40F80C
007000
ENDCHAR
STARTCHAR C286d
ENCODING 10349
SWIDTH 400 0
DWIDTH 24 0
BBX 24 24 0 -2
BITMAP
038000
038C00
030E00
030600
060704
06020E
0FFFFE
0E0600
1E0600
1E0600
3E0608
67FFFC
460600
860600
060600
060608
06061C
07FFFC
060600
060600
060600
060606
07FFFF
040000
ENDCHAR
STARTCHAR C286e
ENCODING 10350
SWIDTH 400 0
DWIDTH 24 0
BBX 24 24 0 -2
BITMAP
000006
00000F
FFFFFF
001800
001800
001800
20180C
3FFFFE
30180E
34180C
36187C
3398EC
31D9CC
30DB0C
301A0C
301A0C
30D98C
3398EC
3F186C
36186C
34180C
30187C
30183C
201818
ENDCHAR
STARTCHAR C286f
ENCODING 10351
SWIDTH 400 0
DWIDTH 24 0
BBX 24 24 0 -2
BITMAP
001800
001800
00181C
3FFFFC
001800
001818
3FFFFC
001800
001806
FFFFFF
000000
080060
0FFFF0
0C0060
0C0060
0FFFE0
0C0060
0C0060
0FFFE0
0C0060
1C0060
1807E0
3001E0
600040
ENDCHAR
STARTCHAR C2870
ENCODING 10352
SWIDTH 400 0
DWIDTH 24 0
BBX 24 24 0 -2
BITMAP
00C300
00C300
00C300
00C304
01C30E
7FC3FE
00C300
00C300
00C300
00C30C
7FC3FE
00C300
00C300
00C300
00C302
0FC3FF
FCC300
E18300
418300
030300
070300
0E0300
180300
600200
ENDCHAR
STARTCHAR C2871
ENCODING 10353
SWIDTH 400 0
DWIDTH 24 0
BBX 24 24 0 -2
BITMAP
000004
00000E
7FFFFE
007800
007000
00E000
21C000
33800C
3FFFFE
30C30C
30C30C
30C30C
30FF0C
30C30C
30C30C
30C30C
30C30C
30FF0C
30C30C
30C30C
30C30C
30C30C
3FFFFC
20000C
ENDCHAR
STARTCHAR C2872
ENCODING 10354
SWIDTH 400 0
DWIDTH 24 0
BBX 24 24 0 -2
BITMAP
0380E0
0380E0
0380CE
7FFFFE
0380C0
0380C0
03FFC0
039CC0
001800
001818
1FFFFC
1C1818
1C1818
1C1818
1FFFF8
181818
001800
001802
FFFFFF
001C00
001800
001800
001800
001800
ENDCHAR
STARTCHAR C2873
ENCODING 10355
SWIDTH 400 0
DWIDTH 24 0
BBX 24 24 0 -2
BITMAP
007000
007000
0070E0
1FFFE0
006060
006066
FFFFFF
000000
080060
0FFFF0
0C0060
0C0060
0FFFE0
001800
001800
1FFFF0
183800
181800
18180C
3FFFFE
101800
001800
001800
001000
ENDCHAR
STARTCHAR C2874
ENCODING 10356
SWIDTH 400 0
DWIDTH 24 0
BBX 24 24 0 -2
BITMAP
00C300
00C300
00C300
00C300
00C300
00C31C
3FC3FC
00C300
00C300
00C300
00C308
3FC3FC
00C300
00C300
00C300
00C308
01C31C
3FC3FC
00C300
00C300
00C300
00C306
01C70F
FFFFFF
ENDCHAR
STARTCHAR C2875
ENCODING 10357
SWIDTH 400 0
DWIDTH 24 0
BBX 24 24 0 -2
BITMAP
003000
001800
001800
001818
7FFFFC
0300E0
0381C0
018180
01C180
00C306
FFFFFF
000000
000000
040060
07FFF0
060060
060060
060060
07FFE0
060060
060060
060060
07FFE0
040060
ENDCHAR
STARTCHAR C2876
ENCODING 10358
SWIDTH 400 0
DWIDTH 24 0
BBX 24 24 0 -2
BITMAP
000004
00000E
3FFFFE
006000
006000
04C070
07FFF8
060030
060030
060030
07FFF0
060030
060030
060030
07FFF0
060030
060030
060030
07FFF0
0681A0
05E1E0
07C078
1E001E
78000F
ENDCHAR
STARTCHAR C2877
ENCODING 10359
SWIDTH 400 0
DWIDTH 24 0
BBX 24 24 0 -2
BITMAP
000020
300070
3FFFF8
300030
300130
37FFB0
303030
303030
303030
323330
33FFB0
3333B0
333330
333330
333330
33FF30
333330
323030
303339
6031B9
607FDB
DFFCCF
8E00CF
040047
ENDCHAR
STARTCHAR C2878
ENCODING 10360
SWIDTH 400 0
DWIDTH 24 0
BBX 24 24 0 -2
BITMAP
000180
7FFFCC
0001CE
0001F8
03B1E0
07B9F8
3E31DC
6C30CD
0C30E1
0C3073
0C303B
0C339F
FFFFC7
0C319C
0C31B8
0C31E0
0C31E0
0C31B8
1C30DC
1830CD
183061
30307B
20303F
40300F
ENDCHAR
STARTCHAR C2879
ENCODING 10361
SWIDTH 400 0
DWIDTH 24 0
BBX 24 24 0 -2
BITMAP
003800
003800
007400
00E200
01C300
0385C0
07FEE0
0E0038
1E00DF
37FFEE
6600C0
C600C0
07FFC0
0700C0
0600C0
0600C0
07FFC8
06181C
060C30
0607C0
061BC0
06F0F8
07C03C
03000C
ENDCHAR
STARTCHAR C287a
ENCODING 10362
SWIDTH 400 0
DWIDTH 24 0
BBX 24 24 0 -2
BITMAP
0600E0
0380E0
01C1C0
00C180
006307
FFFFFF
003800
003000
086070
0FFFF8
0C0030
0C0030
0C0030
0FFFF0
0C0030
0C0030
0C0030
0FFFF0
0C0030
0C0030
0C0030
0FFFF0
0C0030
0C0030
ENDCHAR
STARTCHAR C287b
ENCODING 10363
SWIDTH 400 0
DWIDTH 24 0
BBX 24 24 0 -2
BITMAP
000FE0
00FFF0
1FFC00
001800
001804
7FFFFE
007C00
00FB00
01D980
0398E0
071878
0E183E
18180E
3C3060
CFFFF0
0C0060
0C0060
0C0060
0FFFE0
0C0060
0C0060
0C0060
0FFFE0
0C0060
ENDCHAR
STARTCHAR C287c
ENCODING 10364
SWIDTH 400 0
DWIDTH 24 0
BBX 24 24 0 -2
BITMAP
00000C
0FFFFE
0C0C00
0C0C00
0C0C30
0FFFF8
0C0C00
0C0C00
0C0C10
0FFFF8
0C0C00
0C0C00
0C0C00
0C0C07
0FFFFF
001007
121867
330C67
318E27
30C407
60C006
C000FE
00007C
000018
ENDCHAR
STARTCHAR C287d
ENCODING 10365
SWIDTH 400 0
DWIDTH 24 0
BBX 24 24 0 -2
BITMAP
0000C0
07FFE0
0600C0
0610C0
061FC0
0618C0
0618C0
2738C7
3FFFFF
600006
E601CC
07FFE8
0600C0
0670C0
061CC0
0604C0
0600C0
060EC0
0EFCC0
0DF0C0
0CC0C0
180FC0
1003C0
200180
ENDCHAR
STARTCHAR C287e
ENCODING 10366
SWIDTH 400 0
DWIDTH 24 0
BBX 24 24 0 -2
BITMAP
007000
003800
001006
FFFFFF
000000
0600C0
07FFE0
0600C0
0600C0
07FFC0
0600C0
00000C
7FFFFE
60000E
60010C
63FF8C
63818C
63818C
63818C
63FF8C
63010C
6000FC
60003C
600018
ENDCHAR
STARTCHAR C2921
ENCODING 10529
SWIDTH 400 0
DWIDTH 24 0
BBX 24 24 0 -2
BITMAP
00000C
10300C
1FF018
180030
1800C0
182300
1FF000
180000
180006
18200E
1FF01C
180038
180060
1811C0
FFF900
1C0000
1C0000
38C007
306006
20300C
6FF818
FC1870
E009C0
000700
ENDCHAR
STARTCHAR C2922
ENCODING 10530
SWIDTH 400 0
DWIDTH 24 0
BBX 24 24 0 -2
BITMAP
004006
FFE7FF
E60067
E60067
E740E7
FFC3FF
E60067
E60067
FFE7FF
E00007
E00007
E00007
E00007
E00007
E00007
E00007
E00007
E00007
E00007
E00007
E00007
E0007F
E0001E
C0000E
ENDCHAR
STARTCHAR C2923
ENCODING 10531
SWIDTH 400 0
DWIDTH 24 0
BBX 24 24 0 -2
BITMAP
30400C
3070EC
3639CC
319B8C
30670C
3E3EEC
371E7C
333B3C
30718C
31D8CC
330E6C
34060C
7FFFFC
280008
1E0000
1C00E0
1C07F0
1DFF00
1FC001
1C0003
1C0002
1FFFFE
0FFFFE
03FFFC
ENDCHAR
STARTCHAR C2924
ENCODING 10532
SWIDTH 400 0
DWIDTH 24 0
BBX 24 24 0 -2
BITMAP
000006
FFFFFF
000000
040060
07FFF0
060070
060060
060060
07FFE0
060060
000000
30001C
3FFFFC
31010C
31C3CC
30E30C
30620C
37FFEC
30180C
30180C
30180C
30187C
30183C
301818
ENDCHAR
STARTCHAR C2925
ENCODING 10533
SWIDTH 400 0
DWIDTH 24 0
BBX 24 24 0 -2
BITMAP
00C000
00E000
018000
010030
1FFFF0
1C1830
1C1830
1C1830
1FFFF0
1C1830
1C1830
1C1830
1FFFF0
1CE620
00C660
00C670
00C660
00C6D0
0187F8
0387CD
070601
0E07FF
1803FF
6001FE
ENDCHAR
STARTCHAR C2926
ENCODING 10534
SWIDTH 400 0
DWIDTH 24 0
BBX 24 24 0 -2
BITMAP
038000
038000
070300
07FF80
0C0700
180600
300C30
7FFFF0
DC1830
1C1830
1C1830
1C1830
1FFFF0
1C1830
1C1830
1C1830
1C3830
1FFFF0
280028
21820C
21C306
60C387
C0C183
C04003
ENDCHAR
STARTCHAR C2927
ENCODING 10535
SWIDTH 400 0
DWIDTH 24 0
BBX 24 24 0 -2
BITMAP
00C000
00E000
0180C0
1FFFE0
1C00C0
1C00C0
1FFFC0
1C00C0
1C00C0
1FFFC0
1C0000
1C001C
1FFFFC
1C0000
1C000E
1FFFFF
000006
2638C6
231C66
218C66
61800E
E0007C
40007C
000018
ENDCHAR
STARTCHAR C2928
ENCODING 10536
SWIDTH 400 0
DWIDTH 24 0
BBX 24 24 0 -2
BITMAP
003800
003800
003008
003FFC
003000
003000
003018
7FFFFC
60400C
6031CC
6631CC
63938C
60E70C
6C7E8C
663CEC
663E6C
60770C
60E38C
61F1CC
6318EC
6C086C
60000C
7FFFFC
600008
ENDCHAR
STARTCHAR C2929
ENCODING 10537
SWIDTH 400 0
DWIDTH 24 0
BBX 24 24 0 -2
BITMAP
003000
001800
001804
3FFFFE
30E380
30C300
30C30C
3FFFFE
30C30E
30C30C
30C30C
3FFFFC
37038C
370380
360300
36330C
37FBFE
760300
660300
660301
667B03
C7E3FE
8781FE
02007C
ENDCHAR
STARTCHAR C292a
ENCODING 10538
SWIDTH 400 0
DWIDTH 24 0
BBX 24 24 0 -2
BITMAP
001800
001800
00180C
7FFFFE
061860
0C18C0
0C18E0
0F39F8
19BB9C
30F60C
30E300
61C180
C380E0
067078
1C60BF
74FFCC
C7C1C0
03C380
0E7F00
380F00
203FC0
00F8F0
07C078
7E0010
ENDCHAR
STARTCHAR C292b
ENCODING 10539
SWIDTH 400 0
DWIDTH 24 0
BBX 24 24 0 -2
BITMAP
001800
001C00
000C04
3FFFFE
308000
30C070
30C070
30C060
30D866
3FFBFE
30C060
36D16C
36D9EC
36D16C
36D16C
36D16C
36D16C
66D16C
64D36C
4CD36C
CCDF67
D8C260
90C660
008060
ENDCHAR
STARTCHAR C292c
ENCODING 10540
SWIDTH 400 0
DWIDTH 24 0
BBX 24 24 0 -2
BITMAP
0381C0
0381C0
0301CC
3FFFFE
0301C0
0301C0
03FFC0
020180
000006
FFFFFF
000000
1FFFF0
1C1830
1C1830
1C1830
1FFFF0
1C1830
1C1830
1FFFF0
1D0020
01C180
07C0F8
1E003C
70000C
ENDCHAR
STARTCHAR C292d
ENCODING 10541
SWIDTH 400 0
DWIDTH 24 0
BBX 24 24 0 -2
BITMAP
001FE0
03FFF0
1FF800
00180C
7FFFFE
003800
007F00
00DBC0
0398F0
0E183C
1C380C
707C04
00E300
0391E0
071C7F
1E181F
7319E4
C19BC0
009E00
01DB80
3F99F0
3C187C
19F80C
007000
ENDCHAR
STARTCHAR C292e
ENCODING 10542
SWIDTH 400 0
DWIDTH 24 0
BBX 24 24 0 -2
BITMAP
000018
3FFFFC
301818
3019D8
3319D8
319998
31DB18
309A18
301818
3FFFF8
301800
001808
3FFFFC
003800
001800
001800
003807
FFFFFF
200008
21820C
21C306
60C387
C0C183
C04003
ENDCHAR
STARTCHAR C292f
ENCODING 10543
SWIDTH 400 0
DWIDTH 24 0
BBX 24 24 0 -2
BITMAP
01C380
31C39C
198338
0D8330
0D8360
058306
7FFFFE
039860
071830
0E1818
1C180C
3FFFFE
78183B
989E38
18DB38
1999B8
1999F8
1B18F8
1A18F8
1C1838
181838
1819F8
1818F0
181060
ENDCHAR
STARTCHAR C2930
ENCODING 10544
SWIDTH 400 0
DWIDTH 24 0
BBX 24 24 0 -2
BITMAP
000030
7FFFF0
618C30
618C30
618C30
7F8FF0
418C20
018C00
418C30
FF8FF8
E18C38
E18C38
E18C38
FF8FF8
E18C38
E18C38
E18C38
FF8FF8
C18811
018001
018003
01FFFF
00FFFF
007FFE
ENDCHAR
STARTCHAR C2931
ENCODING 10545
SWIDTH 400 0
DWIDTH 24 0
BBX 24 24 0 -2
BITMAP
020000
0301C0
43FFEC
7300CE
63FFCC
6300CC
63FFCC
6300CC
6300CC
63FFCC
60000C
60C20C
7FC3FC
00C300
00C300
3FC3FE
31C30E
30C30C
30C30C
20C30C
60C30C
60C30C
C0C30C
80820C
ENDCHAR
STARTCHAR C2932
ENCODING 10546
SWIDTH 400 0
DWIDTH 24 0
BBX 24 24 0 -2
BITMAP
0401C0
0701C0
0601C0
0661C0
FFE1C6
061FFF
0601C0
0EC1C0
7FC1C0
0001CC
40DFFE
FFEC0C
E0C40C
E0C618
FFC218
C0C330
018130
61C1E0
3300E0
3201E0
17E3BC
FF8E1F
E0180E
20F000
ENDCHAR
STARTCHAR C2933
ENCODING 10547
SWIDTH 400 0
DWIDTH 24 0
BBX 24 24 0 -2
BITMAP
00C000
37E038
3E07FC
300018
304018
3FE7F8
300018
300018
300018
3FFFF8
000000
202020
303838
303030
3F3FB0
303030
303030
3F3FB0
303038
303019
37339D
3E3E0F
303807
303003
ENDCHAR
STARTCHAR C2934
ENCODING 10548
SWIDTH 400 0
DWIDTH 24 0
BBX 24 24 0 -2
BITMAP
007000
007000
08C060
0FFFF0
0C0060
0FFFE0
0FFFE0
0C0060
0FFFE0
080060
300018
3FFFFC
301818
3FFFF8
301818
3FFFF8
300018
000006
FFFFFF
0300C0
0700C0
0600C0
0C00C0
3800C0
ENDCHAR
STARTCHAR C2935
ENCODING 10549
SWIDTH 400 0
DWIDTH 24 0
BBX 24 24 0 -2
BITMAP
003000
001800
001006
FFFFFF
00830C
00663E
FFBDF0
1B99A0
1B99A0
3399B0
33999C
2F99FF
4719E6
821980
0E1038
0E0030
0FFFF0
0C0030
0C0030
0FFFF0
1C0030
180030
300030
400030
ENDCHAR
STARTCHAR C2936
ENCODING 10550
SWIDTH 400 0
DWIDTH 24 0
BBX 24 24 0 -2
BITMAP
001C00
001C00
071818
061FFC
061800
061802
FFFFFF
000000
210108
39C1CE
31818C
33C3CC
33E37C
36763C
3C0C2C
3FFFFC
31C18C
31818C
3381CC
33E3FC
36763C
3C2C2C
3FFFFC
200008
ENDCHAR
STARTCHAR C2937
ENCODING 10551
SWIDTH 400 0
DWIDTH 24 0
BBX 24 24 0 -2
BITMAP
0C0E00
060E00
022E0E
7FFFFE
30EE00
18CE0C
1D8FFE
09300C
FFF00C
000FFC
20CE0C
3FEE08
34CFFC
36CE00
33CE08
30CFFC
31CE00
37CE08
3ECFFC
3CCE01
60CE03
67CFFF
43C7FF
C081FE
ENDCHAR
STARTCHAR C2938
ENCODING 10552
SWIDTH 400 0
DWIDTH 24 0
BBX 24 24 0 -2
BITMAP
038000
038300
07FF80
0E0780
1C0E18
3FFFFC
3C761C
1C7618
1FF7F8
087618
037600
3FF600
7FFFFE
0376BE
3F76BC
02766C
03767C
3FF6BC
7FFFFC
03700D
3F7003
027FFF
003FFF
000FFE
ENDCHAR
STARTCHAR C2939
ENCODING 10553
SWIDTH 400 0
DWIDTH 24 0
BBX 24 24 0 -2
BITMAP
001800
003C00
007600
00E300
01C180
0380E0
070170
0FFFBC
18001F
78000C
DF7DF0
9B6DB0
1B6DB0
1F7DF0
000000
000010
1FFFF8
1CC338
1CC338
1FFFF8
1CC338
1CC338
1CC3F0
180270
ENDCHAR
STARTCHAR C4221
ENCODING 16929
SWIDTH 400 0
DWIDTH 24 0
BBX 24 24 0 -2
BITMAP
000000
7FDB18
6D9B18
249B18
349B18
349B18
349B18
3C9B18
3C9B18
3C9B18
3C9B18
3C9B18
3C9B18
3C9B18
3C9B18
2C9B18
2C9B18
2C9B18
2C9B18
249B5A
249B5A
6CFBDE
7E73DE
000000
ENDCHAR
STARTCHAR C4222
ENCODING 16930
SWIDTH 400 0
DWIDTH 24 0
BBX 24 24 0 -2
BITMAP
000000
3F8740
7FDFC0
64D8C0
447000
04300C
04301C
04300C
04304C
0418CC
0E0F8C
0E020C
07BDF8
2DBDB4
78E7B6
7867B6
6C67B6
6767F6
61E7B6
60E7B6
78E7B6
7FBDB6
3719BC
000000
ENDCHAR
STARTCHAR C4223
ENCODING 16931
SWIDTH 400 0
DWIDTH 24 0
BBX 24 24 0 -2
BITMAP
000000
3F8740
7FDFC0
64D8C0
447000
04301E
043036
043016
04304C
0418D8
0E0F9E
0E021C
07FFF8
2D99B4
7899B6
7818A6
6C18E6
631866
6198E6
6198A6
7999B6
7F19B6
363FBC
000000
ENDCHAR
STARTCHAR C4224
ENCODING 16932
SWIDTH 400 0
DWIDTH 24 0
BBX 24 24 0 -2
BITMAP
000000
3F8740
7FDFC0
64D8C0
44700C
04301E
043036
043004
043046
0418C6
0E0F9E
0E020C
1FFFF8
2C99B4
6C19B6
6C18E6
6D9866
6F9866
6D98E6
6C18A6
6C99B6
6D99B6
3FBFBC
000000
ENDCHAR
STARTCHAR C4225
ENCODING 16933
SWIDTH 400 0
DWIDTH 24 0
BBX 24 24 0 -2
BITMAP
000000
3F8740
7FDFC0
64D8C0
447000
04300C
04301C
043014
04307E
0418DE
0E0F8E
0E0204
1FBDF8
2CB66C
6C6266
6C6266
6DE266
6FE266
6DE266
6C6266
6CE266
6DBE66
3F9CFC
000000
ENDCHAR
STARTCHAR C4226
ENCODING 16934
SWIDTH 400 0
DWIDTH 24 0
BBX 24 24 0 -2
BITMAP
000000
3F8740
7FDFC0
64D8C0
447000
04303E
043030
04303C
043076
0418C6
0E0F96
0E020C
1FFEF0
2DE6FC
6C779E
6C779E
6F779E
6F7F9E
6F6F9E
6C6F9E
6C6FBE
6DE6FE
3F666C
000000
ENDCHAR
STARTCHAR C4227
ENCODING 16935
SWIDTH 400 0
DWIDTH 24 0
BBX 24 24 0 -2
BITMAP
000000
3F8740
7FDFC0
64D8C0
447000
04301E
043032
04303C
043076
0418F6
0E0F9C
0E0208
0E3FB8
263734
666736
6F6166
6B41C6
6B41C6
7FC166
79C126
71E736
79BFB6
399BBC
000000
ENDCHAR
STARTCHAR C4228
ENCODING 16936
SWIDTH 400 0
DWIDTH 24 0
BBX 24 24 0 -2
BITMAP
000000
71FB18
7DFB18
249B18
268B18
268B18
268318
268318
26A318
26B318
2CB318
38F318
3CF318
26B318
26B318
27A318
278318
278318
278B18
278B5A
269B5A
7DFBDE
79FBDE
000000
ENDCHAR
STARTCHAR C4229
ENCODING 16937
SWIDTH 400 0
DWIDTH 24 0
BBX 24 24 0 -2
BITMAP
000000
7FFFC0
3FFFC0
10D040
105000
12131C
1E1F36
1E1336
121076
1830F6
7C3FDC
3C1FC8
0FE3F0
266634
663C16
663C06
666706
67E3E6
6630F6
663036
663C36
67EFF6
3FC1EC
000000
ENDCHAR
STARTCHAR C422a
ENCODING 16938
SWIDTH 400 0
DWIDTH 24 0
BBX 24 24 0 -2
BITMAP
000000
7FFFC0
3FFFC0
10D040
105000
12130C
1E1F1C
1A130C
12104C
1830CC
7C3FCC
3C1FCC
0E7FF0
246DB4
646186
646186
646186
67E186
646186
646186
646186
6C61C6
3E63CC
000000
ENDCHAR
STARTCHAR C422b
ENCODING 16939
SWIDTH 400 0
DWIDTH 24 0
BBX 24 24 0 -2
BITMAP
000000
7FFFC0
3FFFC0
10D040
105000
12131E
1E1F36
1A1316
12104C
1830D8
7C3FDE
3C1FDC
060FF0
260334
660316
660366
660366
6603E6
660366
660306
663306
67F786
3FE78C
000000
ENDCHAR
STARTCHAR C422c
ENCODING 16940
SWIDTH 400 0
DWIDTH 24 0
BBX 24 24 0 -2
BITMAP
000000
7FFFC0
3FFFC0
10D040
10500C
12131E
1E1F36
1A1304
121046
1830C6
7C3FDE
3C1FCC
0E7FF0
266DB4
666186
664186
664186
634186
63C186
63C186
638186
6181C6
3103CC
000000
ENDCHAR
STARTCHAR C422d
ENCODING 16941
SWIDTH 400 0
DWIDTH 24 0
BBX 24 24 0 -2
BITMAP
000000
7FFFC0
3FFFC0
10D040
105000
12130C
1E1F1C
1A1314
12107E
1830DE
7C3FCE
3C1FC4
0FFFF0
273334
621316
624366
634366
63C3E6
624366
624366
620306
678786
3F878C
000000
ENDCHAR
STARTCHAR C422e
ENCODING 16942
SWIDTH 400 0
DWIDTH 24 0
BBX 24 24 0 -2
BITMAP
000000
7FFFC0
3FFFC0
10D040
105000
12133E
1E1F30
1A133C
121076
1830C6
7C3FD6
3C1FCC
03CFE0
266634
643236
6C1236
6C0236
6C03E6
6C0246
6C1266
6C3226
67E736
33877C
000000
ENDCHAR
STARTCHAR C422f
ENCODING 16943
SWIDTH 400 0
DWIDTH 24 0
BBX 24 24 0 -2
BITMAP
000000
06C0E0
1FC3F0
31C718
20C60C
60CE0C
604C06
600C06
700C06
380C06
1C0C06
070C06
018C06
00CC06
00EC06
00EC06
00EC06
60EC06
60EE0E
70C60C
78C718
2F83F0
2700E0
000000
ENDCHAR
STARTCHAR C4230
ENCODING 16944
SWIDTH 400 0
DWIDTH 24 0
BBX 24 24 0 -2
BITMAP
000000
0723FE
1FE1FC
30F070
307070
307070
303070
300070
300070
380070
1C0070
078070
01E070
006070
007070
003070
003070
603070
603070
707070
786070
2FC1FC
2783FE
000000
ENDCHAR
STARTCHAR C4231
ENCODING 16945
SWIDTH 400 0
DWIDTH 24 0
BBX 24 24 0 -2
BITMAP
000000
3F8740
7FDFC0
64D8C0
447000
04303E
043004
04300C
043048
0418D8
0E0F98
0E0200
1738F8
2490DC
6490C6
6490C6
6490F6
6490F6
6490F6
6492C6
6492C6
65BEDE
373EFC
000000
ENDCHAR
STARTCHAR C4232
ENCODING 16946
SWIDTH 400 0
DWIDTH 24 0
BBX 24 24 0 -2
BITMAP
000000
7C0E00
361F00
331B80
331180
333080
31B080
31B000
31B000
31B000
31B000
31B018
31B038
31B078
31B018
31B018
31B098
33B898
331898
331898
321998
360F3C
7C067E
000000
ENDCHAR
STARTCHAR C4233
ENCODING 16947
SWIDTH 400 0
DWIDTH 24 0
BBX 24 24 0 -2
BITMAP
000000
7C0E00
361F00
331B80
331180
333080
31B080
31B000
31B000
31B000
31B000
31B01C
31B02E
31B066
31B076
31B076
31B086
33B08C
331898
3319B0
3219E2
361F7E
7C0E7E
000000
ENDCHAR
STARTCHAR C4234
ENCODING 16948
SWIDTH 400 0
DWIDTH 24 0
BBX 24 24 0 -2
BITMAP
000000
7C0E00
361F00
331B80
331980
333080
31B080
31B000
31B000
31B000
31B000
31B01C
31B02E
31B066
31B076
31B026
31B08C
33B88C
3318A6
3319F6
3219F6
361F66
7C0E3C
000000
ENDCHAR
STARTCHAR C4235
ENCODING 16949
SWIDTH 400 0
DWIDTH 24 0
BBX 24 24 0 -2
BITMAP
000000
7C0E00
361F00
331B80
331980
333080
31B080
31B000
31B000
31B000
31B000
31B00C
31B00C
31B01C
31B01C
31B02C
31B0AC
33B8EC
3318EC
3319FE
3319BC
361F0C
7C0E1E
000000
ENDCHAR
STARTCHAR C4236
ENCODING 16950
SWIDTH 400 0
DWIDTH 24 0
BBX 24 24 0 -2
BITMAP
000000
3F8740
7FDFC0
64D8C0
447000
04301E
043036
043016
04305E
0418F6
0E0F96
0E020C
1FB3B8
2D3134
6D3936
6D3966
6F49C6
6F49C6
6F7D66
6F4D26
6F4D36
6DCFB6
3DCFBC
000000
ENDCHAR
STARTCHAR C4237
ENCODING 16951
SWIDTH 400 0
DWIDTH 24 0
BBX 24 24 0 -2
BITMAP
000000
3F8740
7FDFC0
64D8C0
447000
04301E
043036
043016
04304E
0418FE
0E0F96
0E020C
07F7F8
2DE2D4
78A2D6
78B6D6
6C14F6
671CF6
6188F6
6088F6
7888F6
7F9CD6
331CDC
000000
ENDCHAR
STARTCHAR C4238
ENCODING 16952
SWIDTH 400 0
DWIDTH 24 0
BBX 24 24 0 -2
BITMAP
000000
3E0E80
7F3F80
6DE180
4CE000
0C406E
0C407E
0C403E
0C60BE
0C31BE
1E1F7E
1C0C24
1FFFE0
2C5534
6C1136
6C1136
6D91A6
6F91E6
6D9136
6C1136
6C9136
6DB936
3FBBEC
000000
ENDCHAR
STARTCHAR C4239
ENCODING 16953
SWIDTH 400 0
DWIDTH 24 0
BBX 24 24 0 -2
BITMAP
000000
1C10CE
1E10C6
3318C4
2338C4
2138E4
6138E4
6128E4
6068E4
606CE4
606CF4
606CF4
606CF4
606CD4
607CDC
604CDC
614CCC
61CECC
23C6CC
32C6CC
36C6C4
1EC6C6
1CC6CE
000000
ENDCHAR
STARTCHAR C423a
ENCODING 16954
SWIDTH 400 0
DWIDTH 24 0
BBX 24 24 0 -2
BITMAP
000000
7FFC1E
3FEC1E
30EE1C
306E1C
302E1C
302E3C
300E3C
310E3C
330E3C
330B2C
3F0B2C
3F0B6C
33096C
33096C
3109EC
3009CC
3029CC
3029CC
3068CC
30E8CC
3FEC0E
7FFC0E
000000
ENDCHAR
STARTCHAR C423b
ENCODING 16955
SWIDTH 400 0
DWIDTH 24 0
BBX 24 24 0 -2
BITMAP
000000
1AE7F0
3E66FC
76664C
666646
666646
626646
606646
706646
30664C
18664C
0C6678
066678
06664C
036646
036646
036646
636646
636646
636646
77664C
7E7CFC
5C38F8
000000
ENDCHAR
STARTCHAR C423c
ENCODING 16956
SWIDTH 400 0
DWIDTH 24 0
BBX 24 24 0 -2
BITMAP
000000
7F1B38
7FBF3C
21B766
21F346
21F342
2073C2
2073C2
2670C0
2630C0
2618C0
3E0CC0
3E06C0
2606C0
2603C0
2603C2
2003C2
2043C2
21E346
21E364
21F36C
7FDE3C
7F4E38
000000
ENDCHAR
STARTCHAR C423d
ENCODING 16957
SWIDTH 400 0
DWIDTH 24 0
BBX 24 24 0 -2
BITMAP
000000
3F0F40
1E1FC0
0C38C0
0C3040
0C3E0C
0C0F9C
0C01D4
0C20FE
0C30DE
3F3FCE
1E0704
3FF3FC
673636
621C16
624C06
63C706
63C1E6
624076
620036
620C36
678FF6
3F81EC
000000
ENDCHAR
STARTCHAR C423e
ENCODING 16958
SWIDTH 400 0
DWIDTH 24 0
BBX 24 24 0 -2
BITMAP
000000
3F0F40
1E1FC0
0C38C0
0C304C
0C3E1E
0C0FB6
0C01C4
0C20C6
0C30C6
3F3FDE
1E070C
33A3FC
64E636
6C6C16
782C06
780706
7801E6
78F076
786036
686C36
6FEFF6
37E1EC
000000
ENDCHAR
STARTCHAR C423f
ENCODING 16959
SWIDTH 400 0
DWIDTH 24 0
BBX 24 24 0 -2
BITMAP
000000
3F0F40
1E1FC0
0C38C0
0C3040
0C3E1E
0C0FB6
0C01D6
0C20CC
0C30D8
3F3FDE
1E071C
3FC3FC
666636
663C16
663C06
666706
67C1C6
66C066
664036
666C36
667FF6
3FF1EC
000000
ENDCHAR
STARTCHAR C4240
ENCODING 16960
SWIDTH 400 0
DWIDTH 24 0
BBX 24 24 0 -2
BITMAP
000000
3F0F40
1E1FC0
0C38C0
0C3040
0C3E0C
0C0F9C
0C01CC
0C20CC
0C30CC
3F3FCC
1E070C
3E73FC
646636
646C16
646C06
646706
6463C6
6460E6
646036
646C36
67EFF6
3381EC
000000
ENDCHAR
STARTCHAR C4241
ENCODING 16961
SWIDTH 400 0
DWIDTH 24 0
BBX 24 24 0 -2
BITMAP
000000
787FE0
3C7FC0
366340
326340
336140
336140
336040
33E440
33EC40
33EC40
33FC40
33FC40
33EC40
33EC40
33E440
33E040
336140
336140
366342
366342
3C7FFE
787FFE
000000
ENDCHAR
STARTCHAR C4421
ENCODING 17441
SWIDTH 400 0
DWIDTH 24 0
BBX 24 24 0 -2
BITMAP
000000
000000
000000
000000
000000
000000
000000
000000
000000
000000
000004
00000E
FFFFFF
000000
000000
000000
000000
000000
000000
000000
000000
000000
000000
000000
ENDCHAR
STARTCHAR C4422
ENCODING 17442
SWIDTH 400 0
DWIDTH 24 0
BBX 24 24 0 -2
BITMAP
000000
000060
1FFFF0
0001E0
000380
000E00
001C00
007800
00E000
01C000
038000
070000
0E0000
1C0000
380000
700001
600003
E00002
600006
700004
3E000E
1FFFFF
03FFFE
000000
ENDCHAR
STARTCHAR C4423
ENCODING 17443
SWIDTH 400 0
DWIDTH 24 0
BBX 24 24 0 -2
BITMAP
000006
00000F
FFFFFF
001800
001800
001800
001800
001800
001800
001800
001800
001800
001800
001800
001800
001800
001800
001800
001800
001800
001800
03F800
00F000
006000
ENDCHAR
STARTCHAR C4424
ENCODING 17444
SWIDTH 400 0
DWIDTH 24 0
BBX 24 24 0 -2
BITMAP
00E000
00E000
00C000
00C000
00C000
00C000
00C000
00C004
7FFFFE
00C000
00C000
00C000
00C000
00C000
00C000
00C000
00C000
00C000
00C000
00C000
00E000
00FFFE
003FFE
000000
ENDCHAR
STARTCHAR C4425
ENCODING 17445
SWIDTH 400 0
DWIDTH 24 0
BBX 24 24 0 -2
BITMAP
000000
0001C0
3FFFE0
0301C0
030180
030180
030180
030300
03030E
0303FF
030006
030006
060006
060006
060006
060006
060006
0C0006
0C0006
18000C
18001C
3007FC
200038
400020
ENDCHAR
STARTCHAR C4426
ENCODING 17446
SWIDTH 400 0
DWIDTH 24 0
BBX 24 24 0 -2
BITMAP
00C000
00C000
00C000
00C000
00C000
00C080
3FFFC0
01C1C0
00C1C0
00C1C0
00C1C0
00C1C0
01C1C0
0181C0
0181C0
0381C0
0301C0
0301C0
0601C1
0601C1
0C01C3
1801FF
3000FF
60007E
ENDCHAR
STARTCHAR C4427
ENCODING 17447
SWIDTH 400 0
DWIDTH 24 0
BBX 24 24 0 -2
BITMAP
000000
000038
1FFFFC
000070
0000E0
0001C0
000B00
000E00
000C00
000C00
000C00
000C00
000C00
000C00
000C00
000C00
000C00
000C00
000C00
000C00
000C00
01FC00
007C00
001800
ENDCHAR
STARTCHAR C4428
ENCODING 17448
SWIDTH 400 0
DWIDTH 24 0
BBX 24 24 0 -2
BITMAP
000000
000000
000000
000018
3FFFFC
000000
000000
000000
000000
000000
000000
000000
000000
000000
000000
000000
000000
000004
00000E
FFFFFF
000000
000000
000000
000000
ENDCHAR
STARTCHAR C4429
ENCODING 17449
SWIDTH 400 0
DWIDTH 24 0
BBX 24 24 0 -2
BITMAP
003800
003800
003000
003000
003000
003000
003000
003000
003800
007800
007800
006C00
006400
00C600
00C600
01C300
018300
030180
0300C0
060060
0C003C
18001F
30000E
600000
ENDCHAR
STARTCHAR C442a
ENCODING 17450
SWIDTH 400 0
DWIDTH 24 0
BBX 24 24 0 -2
BITMAP
0381C0
0381C0
038180
038180
038180
038180
038180
038180
038180
038180
038180
038180
038180
038180
030180
030180
030180
060180
060181
0C0181
0C0183
1801FF
3001FF
60007E
ENDCHAR
STARTCHAR C442b
ENCODING 17451
SWIDTH 400 0
DWIDTH 24 0
BBX 24 24 0 -2
BITMAP
00C000
006000
003000
003000
001800
001800
001800
001800
001C00
001E00
001E00
003600
007300
006300
00E180
00C1C0
0180C0
0180E0
030070
060038
0C003C
18001F
30000F
600000
ENDCHAR
STARTCHAR C442c
ENCODING 17452
SWIDTH 400 0
DWIDTH 24 0
BBX 24 24 0 -2
BITMAP
001800
000800
000C00
000C00
000400
000600
000600
03C600
038700
038300
030300
030300
060180
060180
0601C0
0E00C0
0C00E0
0C0060
180070
100038
30003E
60001F
C0000E
800004
ENDCHAR
STARTCHAR C442d
ENCODING 17453
SWIDTH 400 0
DWIDTH 24 0
BBX 24 24 0 -2
BITMAP
000000
0601C0
07FFC0
0601C0
0601C0
0601C0
0601C0
0601C0
0601C0
0601C0
0601C0
0601C0
0601C0
0601C0
0601C0
0601C0
0601C0
0C01C1
0C01C1
0C01C1
1801C3
1001FF
2000FF
40003E
ENDCHAR
STARTCHAR C442e
ENCODING 17454
SWIDTH 400 0
DWIDTH 24 0
BBX 24 24 0 -2
BITMAP
000000
00000C
3FFFFE
00300E
00300C
00300C
00300C
00300C
00300C
00300C
00300C
00300C
00700C
00600C
00600C
00600C
00C00C
00C00C
01800C
03800C
07001C
0E07F8
1C00F0
700040
ENDCHAR
STARTCHAR C442f
ENCODING 17455
SWIDTH 400 0
DWIDTH 24 0
BBX 24 24 0 -2
BITMAP
000008
00001C
1FFFFC
00000C
00000C
00000C
00000C
00000C
00018C
00070C
001C0C
00300C
00E00C
03C00C
0F800C
3E000C
7C000C
30001C
300018
000038
000078
000FF0
0000E0
000040
ENDCHAR
STARTCHAR C4430
ENCODING 17456
SWIDTH 400 0
DWIDTH 24 0
BBX 24 24 0 -2
BITMAP
003800
003800
003000
003000
003000
003008
3FFFFC
00301C
00300C
00300C
00300C
00700C
00700C
00600C
00600C
00C00C
00C00C
01800C
01801C
03001C
060018
0C0FF8
1801F0
600060
ENDCHAR
STARTCHAR C4431
ENCODING 17457
SWIDTH 400 0
DWIDTH 24 0
BBX 24 24 0 -2
BITMAP
100000
1C0000
180000
180000
180000
180020
1801F0
1803C0
183E00
1BF000
1F0000
180000
180000
180000
180000
180000
180002
180002
180006
180004
18000C
1FFFFE
07FFFC
000000
ENDCHAR
STARTCHAR C4432
ENCODING 17458
SWIDTH 400 0
DWIDTH 24 0
BBX 24 24 0 -2
BITMAP
001800
001800
001800
001800
001800
001800
001800
001800
001800
001806
FFFFFF
001800
001800
001800
001800
001800
001800
001800
001800
001800
001800
001800
001800
001000
ENDCHAR
STARTCHAR C4433
ENCODING 17459
SWIDTH 400 0
DWIDTH 24 0
BBX 24 24 0 -2
BITMAP
007000
007000
007000
007000
007000
007000
007000
007800
007E00
007700
0073C0
0071E0
0070E0
007070
007030
007000
007000
007000
007000
007000
007000
007000
007000
006000
ENDCHAR
STARTCHAR C4434
ENCODING 17460
SWIDTH 400 0
DWIDTH 24 0
BBX 24 24 0 -2
BITMAP
000000
000038
1FFFF8
020030
020070
030060
0300E0
0100C0
0181C0
008180
00C300
004700
006600
003E00
003C00
003C00
007E00
00E700
01C380
0381E0
0700FC
0E007F
18000E
600004
ENDCHAR
STARTCHAR C4435
ENCODING 17461
SWIDTH 400 0
DWIDTH 24 0
BBX 24 24 0 -2
BITMAP
000000
000000
00001C
3FFFFC
000000
000000
000000
000000
000000
000000
000000
000070
0FFFF0
000000
000000
000000
000000
000000
000000
000000
000006
FFFFFF
000000
000000
ENDCHAR
STARTCHAR C4436
ENCODING 17462
SWIDTH 400 0
DWIDTH 24 0
BBX 24 24 0 -2
BITMAP
000000
000007
FFFFFF
003000
003000
003000
003000
003000
003C00
003700
0033C0
0031E0
0030E0
003070
003030
003030
003000
003000
003000
003000
003000
003000
003000
003000
ENDCHAR
STARTCHAR C4437
ENCODING 17463
SWIDTH 400 0
DWIDTH 24 0
BBX 24 24 0 -2
BITMAP
000700
000700
000600
000600
000604
7FFFFE
000600
000600
040600
040600
060E00
020E00
030C00
018C00
01D800
00F800
007000
007800
007C00
00CF00
0183E0
0701FF
1C007F
70001C
ENDCHAR
STARTCHAR C4438
ENCODING 17464
SWIDTH 400 0
DWIDTH 24 0
BBX 24 24 0 -2
BITMAP
003800
003800
003000
003000
003000
003000
003000
003000
003000
003018
003FFC
003000
003000
003000
003000
003000
003000
003000
003000
003000
003000
003006
FFFFFF
000000
ENDCHAR
STARTCHAR C4439
ENCODING 17465
SWIDTH 400 0
DWIDTH 24 0
BBX 24 24 0 -2
BITMAP
000070
0C0070
0700E0
0380E0
01C1C0
00E380
007700
007600
003C00
001800
001800
001800
001800
001800
001800
001800
001800
001800
001800
001800
001800
001800
001800
001000
ENDCHAR
STARTCHAR C443a
ENCODING 17466
SWIDTH 400 0
DWIDTH 24 0
BBX 24 24 0 -2
BITMAP
00C000
00C000
00C000
00C000
00C000
00C080
3FFFC0
01C0E0
00C0C0
00C0C0
00C0C0
00E0C0
00F0C0
0198C0
0198C0
0188C0
0380C0
0300C0
0300C1
0600C1
0C00C3
1800FF
30007F
60003E
ENDCHAR
STARTCHAR C443b
ENCODING 17467
SWIDTH 400 0
DWIDTH 24 0
BBX 24 24 0 -2
BITMAP
020000
0301C0
03FFE0
0300C0
0300C0
0300C0
0300C0
0300C0
0360C0
0330C0
0318C0
031CC0
030CC0
030CC0
0300C0
0300C0
0600C0
0600C0
0600C1
0C00C1
0C00C3
1800FF
30007F
60003E
ENDCHAR
STARTCHAR C443c
ENCODING 17468
SWIDTH 400 0
DWIDTH 24 0
BBX 24 24 0 -2
BITMAP
00C000
00C000
01C000
018000
018300
03FF80
030380
060300
060600
0C0600
180E00
300E00
200C00
001C00
001E00
003200
006300
00E180
01C0C0
038060
070038
0E001F
18000F
600007
ENDCHAR
STARTCHAR C443d
ENCODING 17469
SWIDTH 400 0
DWIDTH 24 0
BBX 24 24 0 -2
BITMAP
000000
003000
003800
007000
007000
006000
00C000
00C000
018700
030F00
060E00
0C1C00
181800
303000
207080
00E040
00C020
018030
030018
0601FC
0FFF8E
0FC006
060006
000000
ENDCHAR
STARTCHAR C443e
ENCODING 17470
SWIDTH 400 0
DWIDTH 24 0
BBX 24 24 0 -2
BITMAP
001C00
001C00
001800
0E1800
0E1800
0C1800
0C1800
0C1818
0C1FFC
FFF83C
0C1830
0C1830
0C1830
0C1860
0C1860
0C1840
0C1801
0C1801
0C1801
0C0003
0C0003
0FFFFF
07FFFF
03FFFE
ENDCHAR
STARTCHAR C443f
ENCODING 17471
SWIDTH 400 0
DWIDTH 24 0
BBX 24 24 0 -2
BITMAP
070000
070000
060000
060018
0FFFFC
0C0000
180000
300000
200380
47FFC0
000300
000600
001C00
003800
007000
01C000
038002
070002
0E0006
0C0004
1C000C
0FFFFE
07FFFE
03FFFC
ENDCHAR
STARTCHAR C4440
ENCODING 17472
SWIDTH 400 0
DWIDTH 24 0
BBX 24 24 0 -2
BITMAP
000008
00001C
3FFFFC
001800
001800
001800
001800
001800
001802
FFFFFF
003800
001800
001800
001800
001800
001800
001800
001800
001800
001800
001800
03F800
00F000
006000
ENDCHAR
STARTCHAR C4441
ENCODING 17473
SWIDTH 400 0
DWIDTH 24 0
BBX 24 24 0 -2
BITMAP
002000
001000
001800
001C00
000C00
000002
FFFFFF
0E0000
060000
060000
060000
060000
060000
060000
060000
060000
060000
060000
060000
060000
060000
07FFFE
03FFFE
000000
ENDCHAR
STARTCHAR C4442
ENCODING 17474
SWIDTH 400 0
DWIDTH 24 0
BBX 24 24 0 -2
BITMAP
000000
000006
FFFFFF
018300
018300
018300
018300
018300
018300
018300
018300
018300
018300
018300
038300
038300
030300
030300
060301
060301
0C0303
1803FF
3001FF
6000FE
ENDCHAR
STARTCHAR C4443
ENCODING 17475
SWIDTH 400 0
DWIDTH 24 0
BBX 24 24 0 -2
BITMAP
000000
00000C
3FFFFE
00300C
00300C
00300C
00300C
10300C
0C300C
07700C
03F00C
03F00C
01F00C
00E00C
00600C
00E00C
00C00C
00C00C
01800C
03801C
070038
0E07F0
1800E0
600040
ENDCHAR
STARTCHAR C4444
ENCODING 17476
SWIDTH 400 0
DWIDTH 24 0
BBX 24 24 0 -2
BITMAP
060000
060000
060000
0E0000
0C000C
1FFFFE
18000C
30000C
30000C
60000C
40C00C
00600C
00300C
00180C
00180C
00000C
00000C
00000C
00000C
00001C
000018
0007F8
0001F0
000060
ENDCHAR
STARTCHAR C4445
ENCODING 17477
SWIDTH 400 0
DWIDTH 24 0
BBX 24 24 0 -2
BITMAP
0007E0
007FF0
3FF800
001800
001800
001800
001800
001800
001802
FFFFFF
003800
001800
001800
001800
001800
001800
001800
001800
001800
001800
001800
001800
001800
001000
ENDCHAR
STARTCHAR C4446
ENCODING 17478
SWIDTH 400 0
DWIDTH 24 0
BBX 24 24 0 -2
BITMAP
000000
000038
1FFFF8
024030
027070
033860
0318E0
0108C0
0181C0
008180
00C300
004700
006600
003E00
003C00
003C00
007E00
00E700
01C380
0381E0
0700FC
0E007F
18000E
600004
ENDCHAR
STARTCHAR C4447
ENCODING 17479
SWIDTH 400 0
DWIDTH 24 0
BBX 24 24 0 -2
BITMAP
000000
000000
000000
180030
1FFFF0
1C0030
1C0030
1C0030
1C0030
1C0030
1C0030
1C0030
1C0030
1C0030
1C0030
1C0030
1C0030
1C0030
1FFFF0
1C0030
180020
000000
000000
000000
ENDCHAR
STARTCHAR C4448
ENCODING 17480
SWIDTH 400 0
DWIDTH 24 0
BBX 24 24 0 -2
BITMAP
000000
001C00
001C00
001800
001800
001800
001800
001800
001800
00180C
3FFFFE
001800
001800
001800
001800
001800
001800
001800
001800
001800
001800
001806
FFFFFF
000000
ENDCHAR
STARTCHAR C4449
ENCODING 17481
SWIDTH 400 0
DWIDTH 24 0
BBX 24 24 0 -2
BITMAP
001000
001C00
001800
001800
001800
001800
001800
001800
001800
001806
FFFFFF
001800
001800
001800
001800
001800
001800
001800
001800
001800
001800
001818
3FFFFC
000000
ENDCHAR
STARTCHAR C444a
ENCODING 17482
SWIDTH 400 0
DWIDTH 24 0
BBX 24 24 0 -2
BITMAP
007000
007000
007000
006000
006038
00FFFC
00C038
018038
018030
038030
066060
063860
0C18E0
1818C0
3009C0
200380
000700
000E00
001C00
007000
00E000
038000
1E0000
780000
ENDCHAR
STARTCHAR C444b
ENCODING 17483
SWIDTH 400 0
DWIDTH 24 0
BBX 24 24 0 -2
BITMAP
001800
001800
001800
001800
001800
001800
001806
7FFFFE
001800
003800
003800
003C00
007400
006600
006200
00C300
00C100
018180
0300C0
060070
0C003C
18001F
30000F
600004
ENDCHAR
STARTCHAR C444c
ENCODING 17484
SWIDTH 400 0
DWIDTH 24 0
BBX 24 24 0 -2
BITMAP
00C000
00C000
00C000
00C0E0
00C0E0
0180C2
FFFFFF
0180C0
0180C0
0380C0
0301C0
030180
060180
060300
0E0300
0FC700
007E00
001F00
001FC0
0071E0
00E070
038038
0E001C
70000C
ENDCHAR
STARTCHAR C444d
ENCODING 17485
SWIDTH 400 0
DWIDTH 24 0
BBX 24 24 0 -2
BITMAP
000000
000038
1FFFF8
0000F0
0001C0
000300
000E00
001800
001800
001800
001800
001806
FFFFFF
001800
001800
001800
001800
001800
001800
001800
001800
01F800
007800
003000
ENDCHAR
STARTCHAR C444e
ENCODING 17486
SWIDTH 400 0
DWIDTH 24 0
BBX 24 24 0 -2
BITMAP
000000
000038
1FFFF8
0000F0
0001C0
000300
000E00
001800
001800
001800
00180E
001BF8
03FF00
7F9800
7C1800
301800
001800
001800
001800
001800
001800
01F800
007800
003000
ENDCHAR
STARTCHAR C444f
ENCODING 17487
SWIDTH 400 0
DWIDTH 24 0
BBX 24 24 0 -2
BITMAP
000000
000038
1FFFF8
0000F0
0001C0
000300
000E00
301800
181800
0E1800
071800
019800
00F800
007800
003800
001E00
001F00
001BE0
0018FF
00187F
00181E
01F800
007800
003000
ENDCHAR
STARTCHAR C4450
ENCODING 17488
SWIDTH 400 0
DWIDTH 24 0
BBX 24 24 0 -2
BITMAP
0001C0
0001C0
0001C0
0001C0
0001C0
0001C2
7FFFFF
0001C0
0001C0
0001C0
0601C0
0301C0
0181C0
01C1C0
00C1C0
00C1C0
0001C0
0001C0
0001C0
0001C0
0001C0
001FC0
000F80
000300
ENDCHAR
STARTCHAR C4451
ENCODING 17489
SWIDTH 400 0
DWIDTH 24 0
BBX 24 24 0 -2
BITMAP
001C00
001C00
001800
001800
001800
001800
041800
071840
061820
0E1810
0C1818
0C180C
18180E
181806
301807
301803
601803
C01801
001800
001800
001800
03F800
00F800
007000
ENDCHAR
STARTCHAR C4452
ENCODING 17490
SWIDTH 400 0
DWIDTH 24 0
BBX 24 24 0 -2
BITMAP
003800
003800
003000
003000
003000
003004
7FFFFE
003000
003000
003E00
003E00
007E00
006E00
006E00
00EE00
00CE00
00CE00
018E00
030E01
060E01
0C0E03
180FFF
3007FF
6003FE
ENDCHAR
STARTCHAR C4453
ENCODING 17491
SWIDTH 400 0
DWIDTH 24 0
BBX 24 24 0 -2
BITMAP
000008
1C001C
1FFFFC
1C000C
1C000C
1C000C
1C000C
1C000C
1C000C
1FFFFC
1C0008
1C0000
1C0000
1C0000
1C0000
1C0000
180000
180000
180000
300000
300000
600000
600000
C00000
ENDCHAR
STARTCHAR C4454
ENCODING 17492
SWIDTH 400 0
DWIDTH 24 0
BBX 24 24 0 -2
BITMAP
001800
001800
001800
001800
001800
001800
201808
38180E
30180C
30180C
30180C
30180C
30180C
30180C
30180C
30180C
30180C
30180C
30180C
30180C
30180C
7FFFFC
000008
000000
ENDCHAR
STARTCHAR C4455
ENCODING 17493
SWIDTH 400 0
DWIDTH 24 0
BBX 24 24 0 -2
BITMAP
0E000C
0E080C
0C0E0C
0C0C0C
0C0C0C
0C0C0C
0C0C0C
0C0C0C
0C0C0C
0C0C0C
0C0C0C
0C0C0C
0C0C0C
0C0C0C
0C0C0C
0C0C0C
0C0C0C
1C0C0C
180C0C
180C0C
380C0C
30000C
20000C
400008
ENDCHAR
STARTCHAR C4456
ENCODING 17494
SWIDTH 400 0
DWIDTH 24 0
BBX 24 24 0 -2
BITMAP
000000
000000
000008
3FFFFC
003800
001800
001800
001800
001800
001800
001800
001800
001800
001800
001800
001800
001800
001800
001800
001804
00180E
FFFFFF
000000
000000
ENDCHAR
STARTCHAR C4457
ENCODING 17495
SWIDTH 400 0
DWIDTH 24 0
BBX 24 24 0 -2
BITMAP
000020
000070
3FFFF8
000030
000030
000030
000030
000030
000030
000030
3FFFF0
300030
300000
300000
300000
300000
300000
300000
300002
300002
300006
3FFFFE
1FFFFE
0FFFFC
ENDCHAR
STARTCHAR C4458
ENCODING 17496
SWIDTH 400 0
DWIDTH 24 0
BBX 24 24 0 -2
BITMAP
000020
000070
3FFFF8
000030
000030
300030
380030
300030
300030
300030
3FFFF0
300030
300000
300000
300000
300000
300000
300000
300002
300002
300006
3FFFFE
1FFFFE
0FFFFC
ENDCHAR
STARTCHAR C4459
ENCODING 17497
SWIDTH 400 0
DWIDTH 24 0
BBX 24 24 0 -2
BITMAP
000020
300070
3FFFF8
300030
300030
300030
300030
300030
300030
300030
3FFFF0
300030
300000
300000
300000
300000
300000
300000
300002
300002
300006
3FFFFE
1FFFFE
0FFFFC
ENDCHAR
STARTCHAR C445a
ENCODING 17498
SWIDTH 400 0
DWIDTH 24 0
BBX 24 24 0 -2
BITMAP
001800
001800
001800
001800
301818
3FFFFC
30181C
301818
301818
301818
301818
301818
301818
301818
301818
301818
301818
3019F8
301870
301820
001800
001800
001800
001000
ENDCHAR
STARTCHAR C445b
ENCODING 17499
SWIDTH 400 0
DWIDTH 24 0
BBX 24 24 0 -2
BITMAP
000008
00001C
3FFFFC
001800
001800
001800
001800
001800
001800
001800
003807
FFFFFF
001800
001800
001800
001800
001800
001800
001800
001800
001800
001800
001800
001000
ENDCHAR
STARTCHAR C445c
ENCODING 17500
SWIDTH 400 0
DWIDTH 24 0
BBX 24 24 0 -2
BITMAP
0381C0
0381C0
0381C0
0381C0
0381C0
0381C0
0381C0
0381C0
0381C6
FFFFFF
0381C0
0381C0
0381C0
0381C0
0301C0
0301C0
0201C0
0601C0
0601C0
0401C0
0C01C0
1801C0
3001C0
600180
ENDCHAR
STARTCHAR C445d
ENCODING 17501
SWIDTH 400 0
DWIDTH 24 0
BBX 24 24 0 -2
BITMAP
007000
007200
006180
0061C0
0060C0
0060C0
006006
007FFE
7FF000
007000
003000
003000
003000
001800
001800
001C00
000C00
000E00
000600
000301
000183
0000F6
00007E
00001E
ENDCHAR
STARTCHAR C445e
ENCODING 17502
SWIDTH 400 0
DWIDTH 24 0
BBX 24 24 0 -2
BITMAP
000030
3FFFF0
000030
000030
000030
000030
000030
1FFFF0
1C0030
180000
180000
300010
3FFFF8
30001C
000018
000018
000018
000038
000038
000030
000070
000FE0
0003C0
000180
ENDCHAR
STARTCHAR C445f
ENCODING 17503
SWIDTH 400 0
DWIDTH 24 0
BBX 24 24 0 -2
BITMAP
000300
000300
000300
000300
000300
000302
3FFFFF
000700
000700
000F00
000F00
001B00
003B00
007300
00E300
01C300
038300
070300
0E0300
180300
700300
C07F00
001E00
000C00
ENDCHAR
STARTCHAR C4460
ENCODING 17504
SWIDTH 400 0
DWIDTH 24 0
BBX 24 24 0 -2
BITMAP
000040
0000E0
1FFFE0
00C060
00C060
00C060
00C060
00C060
00C060
00C060
00C066
FFFFFF
0180C0
0180C0
0180C0
0180C0
0180C0
0180C0
0380C0
0380C0
0380C0
0380CC
7FFFFE
000000
ENDCHAR
STARTCHAR C4461
ENCODING 17505
SWIDTH 400 0
DWIDTH 24 0
BBX 24 24 0 -2
BITMAP
000006
7FFFFE
001800
001800
001800
081810
1E1FF8
1C1800
1C1800
1C1800
1C1800
1C1808
1FFFFC
18001C
00000C
00000C
00000C
00001C
000018
000018
000038
000FF0
0003E0
0001C0
ENDCHAR
STARTCHAR C4462
ENCODING 17506
SWIDTH 400 0
DWIDTH 24 0
BBX 24 24 0 -2
BITMAP
000000
000007
7FFFFF
000600
000600
000C00
001C00
001800
003800
007880
00F860
019830
03181C
06180E
0C1807
181803
601801
801800
001800
001800
001800
001800
001800
001000
ENDCHAR
STARTCHAR C4463
ENCODING 17507
SWIDTH 400 0
DWIDTH 24 0
BBX 24 24 0 -2
BITMAP
001800
001800
001800
001800
001800
30181C
3FFFFC
30180C
30180C
30180C
30180C
30180C
30180C
30381C
3FFFFC
301808
001800
001800
001800
001800
001800
001800
001800
001000
ENDCHAR
STARTCHAR C4464
ENCODING 17508
SWIDTH 400 0
DWIDTH 24 0
BBX 24 24 0 -2
BITMAP
001800
001800
0018E0
007FF0
03F800
1F1800
001800
001800
001810
1FFFF8
003800
001800
001800
001800
001806
FFFFFF
001800
001800
001800
001800
001800
001800
001800
001000
ENDCHAR
STARTCHAR C4465
ENCODING 17509
SWIDTH 400 0
DWIDTH 24 0
BBX 24 24 0 -2
BITMAP
020040
0300E0
03FFE0
030060
030060
033060
031860
030C60
030C60
030060
030066
FFFFFF
030060
030060
030060
060060
060060
060060
060060
040060
0C0060
180FE0
1003C0
200180
ENDCHAR
STARTCHAR C4466
ENCODING 17510
SWIDTH 400 0
DWIDTH 24 0
BBX 24 24 0 -2
BITMAP
00C000
007000
003800
001800
001800
000030
1FFFF8
000078
000070
0000E0
0001C0
000380
000E00
001C00
003800
006000
00C000
018000
070000
1C0000
7F0000
61FFFF
00FFFC
003FF8
ENDCHAR
STARTCHAR C4467
ENCODING 17511
SWIDTH 400 0
DWIDTH 24 0
BBX 24 24 0 -2
BITMAP
000000
000060
1FFFF0
007060
007060
007060
007066
FFFFFF
007060
007060
007060
007060
1FFFE0
006060
006000
00C000
00C000
018000
018000
030000
060000
0C0000
180000
600000
ENDCHAR
STARTCHAR C4468
ENCODING 17512
SWIDTH 400 0
DWIDTH 24 0
BBX 24 24 0 -2
BITMAP
000030
1FFFF0
000070
0000C0
018180
006300
003C00
001C00
000C06
FFFFFF
001806
00180E
00180C
001808
001800
001800
001800
001800
001800
001800
001800
01F800
007800
003000
ENDCHAR
STARTCHAR C4469
ENCODING 17513
SWIDTH 400 0
DWIDTH 24 0
BBX 24 24 0 -2
BITMAP
000000
000030
1FFFF8
000000
000000
000000
000000
000000
000002
FFFFFF
00E000
00E000
00C000
00C000
018000
030040
030060
060030
0C0018
18001C
3FFFFC
3FF80E
180006
000000
ENDCHAR
STARTCHAR C446a
ENCODING 17514
SWIDTH 400 0
DWIDTH 24 0
BBX 24 24 0 -2
BITMAP
0381C0
0381C0
038180
038180
038180
03818C
7FFFFE
038180
038180
038180
038180
038180
038186
FFFFFF
038180
030180
030180
030180
060180
060180
0C0180
080180
100180
200180
ENDCHAR
STARTCHAR C446b
ENCODING 17515
SWIDTH 400 0
DWIDTH 24 0
BBX 24 24 0 -2
BITMAP
000000
00000C
3FFFFC
00C000
00C000
00C000
018040
0180E0
01FFE0
038060
038060
038060
0300E0
0300C0
0300C0
0600C0
07FFC0
0001C0
0001C0
000180
000180
000180
000187
FFFFFF
ENDCHAR
STARTCHAR C446c
ENCODING 17516
SWIDTH 400 0
DWIDTH 24 0
BBX 24 24 0 -2
BITMAP
000000
00000C
3FFFFC
006000
006000
006000
006000
00E000
00C000
00C040
00E0E0
1FFFE0
00C060
00C060
00C060
00C060
018060
018060
018060
018060
038060
038060
0380E7
FFFFFF
ENDCHAR
STARTCHAR C446d
ENCODING 17517
SWIDTH 400 0
DWIDTH 24 0
BBX 24 24 0 -2
BITMAP
002000
001000
001800
001806
FFFFFF
000000
000000
000180
03FFC0
0381C0
0381C0
0381C0
0381C0
0381C0
0381C0
0381C0
0301C0
0301C1
0601C1
0601C1
0C01C3
1800FF
30007F
600000
ENDCHAR
STARTCHAR C446e
ENCODING 17518
SWIDTH 400 0
DWIDTH 24 0
BBX 24 24 0 -2
BITMAP
038000
038000
070000
060000
060000
0C0008
1CFFFC
1C0000
3C0000
3C0000
7C0000
5C0000
9C0000
1C0000
1C0000
1C0000
1C0000
1C0000
1C0000
1C0000
1C0006
1DFFFF
1C0000
180000
ENDCHAR
STARTCHAR C446f
ENCODING 17519
SWIDTH 400 0
DWIDTH 24 0
BBX 24 24 0 -2
BITMAP
038380
038380
070300
060300
060300
0C0300
1C0300
1C0300
3C0302
3CFFFF
7C0380
5C0300
9C0300
1C0300
1C0300
1C0300
1C0300
1C0300
1C0300
1C0300
1C0300
1C0300
1C0300
180300
ENDCHAR
STARTCHAR C4470
ENCODING 17520
SWIDTH 400 0
DWIDTH 24 0
BBX 24 24 0 -2
BITMAP
038000
038000
070002
06FFFF
0601C0
0C01C0
1C01C0
1C01C0
3C01C0
3C01C0
7C01C0
5C01C0
9C01C0
1C01C0
1C01C0
1C01C0
1C01C0
1C01C0
1C01C0
1C01C0
1C01C0
1C1F80
1C0F80
180300
ENDCHAR
STARTCHAR C4471
ENCODING 17521
SWIDTH 400 0
DWIDTH 24 0
BBX 24 24 0 -2
BITMAP
038E00
038E00
070E00
060E00
060E00
0C0E00
1C0E00
1C0E00
3C0F80
3C0EC0
7C0E70
5C0E38
9C0E1C
1C0E0C
1C0E0C
1C0E00
1C0E00
1C0E00
1C0E00
1C0E00
1C0E00
1C0E00
1C0E00
180C00
ENDCHAR
STARTCHAR C4472
ENCODING 17522
SWIDTH 400 0
DWIDTH 24 0
BBX 24 24 0 -2
BITMAP
039C00
039C00
071800
061800
061800
0C1860
1CFFF0
1C1C70
3C1860
3C1860
7C1860
5C1860
9C1860
1C1860
1C1860
1C3860
1C3060
1C3061
1C3061
1C6061
1C6063
1CC07F
1C803F
19000E
ENDCHAR
STARTCHAR C4473
ENCODING 17523
SWIDTH 400 0
DWIDTH 24 0
BBX 24 24 0 -2
BITMAP
038020
038070
077FF8
061830
061830
0C1870
1C1860
1C1860
3C1864
3C18FE
7C1846
5C1806
9C1806
1C1806
1C1806
1C3006
1C3006
1C3006
1C600E
1C600C
1CC00C
1CC1FC
1D8078
1B0030
ENDCHAR
STARTCHAR C4474
ENCODING 17524
SWIDTH 400 0
DWIDTH 24 0
BBX 24 24 0 -2
BITMAP
001800
001800
003C00
006400
006200
00C300
018180
0300C0
060070
0C00BF
1FFFCF
700007
C00000
000060
0FFFF0
000070
000060
0000C0
0000C0
000180
000180
000300
000200
000400
ENDCHAR
STARTCHAR C4475
ENCODING 17525
SWIDTH 400 0
DWIDTH 24 0
BBX 24 24 0 -2
BITMAP
001800
001800
003C00
007400
006200
00C300
018180
0300E0
06007C
0F81DF
3381CF
E38182
038180
038180
038180
030180
030180
030180
060180
060180
040180
0C0180
180180
300180
ENDCHAR
STARTCHAR C4476
ENCODING 17526
SWIDTH 400 0
DWIDTH 24 0
BBX 24 24 0 -2
BITMAP
100000
180007
1FFFFF
180000
180F00
180E00
180E00
180E00
180E00
180E00
180E00
180E00
180F00
181900
181900
181980
3030C0
3030E0
306070
30C038
21801C
63000F
C60007
9C0000
ENDCHAR
STARTCHAR C4477
ENCODING 17527
SWIDTH 400 0
DWIDTH 24 0
BBX 24 24 0 -2
BITMAP
000000
000038
1FFFF8
000000
000000
000000
000000
000000
000006
FFFFFF
00C300
00C300
00C300
00C300
018300
018300
018300
030300
030301
060301
0C0303
1803FF
3003FF
6001FE
ENDCHAR
STARTCHAR C4478
ENCODING 17528
SWIDTH 400 0
DWIDTH 24 0
BBX 24 24 0 -2
BITMAP
003800
003800
007000
00E000
00C000
0180C0
030060
060038
0C001C
3FFFFC
1FE70C
0D8304
018300
018300
018300
018300
038300
038301
030301
060301
060303
0C03FF
1803FF
7000FE
ENDCHAR
STARTCHAR C4479
ENCODING 17529
SWIDTH 400 0
DWIDTH 24 0
BBX 24 24 0 -2
BITMAP
006000
006000
007000
003000
003000
60300C
7FFFFE
60180C
60180C
603C0C
603C0C
607E0C
60660C
60C30C
60C38C
6183CC
6381FC
6700EC
6C006C
60000C
60000C
6000FC
60007C
600018
ENDCHAR
STARTCHAR C447a
ENCODING 17530
SWIDTH 400 0
DWIDTH 24 0
BBX 24 24 0 -2
BITMAP
004000
007000
003800
001800
001800
001800
000806
FFFFFF
000000
000000
000000
000000
01C300
01C180
0380C0
038060
030030
070038
0E001C
0C000C
1C000E
18000F
300006
600000
ENDCHAR
STARTCHAR C447b
ENCODING 17531
SWIDTH 400 0
DWIDTH 24 0
BBX 24 24 0 -2
BITMAP
000400
010200
038300
038180
030180
0700C0
060060
060070
0C00FC
1BFFFF
30C006
60C000
C0C000
018040
01FFE0
010060
000060
0000E0
0000C0
0000C0
0001C0
003F80
000F00
000600
ENDCHAR
STARTCHAR C447c
ENCODING 17532
SWIDTH 400 0
DWIDTH 24 0
BBX 24 24 0 -2
BITMAP
000C00
000C00
010600
03C200
038300
030180
0701C0
0600E0
0C0070
0C0038
18003C
30381F
60380E
807000
006000
00C000
00C100
018080
030060
060070
0C03F8
1FFF18
1FC01C
0E000C
ENDCHAR
STARTCHAR C447d
ENCODING 17533
SWIDTH 400 0
DWIDTH 24 0
BBX 24 24 0 -2
BITMAP
000000
200006
3FFFFF
600007
E00004
C00008
800000
038300
03FF80
038300
038300
038300
038300
038300
038300
038300
030300
030301
030301
060301
060303
0C03FF
1801FF
20007E
ENDCHAR
STARTCHAR C447e
ENCODING 17534
SWIDTH 400 0
DWIDTH 24 0
BBX 24 24 0 -2
BITMAP
000000
000000
70008E
7001EE
6001CC
6001CC
60018C
63038C
61C30C
60E70C
60760C
603E0C
601C0C
601E0C
603F0C
60638C
60C1CC
6181EC
6300EC
64006C
68000C
60000C
7FFFFC
00000C
ENDCHAR
STARTCHAR C4521
ENCODING 17697
SWIDTH 400 0
DWIDTH 24 0
BBX 24 24 0 -2
BITMAP
000C00
010600
038700
038300
030180
0701C0
0600E0
060070
0C0038
18005F
3800EF
67FFE6
40C060
00C060
00C060
00C060
00C060
018060
0180E0
0300C0
0700C0
0E1FC0
180F80
700300
ENDCHAR
STARTCHAR C4522
ENCODING 17698
SWIDTH 400 0
DWIDTH 24 0
BBX 24 24 0 -2
BITMAP
380000
380000
30000E
303FFF
300306
300306
308306
39C306
FFC306
300306
300306
300306
300606
300606
300606
300E06
30CC06
378C0E
3E180C
38180C
10300C
0061FC
00C078
070030
ENDCHAR
STARTCHAR C4523
ENCODING 17699
SWIDTH 400 0
DWIDTH 24 0
BBX 24 24 0 -2
BITMAP
004007
007007
006006
006106
0061C6
70C186
38C186
1CC186
0EC186
07C186
038186
038186
03C186
03C186
076186
063186
061986
0C1986
181906
100006
200006
40007E
80003C
000008
ENDCHAR
ENDFONT
